G04 Layer_Color=128*
%FSLAX24Y24*%
%MOIN*%
G70*
G01*
G75*
%ADD42C,0.0049*%
%ADD49C,0.0020*%
D42*
X-21260Y0D02*
Y787D01*
X-22047D02*
X-21260D01*
X-22047D02*
Y2362D01*
X-22835D02*
X-22047D01*
X-22835D02*
Y3150D01*
X-24409D02*
X-22835D01*
X-24409D02*
Y3937D01*
X-25197D02*
X-24409D01*
X-25197D02*
Y4724D01*
X-25984D02*
X-25197D01*
X-25984D02*
Y5512D01*
X-27559D02*
X-25984D01*
X-27559Y4724D02*
Y5512D01*
X-28346Y4724D02*
X-27559D01*
X-28346Y3937D02*
Y4724D01*
X-29921Y3937D02*
X-28346D01*
X-29921D02*
Y4724D01*
X-30709D02*
X-29921D01*
X-30709D02*
Y6299D01*
X-31496D02*
X-30709D01*
X-31496D02*
Y7087D01*
X-33071D02*
X-31496D01*
X-33071D02*
Y8661D01*
X-31496D01*
Y9449D01*
X-30709D01*
Y10236D01*
X-29921D01*
Y11024D01*
X-29134D01*
Y12598D01*
X-28346D01*
Y14173D01*
X-29134D02*
X-28346D01*
X-29134D02*
Y14961D01*
X-29921D02*
X-29134D01*
X-29921D02*
Y15748D01*
X-28346D01*
Y16535D01*
X-27559D01*
Y17323D01*
X-26772D01*
Y18110D01*
X-25984D01*
Y19685D01*
X-25197D01*
Y21260D01*
X-24409D01*
Y22047D01*
X-25197D02*
X-24409D01*
X-25197D02*
Y22835D01*
X-25984D02*
X-25197D01*
X-25984D02*
Y23622D01*
X-25197D01*
Y24409D01*
X-24409D01*
Y25197D01*
X-23622D01*
Y25984D01*
X-22835D01*
Y26772D01*
X-22047D01*
Y27559D01*
X-21260D01*
Y28346D01*
X-20472D01*
Y29921D01*
X-19685D01*
Y30709D01*
X-18898D01*
Y33071D01*
X-19685D02*
X-18898D01*
X-19685D02*
Y33858D01*
X-18898D01*
Y34646D01*
X-18110D01*
Y35433D01*
X-18898D02*
X-18110D01*
X-18898D02*
Y36220D01*
X-19685D02*
X-18898D01*
X-19685D02*
Y37008D01*
X-17323D01*
Y37795D01*
X-16535D01*
Y39370D01*
X-15748D01*
Y38583D02*
Y39370D01*
Y38583D02*
X-14961D01*
Y37008D02*
Y38583D01*
Y37008D02*
X-12598D01*
Y36220D02*
Y37008D01*
X-13386Y36220D02*
X-12598D01*
X-13386Y35433D02*
Y36220D01*
X-14173Y35433D02*
X-13386D01*
X-14173Y34646D02*
Y35433D01*
Y34646D02*
X-13386D01*
Y33858D02*
Y34646D01*
Y33858D02*
X-12598D01*
Y33071D02*
Y33858D01*
X-13386Y33071D02*
X-12598D01*
X-13386Y32283D02*
Y33071D01*
Y30709D02*
Y32283D01*
Y30709D02*
X-12598D01*
Y29921D02*
Y30709D01*
Y29921D02*
X-11811D01*
Y28346D02*
Y29921D01*
Y28346D02*
X-11024D01*
Y27559D02*
Y28346D01*
Y27559D02*
X-10236D01*
Y26772D02*
Y27559D01*
Y26772D02*
X-9449D01*
Y25984D02*
Y26772D01*
Y25984D02*
X-8661D01*
Y25197D02*
Y25984D01*
Y25197D02*
X-7874D01*
Y24409D02*
Y25197D01*
Y24409D02*
X-7087D01*
Y23622D02*
Y24409D01*
X-7874Y23622D02*
X-7087D01*
X-7874Y22835D02*
Y23622D01*
X-8661Y22835D02*
X-7874D01*
X-8661Y22047D02*
Y22835D01*
Y22047D02*
X-7874D01*
Y21260D02*
Y22047D01*
Y21260D02*
X-7087D01*
Y19685D02*
Y21260D01*
Y19685D02*
X-6299D01*
Y18898D02*
Y19685D01*
Y18898D02*
X-5512D01*
Y18110D02*
Y18898D01*
Y18110D02*
X-4724D01*
Y17323D02*
Y18110D01*
Y17323D02*
X-3937D01*
Y16535D02*
Y17323D01*
Y16535D02*
X-3150D01*
Y14961D02*
Y16535D01*
X-4724Y14961D02*
X-3150D01*
X-4724Y13386D02*
Y14961D01*
Y13386D02*
X-3937D01*
Y11811D02*
Y13386D01*
Y11811D02*
X-3150D01*
Y11024D02*
Y11811D01*
Y11024D02*
X-2362D01*
Y10236D02*
Y11024D01*
Y10236D02*
X-1575D01*
Y9449D02*
Y10236D01*
Y9449D02*
X-787D01*
Y8661D02*
Y9449D01*
Y8661D02*
X0D01*
Y6299D02*
Y8661D01*
X-787Y6299D02*
X0D01*
X-787Y5512D02*
Y6299D01*
X-3937Y5512D02*
X-787D01*
X-3937D02*
Y6299D01*
X-5512D02*
X-3937D01*
X-5512Y5512D02*
Y6299D01*
X-6299Y5512D02*
X-5512D01*
X-6299Y4724D02*
Y5512D01*
X-7087Y4724D02*
X-6299D01*
X-7087Y3150D02*
Y4724D01*
X-7874Y3150D02*
X-7087D01*
X-7874Y2362D02*
Y3150D01*
X-9449Y2362D02*
X-7874D01*
X-9449D02*
Y3150D01*
X-10236D02*
X-9449D01*
X-10236D02*
Y3937D01*
X-11024D02*
X-10236D01*
X-11024Y2362D02*
Y3937D01*
X-11811Y2362D02*
X-11024D01*
X-11811Y787D02*
Y2362D01*
X-13386Y787D02*
X-11811D01*
X-13386Y0D02*
Y787D01*
X-21260Y0D02*
X-13386D01*
D49*
X-19524Y27874D02*
X-19374D01*
X-19449Y27799D02*
Y27949D01*
X-15154Y14331D02*
X-15004D01*
X-15079Y14256D02*
Y14406D01*
X-15429Y14016D02*
X-15279D01*
X-15354Y13941D02*
Y14091D01*
X-15429Y13622D02*
X-15279D01*
X-15354Y13547D02*
Y13697D01*
X-16217Y8976D02*
X-16067D01*
X-16142Y8901D02*
Y9051D01*
X-16925Y5315D02*
X-16775D01*
X-16850Y5240D02*
Y5390D01*
X-15249Y31220D02*
X-15099D01*
X-15174Y31145D02*
Y31295D01*
X-21886Y13701D02*
X-21736D01*
X-21811Y13626D02*
Y13776D01*
X-21886Y12283D02*
X-21736D01*
X-21811Y12208D02*
Y12358D01*
X-19918Y27441D02*
X-19768D01*
X-19843Y27366D02*
Y27516D01*
X-14878Y17205D02*
X-14728D01*
X-14803Y17130D02*
Y17280D01*
X-15981Y16654D02*
X-15831D01*
X-15906Y16579D02*
Y16729D01*
X-16768Y35551D02*
X-16618D01*
X-16693Y35476D02*
Y35626D01*
X-11729Y24291D02*
X-11579D01*
X-11654Y24216D02*
Y24366D01*
X-12831Y24291D02*
X-12681D01*
X-12756Y24216D02*
Y24366D01*
X-12831Y23740D02*
X-12681D01*
X-12756Y23665D02*
Y23815D01*
X-6217Y16417D02*
X-6067D01*
X-6142Y16342D02*
Y16492D01*
X-7319Y15866D02*
X-7169D01*
X-7244Y15791D02*
Y15941D01*
X-10941Y10945D02*
X-10791D01*
X-10866Y10870D02*
Y11020D01*
X-10941Y10354D02*
X-10791D01*
X-10866Y10279D02*
Y10429D01*
X-12043Y10354D02*
X-11894D01*
X-11968Y10279D02*
Y10429D01*
X-8579Y5394D02*
X-8429D01*
X-8504Y5319D02*
Y5469D01*
X-8579Y4843D02*
X-8429D01*
X-8504Y4768D02*
Y4918D01*
X-9681Y4843D02*
X-9531D01*
X-9606Y4768D02*
Y4918D01*
X-22280Y12717D02*
X-22130D01*
X-22205Y12642D02*
Y12792D01*
X-21177Y13268D02*
X-21027D01*
X-21102Y13193D02*
Y13343D01*
X-21177Y12717D02*
X-21027D01*
X-21102Y12642D02*
Y12792D01*
X-15666Y36102D02*
X-15516D01*
X-15591Y36027D02*
Y36177D01*
X-16768Y36102D02*
X-16618D01*
X-16693Y36027D02*
Y36177D01*
X-15981Y17205D02*
X-15831D01*
X-15906Y17130D02*
Y17280D01*
X-18815Y27441D02*
X-18665D01*
X-18740Y27366D02*
Y27516D01*
X-25902Y8543D02*
X-25752D01*
X-25827Y8468D02*
Y8618D01*
X-27004Y7992D02*
X-26854D01*
X-26929Y7917D02*
Y8067D01*
X-25902Y7992D02*
X-25752D01*
X-25827Y7917D02*
Y8067D01*
X-22752Y18780D02*
X-22602D01*
X-22677Y18705D02*
Y18855D01*
X-22752Y18228D02*
X-22602D01*
X-22677Y18153D02*
Y18303D01*
X-23855Y18228D02*
X-23705D01*
X-23780Y18153D02*
Y18303D01*
X-24169Y18504D02*
X-24019D01*
X-24094Y18429D02*
Y18579D01*
X-23855Y18780D02*
X-23705D01*
X-23780Y18705D02*
Y18855D01*
X-6217Y15866D02*
X-6067D01*
X-6142Y15791D02*
Y15941D01*
X-12043Y10906D02*
X-11894D01*
X-11968Y10831D02*
Y10981D01*
X-9681Y5394D02*
X-9531D01*
X-9606Y5319D02*
Y5469D01*
X-27004Y8543D02*
X-26854D01*
X-26929Y8468D02*
Y8618D01*
X-22280Y13268D02*
X-22130D01*
X-22205Y13193D02*
Y13343D01*
X-18815Y26890D02*
X-18665D01*
X-18740Y26815D02*
Y26965D01*
X-19918Y26890D02*
X-19768D01*
X-19843Y26815D02*
Y26965D01*
X-15666Y35551D02*
X-15516D01*
X-15591Y35476D02*
Y35626D01*
X-19209Y26457D02*
X-19059D01*
X-19134Y26382D02*
Y26532D01*
X-11729Y23740D02*
X-11579D01*
X-11654Y23665D02*
Y23815D01*
X-11295Y23740D02*
X-11145D01*
X-11220Y23665D02*
Y23815D01*
X-14878Y16260D02*
X-14728D01*
X-14803Y16185D02*
Y16335D01*
X-14878Y16772D02*
X-14728D01*
X-14803Y16697D02*
Y16847D01*
X-7319Y16417D02*
X-7169D01*
X-7244Y16342D02*
Y16492D01*
X-7673Y16142D02*
X-7523D01*
X-7598Y16067D02*
Y16217D01*
X-11335Y9882D02*
X-11185D01*
X-11260Y9807D02*
Y9957D01*
X-12516Y10906D02*
X-12366D01*
X-12441Y10831D02*
Y10981D01*
X-10154Y5394D02*
X-10004D01*
X-10079Y5319D02*
Y5469D01*
X-26256Y7559D02*
X-26106D01*
X-26181Y7484D02*
Y7634D01*
X-15232Y4921D02*
X-15082D01*
X-15157Y4846D02*
Y4996D01*
X-15232Y5315D02*
X-15082D01*
X-15157Y5240D02*
Y5390D01*
X-15626Y5315D02*
X-15476D01*
X-15551Y5240D02*
Y5390D01*
X-15626Y4921D02*
X-15476D01*
X-15551Y4846D02*
Y4996D01*
X-15626Y5709D02*
X-15476D01*
X-15551Y5634D02*
Y5784D01*
X-15232Y5709D02*
X-15082D01*
X-15157Y5634D02*
Y5784D01*
M02*
