G04 Layer_Physical_Order=1*
G04 Layer_Color=255*
%FSLAX24Y24*%
%MOIN*%
G70*
G01*
G75*
%ADD10O,0.0098X0.0374*%
%ADD11O,0.0098X0.0413*%
%ADD12O,0.0374X0.0098*%
%ADD13O,0.0413X0.0098*%
%ADD14R,0.0394X0.0394*%
%ADD15R,0.0354X0.0394*%
%ADD16R,0.0571X0.0453*%
%ADD17R,0.0394X0.0354*%
G04:AMPARAMS|DCode=18|XSize=78.7mil|YSize=39.4mil|CornerRadius=6.9mil|HoleSize=0mil|Usage=FLASHONLY|Rotation=180.000|XOffset=0mil|YOffset=0mil|HoleType=Round|Shape=RoundedRectangle|*
%AMROUNDEDRECTD18*
21,1,0.0787,0.0256,0,0,180.0*
21,1,0.0650,0.0394,0,0,180.0*
1,1,0.0138,-0.0325,0.0128*
1,1,0.0138,0.0325,0.0128*
1,1,0.0138,0.0325,-0.0128*
1,1,0.0138,-0.0325,-0.0128*
%
%ADD18ROUNDEDRECTD18*%
%ADD19R,0.0787X0.0394*%
%ADD20R,0.0484X0.0874*%
%ADD21R,0.0394X0.0315*%
%ADD22R,0.0315X0.0394*%
%ADD23R,0.0571X0.0236*%
%ADD24O,0.0571X0.0236*%
G04:AMPARAMS|DCode=25|XSize=39.4mil|YSize=35.4mil|CornerRadius=0mil|HoleSize=0mil|Usage=FLASHONLY|Rotation=135.000|XOffset=0mil|YOffset=0mil|HoleType=Round|Shape=Rectangle|*
%AMROTATEDRECTD25*
4,1,4,0.0264,-0.0014,0.0014,-0.0264,-0.0264,0.0014,-0.0014,0.0264,0.0264,-0.0014,0.0*
%
%ADD25ROTATEDRECTD25*%

%ADD26R,0.0630X0.0512*%
%ADD27R,0.0480X0.0358*%
%ADD28R,0.0512X0.0512*%
%ADD29O,0.0354X0.0098*%
%ADD30O,0.0098X0.0354*%
%ADD31R,0.0630X0.1378*%
%ADD32R,0.0453X0.0571*%
%ADD33C,0.0236*%
%ADD34C,0.0197*%
%ADD35C,0.0295*%
%ADD36C,0.0138*%
%ADD37C,0.0098*%
%ADD38C,0.0394*%
%ADD39C,0.0177*%
%ADD40C,0.0157*%
%ADD41C,0.0150*%
%ADD42C,0.0049*%
%ADD43C,0.0300*%
G36*
X-18907Y5099D02*
X-18915Y5096D01*
X-18923Y5091D01*
X-18929Y5084D01*
X-18935Y5075D01*
X-18939Y5064D01*
X-18942Y5052D01*
X-18945Y5037D01*
X-18946Y5020D01*
X-18947Y5001D01*
X-19045D01*
X-19046Y5020D01*
X-19047Y5037D01*
X-19050Y5052D01*
X-19053Y5064D01*
X-19058Y5075D01*
X-19063Y5084D01*
X-19069Y5091D01*
X-19077Y5096D01*
X-19085Y5099D01*
X-19094Y5100D01*
X-18898D01*
X-18907Y5099D01*
D02*
G37*
G36*
X-18304Y5100D02*
X-18313Y5104D01*
X-18323Y5106D01*
X-18334Y5106D01*
X-18346Y5103D01*
X-18359Y5097D01*
X-18374Y5089D01*
X-18389Y5078D01*
X-18406Y5065D01*
X-18424Y5049D01*
X-18444Y5030D01*
X-18533Y5080D01*
X-18512Y5101D01*
X-18481Y5138D01*
X-18469Y5155D01*
X-18461Y5170D01*
X-18455Y5183D01*
X-18453Y5194D01*
X-18453Y5204D01*
X-18457Y5212D01*
X-18463Y5219D01*
X-18304Y5100D01*
D02*
G37*
G36*
X-20277Y5103D02*
X-20272Y5090D01*
X-20264Y5078D01*
X-20253Y5068D01*
X-20238Y5059D01*
X-20221Y5052D01*
X-20200Y5046D01*
X-20177Y5043D01*
X-20150Y5040D01*
X-20119Y5039D01*
Y4882D01*
X-20150Y4881D01*
X-20177Y4879D01*
X-20200Y4875D01*
X-20221Y4869D01*
X-20238Y4862D01*
X-20253Y4854D01*
X-20264Y4843D01*
X-20272Y4832D01*
X-20277Y4818D01*
X-20278Y4803D01*
Y5118D01*
X-20277Y5103D01*
D02*
G37*
G36*
X-17655Y3898D02*
X-17656Y3907D01*
X-17659Y3915D01*
X-17664Y3923D01*
X-17671Y3929D01*
X-17680Y3935D01*
X-17691Y3939D01*
X-17704Y3942D01*
X-17719Y3945D01*
X-17736Y3946D01*
X-17755Y3947D01*
Y4045D01*
X-17736Y4045D01*
X-17665Y4049D01*
X-17660Y4051D01*
X-17657Y4052D01*
X-17656Y4054D01*
X-17655Y3898D01*
D02*
G37*
G36*
X-17537Y4412D02*
X-17543Y4418D01*
X-17552Y4422D01*
X-17562Y4422D01*
X-17573Y4419D01*
X-17586Y4414D01*
X-17601Y4405D01*
X-17617Y4394D01*
X-17635Y4379D01*
X-17676Y4341D01*
X-17726Y4430D01*
X-17707Y4450D01*
X-17677Y4485D01*
X-17666Y4501D01*
X-17658Y4515D01*
X-17652Y4529D01*
X-17649Y4541D01*
X-17648Y4552D01*
X-17650Y4561D01*
X-17655Y4570D01*
X-17537Y4412D01*
D02*
G37*
G36*
X-19717Y5100D02*
X-19730Y5108D01*
X-19745Y5112D01*
X-19762Y5111D01*
X-19782Y5106D01*
X-19803Y5097D01*
X-19826Y5084D01*
X-19852Y5066D01*
X-19879Y5045D01*
X-19908Y5019D01*
X-19940Y4988D01*
X-20071Y5080D01*
X-20039Y5113D01*
X-19988Y5172D01*
X-19970Y5198D01*
X-19957Y5222D01*
X-19948Y5243D01*
X-19944Y5261D01*
X-19944Y5278D01*
X-19950Y5291D01*
X-19959Y5303D01*
X-19717Y5100D01*
D02*
G37*
G36*
X-20409Y5512D02*
X-20422Y5507D01*
X-20434Y5499D01*
X-20444Y5488D01*
X-20453Y5474D01*
X-20460Y5456D01*
X-20465Y5436D01*
X-20469Y5412D01*
X-20472Y5386D01*
X-20472Y5356D01*
X-20630D01*
X-20631Y5386D01*
X-20633Y5412D01*
X-20637Y5436D01*
X-20643Y5456D01*
X-20650Y5474D01*
X-20658Y5488D01*
X-20669Y5499D01*
X-20680Y5507D01*
X-20694Y5512D01*
X-20709Y5513D01*
X-20394D01*
X-20409Y5512D01*
D02*
G37*
G36*
X-15839Y38583D02*
X-15832Y38548D01*
X-15813Y38518D01*
X-15783Y38498D01*
X-15748Y38491D01*
X-15052D01*
Y37008D01*
X-15045Y36973D01*
X-15025Y36943D01*
X-14996Y36923D01*
X-14961Y36917D01*
X-12690D01*
Y36312D01*
X-13386D01*
X-13421Y36305D01*
X-13450Y36285D01*
X-13470Y36255D01*
X-13477Y36220D01*
Y35524D01*
X-14173D01*
X-14208Y35517D01*
X-14238Y35498D01*
X-14258Y35468D01*
X-14265Y35433D01*
Y34646D01*
X-14258Y34611D01*
X-14238Y34581D01*
X-14208Y34561D01*
X-14173Y34554D01*
X-13477D01*
Y33858D01*
X-13470Y33823D01*
X-13450Y33794D01*
X-13421Y33774D01*
X-13386Y33767D01*
X-12690D01*
Y33162D01*
X-13386D01*
X-13421Y33155D01*
X-13450Y33135D01*
X-13470Y33106D01*
X-13477Y33071D01*
Y32283D01*
Y30709D01*
X-13470Y30674D01*
X-13450Y30644D01*
X-13421Y30624D01*
X-13386Y30617D01*
X-12690D01*
Y29921D01*
X-12683Y29886D01*
X-12663Y29857D01*
X-12633Y29837D01*
X-12598Y29830D01*
X-11902D01*
Y28346D01*
X-11895Y28311D01*
X-11876Y28282D01*
X-11846Y28262D01*
X-11811Y28255D01*
X-11115D01*
Y27559D01*
X-11108Y27524D01*
X-11088Y27494D01*
X-11059Y27475D01*
X-11024Y27468D01*
X-10328D01*
Y26772D01*
X-10321Y26737D01*
X-10301Y26707D01*
X-10271Y26687D01*
X-10236Y26680D01*
X-9540D01*
Y25984D01*
X-9533Y25949D01*
X-9513Y25920D01*
X-9484Y25900D01*
X-9449Y25893D01*
X-8753D01*
Y25197D01*
X-8746Y25162D01*
X-8726Y25132D01*
X-8696Y25112D01*
X-8661Y25105D01*
X-7965D01*
Y24409D01*
X-7958Y24374D01*
X-7939Y24345D01*
X-7909Y24325D01*
X-7874Y24318D01*
X-7178D01*
Y23713D01*
X-7874D01*
X-7909Y23706D01*
X-7939Y23687D01*
X-7958Y23657D01*
X-7965Y23622D01*
Y22926D01*
X-8661D01*
X-8696Y22919D01*
X-8726Y22899D01*
X-8746Y22870D01*
X-8753Y22835D01*
Y22047D01*
X-8746Y22012D01*
X-8726Y21983D01*
X-8696Y21963D01*
X-8661Y21956D01*
X-7965D01*
Y21260D01*
X-7958Y21225D01*
X-7939Y21195D01*
X-7909Y21175D01*
X-7874Y21168D01*
X-7178D01*
Y19685D01*
X-7171Y19650D01*
X-7151Y19620D01*
X-7122Y19601D01*
X-7087Y19594D01*
X-6391D01*
Y18898D01*
X-6384Y18863D01*
X-6364Y18833D01*
X-6334Y18813D01*
X-6299Y18806D01*
X-5603D01*
Y18110D01*
X-5596Y18075D01*
X-5576Y18046D01*
X-5547Y18026D01*
X-5512Y18019D01*
X-4816D01*
Y17323D01*
X-4809Y17288D01*
X-4789Y17258D01*
X-4759Y17238D01*
X-4724Y17231D01*
X-4028D01*
Y16535D01*
X-4021Y16500D01*
X-4002Y16471D01*
X-3972Y16451D01*
X-3937Y16444D01*
X-3241D01*
Y15052D01*
X-4724D01*
X-4759Y15045D01*
X-4789Y15025D01*
X-4809Y14996D01*
X-4816Y14961D01*
Y13386D01*
X-4809Y13351D01*
X-4789Y13321D01*
X-4759Y13301D01*
X-4724Y13294D01*
X-4028D01*
Y11811D01*
X-4021Y11776D01*
X-4002Y11746D01*
X-3972Y11727D01*
X-3937Y11720D01*
X-3241D01*
Y11024D01*
X-3234Y10989D01*
X-3214Y10959D01*
X-3185Y10939D01*
X-3150Y10932D01*
X-2454D01*
Y10236D01*
X-2447Y10201D01*
X-2427Y10172D01*
X-2397Y10152D01*
X-2362Y10145D01*
X-1666D01*
Y9449D01*
X-1659Y9414D01*
X-1639Y9384D01*
X-1610Y9364D01*
X-1575Y9357D01*
X-879D01*
Y8661D01*
X-872Y8626D01*
X-852Y8597D01*
X-822Y8577D01*
X-787Y8570D01*
X-91D01*
Y6391D01*
X-787D01*
X-822Y6384D01*
X-852Y6364D01*
X-872Y6334D01*
X-879Y6299D01*
Y5603D01*
X-3846D01*
Y6299D01*
X-3853Y6334D01*
X-3872Y6364D01*
X-3902Y6384D01*
X-3937Y6391D01*
X-5512D01*
X-5547Y6384D01*
X-5576Y6364D01*
X-5596Y6334D01*
X-5603Y6299D01*
Y5603D01*
X-6299D01*
X-6334Y5596D01*
X-6364Y5576D01*
X-6384Y5547D01*
X-6391Y5512D01*
Y4816D01*
X-7087D01*
X-7122Y4809D01*
X-7151Y4789D01*
X-7171Y4759D01*
X-7178Y4724D01*
Y3241D01*
X-7874D01*
X-7909Y3234D01*
X-7939Y3214D01*
X-7958Y3185D01*
X-7965Y3150D01*
Y2454D01*
X-9357D01*
Y3150D01*
X-9364Y3185D01*
X-9384Y3214D01*
X-9414Y3234D01*
X-9449Y3241D01*
X-10145D01*
Y3937D01*
X-10152Y3972D01*
X-10172Y4002D01*
X-10201Y4021D01*
X-10236Y4028D01*
X-11024D01*
X-11059Y4021D01*
X-11088Y4002D01*
X-11108Y3972D01*
X-11115Y3937D01*
Y2454D01*
X-11811D01*
X-11846Y2447D01*
X-11876Y2427D01*
X-11895Y2397D01*
X-11902Y2362D01*
Y879D01*
X-13386D01*
X-13421Y872D01*
X-13450Y852D01*
X-13470Y822D01*
X-13477Y787D01*
Y91D01*
X-14579D01*
Y118D01*
X-14584Y143D01*
X-14598Y167D01*
X-14584Y191D01*
X-14579Y217D01*
Y1075D01*
X-14571Y1095D01*
X-14541Y1147D01*
X-14502Y1204D01*
X-14391Y1336D01*
X-14357Y1371D01*
X-14065Y1664D01*
X-14023Y1718D01*
X-13997Y1782D01*
X-13988Y1850D01*
Y6024D01*
X-13997Y6092D01*
X-14023Y6156D01*
X-14065Y6210D01*
X-14301Y6447D01*
X-14356Y6489D01*
X-14420Y6515D01*
X-14488Y6524D01*
X-15906D01*
X-15974Y6515D01*
X-16038Y6489D01*
X-16092Y6447D01*
X-16328Y6210D01*
X-16370Y6156D01*
X-16397Y6092D01*
X-16406Y6024D01*
Y4158D01*
X-16409Y4152D01*
X-16456Y4121D01*
X-16457Y4121D01*
X-16535D01*
X-16561Y4116D01*
X-16582Y4102D01*
X-16626D01*
X-16648Y4116D01*
X-16673Y4121D01*
X-17028D01*
X-17053Y4116D01*
X-17074Y4102D01*
X-17101Y4077D01*
X-17126Y4082D01*
X-17205D01*
X-17230Y4077D01*
X-17256Y4102D01*
X-17269Y4110D01*
X-17277Y4151D01*
X-17276Y4166D01*
X-17262Y4187D01*
X-17257Y4213D01*
Y4291D01*
X-17262Y4317D01*
X-17274Y4341D01*
X-17256Y4363D01*
X-17242Y4384D01*
X-17237Y4409D01*
Y4803D01*
X-17242Y4829D01*
X-17256Y4850D01*
X-17278Y4864D01*
X-17303Y4869D01*
X-17657D01*
X-17683Y4864D01*
X-17704Y4850D01*
X-17719Y4829D01*
X-17724Y4803D01*
Y4534D01*
X-17730Y4525D01*
X-17752Y4499D01*
X-17942Y4309D01*
X-18636D01*
X-18668Y4324D01*
X-18683Y4356D01*
Y4696D01*
X-18373Y5006D01*
X-18364Y5014D01*
X-18350Y5025D01*
X-18339Y5032D01*
X-18071D01*
X-18046Y5037D01*
X-18024Y5052D01*
X-18010Y5073D01*
X-18005Y5098D01*
Y5453D01*
X-18010Y5478D01*
X-18024Y5500D01*
X-18046Y5514D01*
X-18071Y5519D01*
X-18465D01*
X-18490Y5514D01*
X-18511Y5500D01*
X-18520Y5487D01*
X-18560Y5479D01*
X-18575Y5480D01*
X-18597Y5494D01*
X-18622Y5499D01*
X-18701D01*
X-18726Y5494D01*
X-18750Y5482D01*
X-18772Y5500D01*
X-18794Y5514D01*
X-18819Y5519D01*
X-19213D01*
X-19238Y5514D01*
X-19259Y5500D01*
X-19274Y5478D01*
X-19279Y5453D01*
Y5434D01*
X-19280Y5433D01*
X-19288Y5430D01*
X-19302Y5426D01*
X-19320Y5423D01*
X-19333Y5422D01*
X-19447D01*
X-19460Y5423D01*
X-19478Y5426D01*
X-19491Y5430D01*
X-19500Y5433D01*
X-19501Y5434D01*
Y5453D01*
X-19506Y5478D01*
X-19520Y5500D01*
X-19542Y5514D01*
X-19567Y5519D01*
X-19961D01*
X-19986Y5514D01*
X-20007Y5500D01*
X-20037Y5484D01*
X-20066Y5494D01*
X-20091Y5499D01*
X-20236D01*
X-20262Y5494D01*
X-20279Y5501D01*
X-20308Y5524D01*
Y5906D01*
X-20313Y5931D01*
X-20327Y5952D01*
X-20349Y5967D01*
X-20374Y5972D01*
X-20728D01*
X-20754Y5967D01*
X-20775Y5952D01*
X-20790Y5931D01*
X-20795Y5906D01*
Y5512D01*
X-20790Y5486D01*
X-20775Y5465D01*
X-20754Y5451D01*
X-20728Y5446D01*
X-20710D01*
X-20709Y5444D01*
X-20705Y5435D01*
X-20702Y5422D01*
X-20699Y5404D01*
X-20698Y5391D01*
Y5247D01*
X-20699Y5220D01*
X-20701Y5204D01*
X-20704Y5193D01*
X-20716Y5185D01*
X-20731Y5163D01*
X-20736Y5138D01*
Y4783D01*
X-20731Y4758D01*
X-20716Y4737D01*
X-20695Y4722D01*
X-20669Y4717D01*
X-20276D01*
X-20250Y4722D01*
X-20229Y4737D01*
X-20214Y4758D01*
X-20209Y4783D01*
Y4802D01*
X-20209Y4803D01*
X-20200Y4806D01*
X-20186Y4810D01*
X-20168Y4813D01*
X-20155Y4814D01*
X-20079D01*
X-20023Y4825D01*
X-19975Y4857D01*
X-19853Y4979D01*
X-19836Y4994D01*
X-19812Y5013D01*
X-19791Y5028D01*
X-19783Y5032D01*
X-19567D01*
X-19542Y5037D01*
X-19520Y5052D01*
X-19506Y5073D01*
X-19501Y5098D01*
Y5117D01*
X-19500Y5118D01*
X-19491Y5121D01*
X-19478Y5125D01*
X-19460Y5128D01*
X-19447Y5129D01*
X-19333D01*
X-19320Y5128D01*
X-19302Y5125D01*
X-19288Y5121D01*
X-19280Y5118D01*
X-19279Y5117D01*
Y5098D01*
X-19274Y5073D01*
X-19259Y5052D01*
X-19238Y5037D01*
X-19213Y5032D01*
X-19114D01*
X-19113Y5028D01*
X-19113Y5022D01*
Y4716D01*
X-19163Y4687D01*
X-19193Y4693D01*
X-19237Y4684D01*
X-19275Y4659D01*
X-19301Y4621D01*
X-19309Y4577D01*
Y4301D01*
X-19308Y4296D01*
Y4220D01*
X-19370D01*
X-19395Y4215D01*
X-19417Y4200D01*
X-19431Y4179D01*
X-19436Y4154D01*
Y4148D01*
X-19441Y4141D01*
X-19486Y4111D01*
X-19488Y4112D01*
X-19493D01*
X-19498Y4113D01*
X-19774D01*
X-19778Y4112D01*
X-20089D01*
X-20114Y4107D01*
X-20135Y4092D01*
X-20322Y3905D01*
X-20336Y3884D01*
X-20342Y3885D01*
X-21708D01*
X-21715Y3895D01*
X-21736Y3910D01*
X-21762Y3915D01*
X-22333D01*
X-22358Y3910D01*
X-22380Y3895D01*
X-22386Y3885D01*
X-22835D01*
X-22860Y3880D01*
X-22882Y3866D01*
X-22896Y3844D01*
X-22901Y3819D01*
Y3241D01*
X-24318D01*
Y3937D01*
X-24325Y3972D01*
X-24345Y4002D01*
X-24374Y4021D01*
X-24409Y4028D01*
X-25105D01*
Y4724D01*
X-25112Y4759D01*
X-25132Y4789D01*
X-25162Y4809D01*
X-25197Y4816D01*
X-25893D01*
Y5512D01*
X-25900Y5547D01*
X-25920Y5576D01*
X-25949Y5596D01*
X-25984Y5603D01*
X-27559D01*
X-27594Y5596D01*
X-27624Y5576D01*
X-27643Y5547D01*
X-27650Y5512D01*
Y4816D01*
X-28346D01*
X-28381Y4809D01*
X-28411Y4789D01*
X-28431Y4759D01*
X-28438Y4724D01*
Y4028D01*
X-29830D01*
Y4724D01*
X-29837Y4759D01*
X-29857Y4789D01*
X-29886Y4809D01*
X-29921Y4816D01*
X-30617D01*
Y6299D01*
X-30624Y6334D01*
X-30644Y6364D01*
X-30674Y6384D01*
X-30709Y6391D01*
X-31405D01*
Y7087D01*
X-31412Y7122D01*
X-31431Y7151D01*
X-31461Y7171D01*
X-31496Y7178D01*
X-32980D01*
Y8570D01*
X-31496D01*
X-31461Y8577D01*
X-31431Y8597D01*
X-31412Y8626D01*
X-31405Y8661D01*
Y9357D01*
X-30709D01*
X-30674Y9364D01*
X-30644Y9384D01*
X-30624Y9414D01*
X-30617Y9449D01*
Y10145D01*
X-29921D01*
X-29886Y10152D01*
X-29857Y10172D01*
X-29837Y10201D01*
X-29830Y10236D01*
Y10932D01*
X-29134D01*
X-29099Y10939D01*
X-29069Y10959D01*
X-29049Y10989D01*
X-29042Y11024D01*
Y12507D01*
X-28346D01*
X-28311Y12514D01*
X-28282Y12534D01*
X-28262Y12563D01*
X-28255Y12598D01*
Y14173D01*
X-28262Y14208D01*
X-28282Y14238D01*
X-28311Y14258D01*
X-28346Y14265D01*
X-29042D01*
Y14961D01*
X-29049Y14996D01*
X-29069Y15025D01*
X-29099Y15045D01*
X-29134Y15052D01*
X-29830D01*
Y15657D01*
X-28346D01*
X-28311Y15664D01*
X-28282Y15683D01*
X-28262Y15713D01*
X-28255Y15748D01*
Y16444D01*
X-27559D01*
X-27524Y16451D01*
X-27494Y16471D01*
X-27475Y16500D01*
X-27468Y16535D01*
Y17231D01*
X-26772D01*
X-26737Y17238D01*
X-26707Y17258D01*
X-26687Y17288D01*
X-26680Y17323D01*
Y18019D01*
X-25984D01*
X-25949Y18026D01*
X-25920Y18046D01*
X-25900Y18075D01*
X-25893Y18110D01*
Y19594D01*
X-25197D01*
X-25162Y19601D01*
X-25132Y19620D01*
X-25112Y19650D01*
X-25105Y19685D01*
Y21168D01*
X-24409D01*
X-24374Y21175D01*
X-24345Y21195D01*
X-24325Y21225D01*
X-24318Y21260D01*
Y22047D01*
X-24325Y22082D01*
X-24345Y22112D01*
X-24374Y22132D01*
X-24409Y22139D01*
X-25105D01*
Y22835D01*
X-25112Y22870D01*
X-25132Y22899D01*
X-25162Y22919D01*
X-25197Y22926D01*
X-25893D01*
Y23531D01*
X-25197D01*
X-25162Y23538D01*
X-25132Y23557D01*
X-25112Y23587D01*
X-25105Y23622D01*
Y24318D01*
X-24409D01*
X-24374Y24325D01*
X-24345Y24345D01*
X-24325Y24374D01*
X-24318Y24409D01*
Y25105D01*
X-23622D01*
X-23587Y25112D01*
X-23557Y25132D01*
X-23538Y25162D01*
X-23531Y25197D01*
Y25893D01*
X-22835D01*
X-22800Y25900D01*
X-22770Y25920D01*
X-22750Y25949D01*
X-22743Y25984D01*
Y26680D01*
X-22047D01*
X-22012Y26687D01*
X-21983Y26707D01*
X-21963Y26737D01*
X-21956Y26772D01*
Y27468D01*
X-21260D01*
X-21225Y27475D01*
X-21195Y27494D01*
X-21175Y27524D01*
X-21168Y27559D01*
Y28255D01*
X-20472D01*
X-20437Y28262D01*
X-20408Y28282D01*
X-20388Y28311D01*
X-20381Y28346D01*
Y29830D01*
X-19685D01*
X-19650Y29837D01*
X-19620Y29857D01*
X-19601Y29886D01*
X-19594Y29921D01*
Y30617D01*
X-18898D01*
X-18863Y30624D01*
X-18833Y30644D01*
X-18813Y30674D01*
X-18806Y30709D01*
Y33071D01*
X-18813Y33106D01*
X-18833Y33135D01*
X-18863Y33155D01*
X-18898Y33162D01*
X-19594D01*
Y33767D01*
X-18898D01*
X-18863Y33774D01*
X-18833Y33794D01*
X-18813Y33823D01*
X-18806Y33858D01*
Y34554D01*
X-18110D01*
X-18075Y34561D01*
X-18046Y34581D01*
X-18026Y34611D01*
X-18019Y34646D01*
Y35433D01*
X-18026Y35468D01*
X-18046Y35498D01*
X-18075Y35517D01*
X-18110Y35524D01*
X-18806D01*
Y36220D01*
X-18813Y36255D01*
X-18833Y36285D01*
X-18863Y36305D01*
X-18898Y36312D01*
X-19594D01*
Y36917D01*
X-17323D01*
X-17288Y36923D01*
X-17258Y36943D01*
X-17238Y36973D01*
X-17231Y37008D01*
Y37704D01*
X-16535D01*
X-16500Y37711D01*
X-16471Y37731D01*
X-16451Y37760D01*
X-16444Y37795D01*
Y39279D01*
X-15839D01*
Y38583D01*
D02*
G37*
G36*
X-20472Y5264D02*
X-20469Y5237D01*
X-20465Y5213D01*
X-20460Y5193D01*
X-20453Y5175D01*
X-20444Y5161D01*
X-20434Y5150D01*
X-20422Y5142D01*
X-20409Y5137D01*
X-20394Y5135D01*
X-20668Y5137D01*
X-20661Y5138D01*
X-20654Y5143D01*
X-20649Y5151D01*
X-20644Y5162D01*
X-20639Y5176D01*
X-20636Y5193D01*
X-20633Y5214D01*
X-20630Y5264D01*
X-20630Y5294D01*
X-20472D01*
X-20472Y5264D01*
D02*
G37*
G36*
X-19568Y5418D02*
X-19563Y5405D01*
X-19555Y5393D01*
X-19544Y5383D01*
X-19530Y5374D01*
X-19512Y5367D01*
X-19492Y5361D01*
X-19468Y5357D01*
X-19441Y5355D01*
X-19411Y5354D01*
Y5197D01*
X-19441Y5196D01*
X-19468Y5194D01*
X-19492Y5190D01*
X-19512Y5184D01*
X-19530Y5177D01*
X-19544Y5169D01*
X-19555Y5158D01*
X-19563Y5146D01*
X-19568Y5133D01*
X-19569Y5118D01*
Y5433D01*
X-19568Y5418D01*
D02*
G37*
G36*
X-19210Y5118D02*
X-19212Y5133D01*
X-19216Y5146D01*
X-19224Y5158D01*
X-19235Y5169D01*
X-19250Y5177D01*
X-19267Y5184D01*
X-19288Y5190D01*
X-19312Y5194D01*
X-19339Y5196D01*
X-19369Y5197D01*
Y5354D01*
X-19339Y5355D01*
X-19312Y5357D01*
X-19288Y5361D01*
X-19267Y5367D01*
X-19250Y5374D01*
X-19235Y5383D01*
X-19224Y5393D01*
X-19216Y5405D01*
X-19212Y5418D01*
X-19210Y5433D01*
Y5118D01*
D02*
G37*
G36*
X-18947Y3504D02*
Y3041D01*
X-18858Y2953D01*
Y1969D01*
X-19331D01*
Y2953D01*
X-19242Y3041D01*
Y3504D01*
X-18947Y3504D01*
D02*
G37*
G36*
X-14646Y1835D02*
X-14720Y1766D01*
X-14789Y1709D01*
X-14851Y1665D01*
X-14859Y1661D01*
X-15276D01*
X-15301Y1656D01*
X-15322Y1641D01*
X-15337Y1620D01*
X-15342Y1594D01*
Y829D01*
X-15368Y787D01*
X-21168Y787D01*
X-21175Y822D01*
X-21195Y852D01*
X-21225Y872D01*
X-21260Y879D01*
X-21956D01*
Y2362D01*
X-21963Y2397D01*
X-21983Y2427D01*
X-22012Y2447D01*
X-22047Y2454D01*
X-22743D01*
Y3150D01*
X-22750Y3185D01*
X-22770Y3214D01*
X-22800Y3234D01*
X-22835Y3241D01*
Y3819D01*
X-20342D01*
Y1969D01*
X-20337Y1943D01*
X-20322Y1922D01*
X-20301Y1907D01*
X-20276Y1902D01*
X-20217D01*
X-20197Y1898D01*
X-19713D01*
X-19687Y1903D01*
X-19666Y1918D01*
X-19651Y1939D01*
X-19646Y1965D01*
Y2839D01*
X-19651Y2864D01*
X-19658Y2874D01*
Y3071D01*
X-19663Y3096D01*
X-19678Y3118D01*
X-19894Y3335D01*
Y3595D01*
X-19805Y3684D01*
X-19778D01*
X-19774Y3683D01*
X-19498D01*
X-19493Y3684D01*
X-19488D01*
X-19463Y3689D01*
X-19461Y3690D01*
X-19453Y3692D01*
X-19416Y3717D01*
X-19390Y3755D01*
X-19387Y3774D01*
X-19370Y3819D01*
X-19370Y3819D01*
X-19370Y3819D01*
Y4154D01*
X-19242D01*
Y4567D01*
X-19144D01*
Y4154D01*
X-18839D01*
Y3612D01*
X-19193D01*
Y3611D01*
X-19237Y3602D01*
X-19275Y3576D01*
X-19301Y3539D01*
X-19302Y3531D01*
X-19303Y3529D01*
X-19308Y3504D01*
Y3499D01*
X-19309Y3494D01*
Y3219D01*
X-19308Y3214D01*
Y3069D01*
X-19378Y3000D01*
X-19392Y2978D01*
X-19397Y2953D01*
Y2874D01*
X-19404Y2864D01*
X-19409Y2839D01*
Y1965D01*
X-19404Y1939D01*
X-19389Y1918D01*
X-19368Y1903D01*
X-19343Y1898D01*
X-18858D01*
X-18833Y1903D01*
X-18811Y1918D01*
X-18797Y1939D01*
X-18792Y1965D01*
Y2835D01*
X-16309Y2835D01*
X-15748Y3396D01*
X-15748Y5906D01*
X-14646Y5906D01*
X-14646Y1835D01*
D02*
G37*
G36*
X-19488Y3750D02*
X-19833D01*
X-19961Y3622D01*
Y3307D01*
X-19724Y3071D01*
Y1969D01*
X-20276D01*
Y3858D01*
X-20089Y4045D01*
X-19488D01*
Y3750D01*
D02*
G37*
G36*
X-15274Y218D02*
X-15278Y225D01*
X-15290Y232D01*
X-15310Y237D01*
X-15337Y242D01*
X-15373Y246D01*
X-15467Y252D01*
X-15668Y256D01*
Y650D01*
X-15593Y652D01*
X-15526Y657D01*
X-15467Y667D01*
X-15415Y681D01*
X-15372Y699D01*
X-15336Y720D01*
X-15309Y746D01*
X-15289Y776D01*
X-15277Y809D01*
X-15273Y846D01*
X-15274Y218D01*
D02*
G37*
G36*
X-14369Y1455D02*
X-14440Y1381D01*
X-14555Y1244D01*
X-14598Y1182D01*
X-14630Y1124D01*
X-14653Y1071D01*
X-14667Y1021D01*
X-14670Y976D01*
X-14664Y935D01*
X-14648Y899D01*
X-15066Y1592D01*
X-15042Y1564D01*
X-15010Y1548D01*
X-14972Y1545D01*
X-14927Y1554D01*
X-14875Y1575D01*
X-14815Y1610D01*
X-14749Y1656D01*
X-14676Y1716D01*
X-14509Y1872D01*
X-14369Y1455D01*
D02*
G37*
G36*
X-16752Y3663D02*
X-16675D01*
X-16689Y3661D01*
X-16702Y3655D01*
X-16714Y3645D01*
X-16724Y3631D01*
X-16733Y3614D01*
X-16740Y3592D01*
X-16745Y3566D01*
X-16746Y3558D01*
X-16739Y3457D01*
X-16736Y3445D01*
X-16727Y3423D01*
X-16717Y3405D01*
X-16704Y3391D01*
X-16689Y3381D01*
X-16672Y3375D01*
X-16654Y3373D01*
X-16734D01*
X-16732Y3344D01*
X-16726Y3319D01*
X-16719Y3300D01*
X-16711Y3289D01*
X-16990D01*
X-16982Y3300D01*
X-16975Y3319D01*
X-16969Y3344D01*
X-16964Y3373D01*
X-17047D01*
X-17029Y3375D01*
X-17012Y3381D01*
X-16997Y3391D01*
X-16984Y3405D01*
X-16973Y3423D01*
X-16965Y3445D01*
X-16958Y3471D01*
X-16954Y3491D01*
X-16953Y3536D01*
X-16956Y3566D01*
X-16961Y3592D01*
X-16968Y3614D01*
X-16977Y3631D01*
X-16987Y3645D01*
X-16998Y3655D01*
X-17012Y3661D01*
X-17026Y3663D01*
X-16949D01*
X-16949Y3714D01*
X-16752D01*
X-16752Y3663D01*
D02*
G37*
G36*
X-17607Y3276D02*
Y3386D01*
X-17213Y3375D01*
Y2925D01*
X-17217Y2937D01*
X-17229Y2949D01*
X-17249Y2959D01*
X-17276Y2968D01*
X-17312Y2975D01*
X-17355Y2981D01*
X-17465Y2989D01*
X-17607Y2992D01*
Y2992D01*
X-18652D01*
X-18848Y3189D01*
X-18848Y3504D01*
X-18701Y3504D01*
Y3848D01*
X-18179D01*
X-17607Y3276D01*
D02*
G37*
%LPC*%
G36*
X-17992Y27684D02*
X-18386D01*
X-18411Y27679D01*
X-18433Y27665D01*
X-18447Y27643D01*
X-18451Y27624D01*
X-18458Y27620D01*
X-18472Y27616D01*
X-18491Y27612D01*
X-18535Y27608D01*
X-18603D01*
X-18656Y27643D01*
X-18740Y27660D01*
X-18824Y27643D01*
X-18895Y27596D01*
X-18943Y27525D01*
X-18959Y27441D01*
X-18943Y27357D01*
X-18895Y27286D01*
X-18824Y27238D01*
X-18740Y27222D01*
X-18656Y27238D01*
X-18604Y27273D01*
X-18585Y27274D01*
X-18530D01*
X-18517Y27273D01*
X-18492Y27270D01*
X-18472Y27266D01*
X-18458Y27261D01*
X-18451Y27258D01*
X-18447Y27238D01*
X-18433Y27217D01*
X-18411Y27203D01*
X-18386Y27198D01*
X-17992D01*
X-17967Y27203D01*
X-17945Y27217D01*
X-17931Y27238D01*
X-17926Y27264D01*
Y27618D01*
X-17931Y27643D01*
X-17945Y27665D01*
X-17967Y27679D01*
X-17992Y27684D01*
D02*
G37*
G36*
X-15591Y36322D02*
X-15674Y36305D01*
X-15746Y36257D01*
X-15793Y36186D01*
X-15810Y36102D01*
X-15793Y36018D01*
X-15746Y35947D01*
X-15674Y35900D01*
X-15647Y35894D01*
X-15384Y35631D01*
Y35278D01*
X-15385Y35256D01*
X-15390Y35226D01*
X-15397Y35203D01*
X-15404Y35185D01*
X-15411Y35174D01*
X-15416Y35168D01*
X-15421Y35165D01*
X-15422Y35165D01*
X-15472D01*
X-15498Y35160D01*
X-15519Y35145D01*
X-15534Y35124D01*
X-15539Y35098D01*
Y34744D01*
X-15534Y34719D01*
X-15519Y34697D01*
X-15498Y34683D01*
X-15472Y34678D01*
X-15079D01*
X-15053Y34683D01*
X-15032Y34697D01*
X-15018Y34719D01*
X-15012Y34744D01*
Y34910D01*
X-15010Y34921D01*
Y35709D01*
X-15024Y35780D01*
X-15065Y35841D01*
X-15382Y36158D01*
X-15388Y36186D01*
X-15436Y36257D01*
X-15507Y36305D01*
X-15591Y36322D01*
D02*
G37*
G36*
X-17244Y34535D02*
X-17638D01*
X-17663Y34530D01*
X-17685Y34515D01*
X-17699Y34494D01*
X-17704Y34469D01*
Y34283D01*
X-17707Y34278D01*
X-17726Y34251D01*
X-17777Y34191D01*
X-17913Y34055D01*
X-17949Y34001D01*
X-17962Y33937D01*
Y33878D01*
X-17962Y33869D01*
X-17965Y33844D01*
X-17968Y33823D01*
X-17972Y33807D01*
X-17973Y33802D01*
X-17978Y33801D01*
X-18000Y33787D01*
X-18014Y33766D01*
X-18019Y33740D01*
Y33346D01*
X-18014Y33321D01*
X-18000Y33300D01*
X-17978Y33285D01*
X-17953Y33280D01*
X-17638D01*
X-17612Y33285D01*
X-17591Y33300D01*
X-17577Y33321D01*
X-17572Y33346D01*
Y33740D01*
X-17577Y33766D01*
X-17591Y33787D01*
X-17612Y33801D01*
X-17617Y33802D01*
X-17619Y33807D01*
X-17623Y33823D01*
X-17626Y33843D01*
X-17628Y33869D01*
X-17520Y33977D01*
X-17498Y33996D01*
X-17467Y34021D01*
X-17439Y34040D01*
X-17426Y34048D01*
X-17244D01*
X-17219Y34053D01*
X-17197Y34067D01*
X-17183Y34089D01*
X-17178Y34114D01*
Y34469D01*
X-17183Y34494D01*
X-17197Y34515D01*
X-17219Y34530D01*
X-17244Y34535D01*
D02*
G37*
G36*
X-23307Y21877D02*
X-23937D01*
X-23962Y21872D01*
X-23984Y21858D01*
X-23998Y21836D01*
X-24003Y21811D01*
Y21299D01*
X-23998Y21274D01*
X-23984Y21252D01*
X-23962Y21238D01*
X-23937Y21233D01*
X-23307D01*
X-23282Y21238D01*
X-23260Y21252D01*
X-23246Y21274D01*
X-23241Y21299D01*
Y21811D01*
X-23246Y21836D01*
X-23260Y21858D01*
X-23282Y21872D01*
X-23307Y21877D01*
D02*
G37*
G36*
X-6772Y8078D02*
X-7165D01*
X-7191Y8073D01*
X-7212Y8059D01*
X-7227Y8037D01*
X-7232Y8012D01*
Y7657D01*
X-7227Y7632D01*
X-7212Y7611D01*
X-7202Y7604D01*
X-7201Y7597D01*
X-7198Y7581D01*
X-7194Y7521D01*
Y7500D01*
X-7194Y7491D01*
X-7197Y7466D01*
X-7200Y7445D01*
X-7204Y7429D01*
X-7206Y7424D01*
X-7210Y7423D01*
X-7232Y7409D01*
X-7246Y7388D01*
X-7251Y7362D01*
Y6969D01*
X-7246Y6943D01*
X-7232Y6922D01*
X-7210Y6907D01*
X-7185Y6902D01*
X-6870D01*
X-6845Y6907D01*
X-6823Y6922D01*
X-6809Y6943D01*
X-6804Y6969D01*
Y7362D01*
X-6809Y7388D01*
X-6823Y7409D01*
X-6845Y7423D01*
X-6849Y7424D01*
X-6851Y7429D01*
X-6855Y7445D01*
X-6858Y7465D01*
X-6861Y7504D01*
Y7507D01*
X-6859Y7524D01*
X-6855Y7548D01*
X-6850Y7567D01*
X-6845Y7580D01*
X-6841Y7587D01*
X-6838Y7590D01*
X-6836Y7591D01*
X-6836Y7591D01*
X-6772D01*
X-6746Y7596D01*
X-6725Y7611D01*
X-6710Y7632D01*
X-6705Y7657D01*
Y8012D01*
X-6710Y8037D01*
X-6725Y8059D01*
X-6746Y8073D01*
X-6772Y8078D01*
D02*
G37*
G36*
X-7244Y6484D02*
X-7559D01*
X-7584Y6479D01*
X-7606Y6464D01*
X-7620Y6443D01*
X-7625Y6417D01*
Y6024D01*
X-7620Y5998D01*
X-7606Y5977D01*
X-7598Y5971D01*
X-7589Y5925D01*
X-7591Y5913D01*
X-7665Y5838D01*
X-7703Y5803D01*
X-7735Y5777D01*
X-7763Y5757D01*
X-7767Y5755D01*
X-7992D01*
X-8017Y5750D01*
X-8039Y5736D01*
X-8053Y5714D01*
X-8058Y5689D01*
Y5335D01*
X-8053Y5309D01*
X-8039Y5288D01*
X-8017Y5273D01*
X-7992Y5268D01*
X-7598D01*
X-7573Y5273D01*
X-7552Y5288D01*
X-7537Y5309D01*
X-7532Y5335D01*
Y5478D01*
X-7525Y5490D01*
X-7506Y5517D01*
X-7457Y5575D01*
X-7284Y5748D01*
X-7248Y5802D01*
X-7235Y5866D01*
Y5915D01*
X-7235Y5917D01*
X-7232Y5937D01*
X-7229Y5952D01*
X-7227Y5961D01*
X-7219Y5962D01*
X-7197Y5977D01*
X-7183Y5998D01*
X-7178Y6024D01*
Y6417D01*
X-7183Y6443D01*
X-7197Y6464D01*
X-7219Y6479D01*
X-7244Y6484D01*
D02*
G37*
G36*
X-17835Y6466D02*
X-19370D01*
X-19434Y6453D01*
X-19488Y6417D01*
X-19672Y6233D01*
X-19708Y6200D01*
X-19739Y6175D01*
X-19766Y6156D01*
X-19778Y6149D01*
X-19961D01*
X-19986Y6144D01*
X-20007Y6130D01*
X-20022Y6108D01*
X-20027Y6083D01*
Y5728D01*
X-20022Y5703D01*
X-20007Y5681D01*
X-19986Y5667D01*
X-19961Y5662D01*
X-19567D01*
X-19542Y5667D01*
X-19520Y5681D01*
X-19505Y5682D01*
X-19465Y5674D01*
X-19456Y5662D01*
X-19435Y5647D01*
X-19409Y5642D01*
X-19331D01*
X-19305Y5647D01*
X-19284Y5662D01*
X-19262Y5679D01*
X-19238Y5667D01*
X-19213Y5662D01*
X-18819D01*
X-18794Y5667D01*
X-18772Y5681D01*
X-18758Y5703D01*
X-18753Y5728D01*
Y5747D01*
X-18752Y5748D01*
X-18743Y5751D01*
X-18730Y5755D01*
X-18712Y5758D01*
X-18699Y5759D01*
X-18585D01*
X-18572Y5758D01*
X-18554Y5755D01*
X-18540Y5751D01*
X-18532Y5748D01*
X-18531Y5747D01*
Y5728D01*
X-18526Y5703D01*
X-18511Y5681D01*
X-18490Y5667D01*
X-18465Y5662D01*
X-18071D01*
X-18046Y5667D01*
X-18021Y5679D01*
X-18000Y5662D01*
X-17978Y5647D01*
X-17953Y5642D01*
X-17611D01*
X-17586Y5647D01*
X-17564Y5662D01*
X-17550Y5683D01*
X-17546Y5704D01*
X-17524Y5717D01*
X-17499Y5728D01*
X-17066Y5294D01*
X-17053Y5231D01*
X-17018Y5179D01*
X-17017Y5160D01*
Y4947D01*
X-17018Y4934D01*
X-17021Y4909D01*
X-17025Y4890D01*
X-17030Y4876D01*
X-17033Y4868D01*
X-17053Y4864D01*
X-17074Y4850D01*
X-17089Y4829D01*
X-17094Y4803D01*
Y4409D01*
X-17089Y4384D01*
X-17074Y4363D01*
X-17053Y4348D01*
X-17028Y4343D01*
X-16673D01*
X-16648Y4348D01*
X-16626Y4363D01*
X-16612Y4384D01*
X-16607Y4409D01*
Y4803D01*
X-16612Y4829D01*
X-16626Y4850D01*
X-16648Y4864D01*
X-16667Y4868D01*
X-16671Y4876D01*
X-16675Y4890D01*
X-16679Y4908D01*
X-16684Y4953D01*
Y5177D01*
X-16648Y5231D01*
X-16631Y5315D01*
X-16648Y5399D01*
X-16695Y5470D01*
X-16767Y5517D01*
X-16828Y5530D01*
X-16842Y5542D01*
X-17717Y6417D01*
X-17771Y6453D01*
X-17835Y6466D01*
D02*
G37*
G36*
X-8307Y6188D02*
X-8701D01*
X-8726Y6183D01*
X-8748Y6169D01*
X-8762Y6147D01*
X-8767Y6122D01*
Y5768D01*
X-8762Y5742D01*
X-8748Y5721D01*
X-8726Y5706D01*
X-8701Y5701D01*
X-8695D01*
X-8694Y5701D01*
X-8691Y5698D01*
X-8686Y5690D01*
X-8681Y5677D01*
X-8676Y5659D01*
X-8672Y5635D01*
X-8671Y5618D01*
Y5531D01*
X-8706Y5478D01*
X-8723Y5394D01*
X-8706Y5310D01*
X-8659Y5239D01*
X-8588Y5191D01*
X-8504Y5174D01*
X-8420Y5191D01*
X-8349Y5239D01*
X-8301Y5310D01*
X-8285Y5394D01*
X-8301Y5478D01*
X-8336Y5530D01*
X-8337Y5549D01*
Y5618D01*
X-8336Y5635D01*
X-8332Y5659D01*
X-8327Y5677D01*
X-8322Y5690D01*
X-8317Y5698D01*
X-8314Y5701D01*
X-8313Y5701D01*
X-8307D01*
X-8282Y5706D01*
X-8260Y5721D01*
X-8246Y5742D01*
X-8241Y5768D01*
Y6122D01*
X-8246Y6147D01*
X-8260Y6169D01*
X-8282Y6183D01*
X-8307Y6188D01*
D02*
G37*
G36*
X-6161Y17310D02*
X-6516D01*
X-6541Y17305D01*
X-6563Y17291D01*
X-6577Y17269D01*
X-6582Y17244D01*
Y16850D01*
X-6577Y16825D01*
X-6563Y16804D01*
X-6541Y16789D01*
X-6516Y16784D01*
X-6311D01*
X-6308Y16781D01*
Y16555D01*
X-6344Y16501D01*
X-6361Y16417D01*
X-6344Y16333D01*
X-6297Y16262D01*
X-6226Y16215D01*
X-6142Y16198D01*
X-6058Y16215D01*
X-5987Y16262D01*
X-5939Y16333D01*
X-5923Y16417D01*
X-5939Y16501D01*
X-5974Y16553D01*
X-5975Y16572D01*
Y16850D01*
X-5988Y16914D01*
X-6024Y16968D01*
X-6095Y17039D01*
Y17244D01*
X-6100Y17269D01*
X-6115Y17291D01*
X-6136Y17305D01*
X-6161Y17310D01*
D02*
G37*
G36*
X-9075Y6208D02*
X-9429D01*
X-9455Y6203D01*
X-9476Y6189D01*
X-9490Y6167D01*
X-9495Y6142D01*
Y5748D01*
X-9490Y5723D01*
X-9476Y5701D01*
X-9455Y5687D01*
X-9429Y5682D01*
X-9365D01*
X-9365Y5682D01*
X-9363Y5681D01*
X-9360Y5678D01*
X-9356Y5670D01*
X-9350Y5657D01*
X-9345Y5639D01*
X-9341Y5615D01*
X-9340Y5598D01*
Y5345D01*
X-9627Y5058D01*
X-9690Y5045D01*
X-9761Y4998D01*
X-9809Y4926D01*
X-9826Y4843D01*
X-9809Y4759D01*
X-9761Y4688D01*
X-9690Y4640D01*
X-9606Y4623D01*
X-9522Y4640D01*
X-9451Y4688D01*
X-9404Y4759D01*
X-9392Y4820D01*
X-9379Y4834D01*
X-9055Y5158D01*
X-9019Y5212D01*
X-9007Y5276D01*
Y5866D01*
X-9009Y5876D01*
Y6142D01*
X-9014Y6167D01*
X-9028Y6189D01*
X-9049Y6203D01*
X-9075Y6208D01*
D02*
G37*
G36*
X-15532Y19948D02*
X-15846D01*
X-15872Y19943D01*
X-15893Y19929D01*
X-15908Y19907D01*
X-15913Y19882D01*
Y19488D01*
X-15908Y19463D01*
X-15893Y19441D01*
X-15872Y19427D01*
X-15846Y19422D01*
X-15679D01*
X-15651Y19403D01*
X-15590Y19350D01*
X-15166Y18927D01*
X-15129Y18887D01*
X-15102Y18853D01*
X-15086Y18831D01*
Y18543D01*
X-15081Y18518D01*
X-15067Y18496D01*
X-15045Y18482D01*
X-15020Y18477D01*
X-14665D01*
X-14640Y18482D01*
X-14618Y18496D01*
X-14604Y18518D01*
X-14599Y18543D01*
Y18750D01*
X-14597Y18760D01*
X-14599Y18770D01*
Y18937D01*
X-14604Y18962D01*
X-14618Y18984D01*
X-14640Y18998D01*
X-14665Y19003D01*
X-14688D01*
X-14707Y19006D01*
X-14728Y19012D01*
X-14749Y19019D01*
X-14772Y19030D01*
X-14795Y19042D01*
X-14818Y19058D01*
X-14843Y19076D01*
X-14857Y19089D01*
X-15393Y19625D01*
X-15412Y19647D01*
X-15437Y19677D01*
X-15456Y19705D01*
X-15465Y19721D01*
Y19882D01*
X-15470Y19907D01*
X-15485Y19929D01*
X-15506Y19943D01*
X-15532Y19948D01*
D02*
G37*
G36*
X-22165Y11661D02*
X-22559D01*
X-22584Y11656D01*
X-22606Y11641D01*
X-22620Y11620D01*
X-22625Y11594D01*
Y11240D01*
X-22620Y11215D01*
X-22606Y11193D01*
X-22584Y11179D01*
X-22559Y11174D01*
X-22251D01*
X-22231Y11160D01*
X-22167Y11105D01*
X-21938Y10876D01*
Y10811D01*
X-21941Y10762D01*
X-21942Y10748D01*
X-21943Y10747D01*
X-21951Y10734D01*
X-21956Y10709D01*
Y10394D01*
X-21951Y10368D01*
X-21937Y10347D01*
X-21915Y10332D01*
X-21890Y10327D01*
X-21496D01*
X-21471Y10332D01*
X-21449Y10347D01*
X-21435Y10368D01*
X-21430Y10394D01*
Y10709D01*
X-21435Y10734D01*
X-21449Y10756D01*
X-21471Y10770D01*
X-21496Y10775D01*
X-21582D01*
X-21585Y10778D01*
X-21589Y10786D01*
X-21595Y10799D01*
X-21600Y10817D01*
X-21604Y10841D01*
X-21605Y10859D01*
Y10945D01*
X-21618Y11009D01*
X-21654Y11063D01*
X-22010Y11418D01*
X-22027Y11437D01*
X-22045Y11461D01*
X-22061Y11483D01*
X-22074Y11505D01*
X-22084Y11525D01*
X-22091Y11544D01*
X-22096Y11562D01*
X-22099Y11576D01*
Y11594D01*
X-22104Y11620D01*
X-22118Y11641D01*
X-22140Y11656D01*
X-22165Y11661D01*
D02*
G37*
G36*
X-21004Y5972D02*
X-21358D01*
X-21384Y5967D01*
X-21405Y5952D01*
X-21419Y5931D01*
X-21425Y5906D01*
Y5512D01*
X-21419Y5486D01*
X-21405Y5465D01*
X-21384Y5451D01*
X-21358Y5446D01*
X-21340D01*
X-21339Y5444D01*
X-21335Y5435D01*
X-21332Y5422D01*
X-21329Y5404D01*
X-21328Y5391D01*
Y5258D01*
X-21329Y5245D01*
X-21332Y5227D01*
X-21335Y5214D01*
X-21339Y5205D01*
X-21339Y5204D01*
X-21417D01*
X-21443Y5199D01*
X-21464Y5185D01*
X-21479Y5163D01*
X-21484Y5138D01*
Y4783D01*
X-21479Y4758D01*
X-21464Y4737D01*
X-21443Y4722D01*
X-21417Y4717D01*
X-21024D01*
X-20998Y4722D01*
X-20977Y4737D01*
X-20962Y4758D01*
X-20957Y4783D01*
Y5138D01*
X-20962Y5163D01*
X-20977Y5185D01*
X-20998Y5199D01*
X-21023Y5204D01*
X-21023Y5205D01*
X-21027Y5214D01*
X-21031Y5228D01*
X-21033Y5246D01*
X-21035Y5258D01*
Y5391D01*
X-21033Y5404D01*
X-21030Y5422D01*
X-21027Y5435D01*
X-21023Y5444D01*
X-21022Y5446D01*
X-21004D01*
X-20979Y5451D01*
X-20957Y5465D01*
X-20943Y5486D01*
X-20938Y5512D01*
Y5906D01*
X-20943Y5931D01*
X-20957Y5952D01*
X-20979Y5967D01*
X-21004Y5972D01*
D02*
G37*
G36*
X-23307Y23649D02*
X-23937D01*
X-23962Y23644D01*
X-23984Y23630D01*
X-23998Y23608D01*
X-24003Y23583D01*
Y23071D01*
X-23998Y23045D01*
X-23984Y23024D01*
X-23962Y23010D01*
X-23937Y23005D01*
X-23307D01*
X-23282Y23010D01*
X-23260Y23024D01*
X-23246Y23045D01*
X-23241Y23071D01*
Y23583D01*
X-23246Y23608D01*
X-23260Y23630D01*
X-23282Y23644D01*
X-23307Y23649D01*
D02*
G37*
G36*
X-15787Y31425D02*
X-16181D01*
X-16206Y31419D01*
X-16228Y31405D01*
X-16236Y31393D01*
X-16277Y31385D01*
X-16292Y31385D01*
X-16313Y31400D01*
X-16339Y31405D01*
X-16417D01*
X-16443Y31400D01*
X-16467Y31387D01*
X-16489Y31405D01*
X-16510Y31419D01*
X-16535Y31425D01*
X-16929D01*
X-16954Y31419D01*
X-16976Y31405D01*
X-16984Y31393D01*
X-17025Y31385D01*
X-17040Y31385D01*
X-17061Y31400D01*
X-17087Y31405D01*
X-17165D01*
X-17191Y31400D01*
X-17215Y31387D01*
X-17237Y31405D01*
X-17258Y31419D01*
X-17283Y31425D01*
X-17677D01*
X-17703Y31419D01*
X-17724Y31405D01*
X-17738Y31384D01*
X-17743Y31358D01*
Y31004D01*
X-17738Y30979D01*
X-17724Y30957D01*
X-17703Y30943D01*
X-17677Y30938D01*
X-17409D01*
X-17399Y30931D01*
X-17373Y30909D01*
X-16573Y30109D01*
Y21614D01*
X-16573Y21614D01*
X-16564Y21570D01*
X-16539Y21532D01*
X-14060Y19053D01*
X-14081Y19003D01*
X-14390D01*
X-14415Y18998D01*
X-14437Y18984D01*
X-14451Y18962D01*
X-14456Y18937D01*
Y18543D01*
X-14451Y18518D01*
X-14437Y18496D01*
X-14419Y18475D01*
X-14431Y18451D01*
X-14436Y18425D01*
Y18346D01*
X-14436Y18345D01*
X-14466Y18299D01*
X-14473Y18295D01*
X-14665D01*
X-14691Y18290D01*
X-14712Y18275D01*
X-14727Y18254D01*
X-14732Y18228D01*
Y17835D01*
X-14727Y17809D01*
X-14712Y17788D01*
X-14691Y17773D01*
X-14671Y17770D01*
X-14668Y17762D01*
X-14663Y17748D01*
X-14659Y17729D01*
X-14655Y17685D01*
Y17589D01*
X-14824Y17420D01*
X-14887Y17407D01*
X-14958Y17360D01*
X-15006Y17289D01*
X-15022Y17205D01*
X-15006Y17121D01*
X-14958Y17050D01*
X-14909Y17017D01*
Y16959D01*
X-14958Y16927D01*
X-15006Y16856D01*
X-15022Y16772D01*
X-15006Y16688D01*
X-14958Y16617D01*
X-14887Y16569D01*
X-14826Y16557D01*
X-14811Y16544D01*
X-14685Y16418D01*
X-14631Y16381D01*
X-14567Y16369D01*
X-14124D01*
X-13905Y16149D01*
X-13866Y16108D01*
X-13837Y16073D01*
X-13826Y16057D01*
Y15709D01*
X-13821Y15683D01*
X-13809Y15659D01*
X-13826Y15637D01*
X-13841Y15616D01*
X-13846Y15591D01*
Y14921D01*
X-13841Y14896D01*
X-13826Y14874D01*
X-13822Y14871D01*
X-13837Y14821D01*
X-14124D01*
X-14169Y14812D01*
X-14206Y14787D01*
X-14266Y14786D01*
X-14291Y14791D01*
X-14334D01*
X-14352Y14813D01*
Y15128D01*
Y15492D01*
X-14352Y15492D01*
X-14361Y15537D01*
X-14386Y15574D01*
X-15193Y16382D01*
X-15231Y16407D01*
X-15276Y16416D01*
X-15276Y16416D01*
X-15785D01*
X-15800Y16466D01*
X-15751Y16499D01*
X-15703Y16570D01*
X-15686Y16654D01*
X-15703Y16737D01*
X-15751Y16809D01*
X-15766Y16864D01*
X-15761Y16890D01*
Y16968D01*
X-15766Y16994D01*
X-15751Y17050D01*
X-15703Y17121D01*
X-15686Y17205D01*
X-15703Y17289D01*
X-15738Y17341D01*
X-15739Y17360D01*
Y17638D01*
X-15752Y17702D01*
X-15788Y17756D01*
X-16011Y17979D01*
X-16044Y18015D01*
X-16069Y18046D01*
X-16088Y18073D01*
X-16095Y18085D01*
Y18268D01*
X-16100Y18293D01*
X-16113Y18317D01*
X-16095Y18339D01*
X-16080Y18360D01*
X-16075Y18386D01*
Y18465D01*
X-16065Y18477D01*
X-15906D01*
X-15880Y18482D01*
X-15859Y18496D01*
X-15844Y18518D01*
X-15839Y18543D01*
Y18937D01*
X-15844Y18962D01*
X-15859Y18984D01*
X-15880Y18998D01*
X-15906Y19003D01*
X-16184D01*
X-16223Y19013D01*
X-16233Y19052D01*
Y19402D01*
X-16238Y19427D01*
X-16243Y19435D01*
X-16233Y19441D01*
X-16218Y19463D01*
X-16213Y19488D01*
Y19882D01*
X-16218Y19907D01*
X-16233Y19929D01*
X-16254Y19943D01*
X-16259Y19944D01*
X-16261Y19949D01*
X-16264Y19964D01*
X-16267Y19985D01*
X-16270Y20024D01*
Y20138D01*
X-16283Y20202D01*
X-16319Y20256D01*
X-17262Y21199D01*
X-17279Y21219D01*
X-17297Y21246D01*
X-17312Y21273D01*
X-17325Y21301D01*
X-17336Y21330D01*
X-17344Y21360D01*
X-17350Y21392D01*
X-17353Y21418D01*
Y24154D01*
X-17366Y24217D01*
X-17402Y24271D01*
X-17637Y24507D01*
X-17656Y24528D01*
X-17681Y24559D01*
X-17700Y24587D01*
X-17709Y24603D01*
Y24764D01*
X-17714Y24789D01*
X-17729Y24811D01*
X-17750Y24825D01*
X-17776Y24830D01*
X-17909D01*
X-17914Y24833D01*
X-17948Y24857D01*
X-18022Y24920D01*
X-18274Y25171D01*
X-18314Y25199D01*
X-18299Y25249D01*
X-18150D01*
X-18124Y25254D01*
X-18103Y25268D01*
X-18088Y25290D01*
X-18083Y25315D01*
Y25500D01*
X-18071Y25512D01*
X-18035Y25566D01*
X-18022Y25630D01*
Y26484D01*
X-18021Y26501D01*
X-18017Y26525D01*
X-18012Y26543D01*
X-18007Y26556D01*
X-18002Y26564D01*
X-17999Y26567D01*
X-17998Y26568D01*
X-17992D01*
X-17967Y26573D01*
X-17945Y26587D01*
X-17931Y26609D01*
X-17926Y26634D01*
Y26988D01*
X-17931Y27014D01*
X-17945Y27035D01*
X-17967Y27049D01*
X-17992Y27054D01*
X-18386D01*
X-18411Y27049D01*
X-18433Y27035D01*
X-18447Y27014D01*
X-18452Y26988D01*
Y26650D01*
X-18457Y26630D01*
X-18497Y26602D01*
X-18858D01*
X-18884Y26597D01*
X-18901Y26585D01*
X-18908Y26582D01*
X-18962Y26586D01*
X-18979Y26612D01*
X-19050Y26659D01*
X-19078Y26665D01*
X-19262Y26849D01*
Y27766D01*
X-19246Y27790D01*
X-19230Y27874D01*
X-19246Y27958D01*
X-19294Y28029D01*
X-19365Y28077D01*
X-19449Y28093D01*
X-19533Y28077D01*
X-19604Y28029D01*
X-19651Y27958D01*
X-19668Y27874D01*
X-19651Y27790D01*
X-19636Y27766D01*
Y27608D01*
X-19686Y27593D01*
X-19688Y27596D01*
X-19759Y27643D01*
X-19843Y27660D01*
X-19926Y27643D01*
X-19979Y27609D01*
X-19998Y27608D01*
X-20053D01*
X-20066Y27608D01*
X-20090Y27612D01*
X-20110Y27616D01*
X-20124Y27620D01*
X-20132Y27624D01*
X-20136Y27643D01*
X-20150Y27665D01*
X-20171Y27679D01*
X-20197Y27684D01*
X-20591D01*
X-20616Y27679D01*
X-20637Y27665D01*
X-20652Y27643D01*
X-20657Y27618D01*
Y27264D01*
X-20652Y27238D01*
X-20639Y27215D01*
X-20652Y27191D01*
X-20657Y27165D01*
Y27087D01*
X-20652Y27061D01*
X-20639Y27037D01*
X-20652Y27014D01*
X-20657Y26988D01*
Y26970D01*
X-20659Y26955D01*
X-20665Y26938D01*
X-20672Y26919D01*
X-20682Y26898D01*
X-20695Y26877D01*
X-20710Y26855D01*
X-20743Y26815D01*
X-21338Y26220D01*
X-21374Y26166D01*
X-21387Y26102D01*
Y25846D01*
X-21387Y25838D01*
X-21390Y25812D01*
X-21393Y25791D01*
X-21397Y25776D01*
X-21399Y25771D01*
X-21403Y25770D01*
X-21425Y25756D01*
X-21439Y25734D01*
X-21444Y25709D01*
Y25315D01*
X-21439Y25290D01*
X-21430Y25276D01*
X-21439Y25246D01*
X-21452Y25226D01*
X-22047D01*
X-22119Y25212D01*
X-22179Y25171D01*
X-22220Y25111D01*
X-22234Y25039D01*
Y24252D01*
X-22220Y24181D01*
X-22179Y24120D01*
X-21254Y23195D01*
X-21193Y23154D01*
X-21122Y23140D01*
X-20967D01*
X-20945Y23138D01*
X-20915Y23133D01*
X-20892Y23127D01*
X-20874Y23120D01*
X-20863Y23113D01*
X-20857Y23107D01*
X-20854Y23103D01*
X-20854Y23102D01*
Y23071D01*
X-20849Y23045D01*
X-20834Y23024D01*
X-20813Y23010D01*
X-20787Y23005D01*
X-20701D01*
X-20696Y23003D01*
X-20692Y23000D01*
X-20686Y22994D01*
X-20679Y22983D01*
X-20672Y22966D01*
X-20666Y22942D01*
X-20661Y22913D01*
X-20659Y22891D01*
Y22756D01*
X-20663Y22723D01*
X-20670Y22684D01*
X-20680Y22647D01*
X-20694Y22611D01*
X-20710Y22577D01*
X-20729Y22543D01*
X-20751Y22511D01*
X-20772Y22485D01*
X-22044Y21212D01*
X-22118Y21147D01*
X-22158Y21117D01*
X-22195Y21092D01*
X-22229Y21072D01*
X-22261Y21057D01*
X-22288Y21047D01*
X-22312Y21041D01*
X-22319Y21041D01*
X-22333D01*
X-22358Y21036D01*
X-22380Y21021D01*
X-22394Y21000D01*
X-22399Y20974D01*
Y20522D01*
X-22394Y20496D01*
X-22380Y20475D01*
X-22358Y20460D01*
X-22333Y20455D01*
X-21762D01*
X-21736Y20460D01*
X-21715Y20475D01*
X-21701Y20496D01*
X-21696Y20522D01*
Y20974D01*
X-21701Y21000D01*
X-21710Y21014D01*
X-21710Y21014D01*
X-21683Y21045D01*
X-20902Y21827D01*
X-20871Y21817D01*
X-20854Y21804D01*
Y21299D01*
X-20849Y21274D01*
X-20834Y21252D01*
X-20813Y21238D01*
X-20787Y21233D01*
X-20664D01*
X-20664Y21233D01*
X-20662Y21232D01*
X-20659Y21229D01*
X-20655Y21221D01*
X-20650Y21208D01*
X-20645Y21190D01*
X-20641Y21166D01*
X-20639Y21149D01*
Y19186D01*
X-20677Y19160D01*
X-20689Y19157D01*
X-20709Y19161D01*
X-21220D01*
X-21246Y19156D01*
X-21267Y19141D01*
X-21282Y19120D01*
X-21301Y19094D01*
X-21337Y19092D01*
X-21378Y19100D01*
X-21713D01*
X-21784Y19086D01*
X-21845Y19045D01*
X-21874Y19002D01*
X-21887Y18997D01*
X-21925Y18991D01*
X-21935Y18992D01*
X-21943Y18998D01*
X-21969Y19003D01*
X-22047D01*
X-22073Y18998D01*
X-22078Y18994D01*
X-22101Y18986D01*
X-22146Y18996D01*
X-22532Y19381D01*
X-22584Y19441D01*
X-22609Y19473D01*
X-22630Y19503D01*
X-22646Y19530D01*
X-22658Y19555D01*
X-22666Y19575D01*
X-22670Y19592D01*
X-22670Y19593D01*
Y19606D01*
X-22675Y19632D01*
X-22689Y19653D01*
X-22711Y19668D01*
X-22736Y19673D01*
X-23091D01*
X-23116Y19668D01*
X-23137Y19653D01*
X-23152Y19632D01*
X-23157Y19606D01*
Y19213D01*
X-23152Y19187D01*
X-23137Y19166D01*
X-23116Y19151D01*
X-23091Y19146D01*
X-22781D01*
X-22767Y19137D01*
X-22701Y19080D01*
X-22665Y19043D01*
X-22689Y18996D01*
X-22761Y18982D01*
X-22832Y18935D01*
X-22880Y18863D01*
X-22892Y18802D01*
X-22905Y18788D01*
X-23521Y18172D01*
X-23567Y18196D01*
X-23560Y18228D01*
X-23577Y18312D01*
X-23625Y18383D01*
X-23696Y18431D01*
X-23780Y18448D01*
X-23838Y18436D01*
X-23881Y18475D01*
X-23875Y18504D01*
X-23892Y18588D01*
X-23939Y18659D01*
X-24011Y18706D01*
X-24094Y18723D01*
X-24178Y18706D01*
X-24249Y18659D01*
X-24297Y18588D01*
X-24309Y18526D01*
X-24322Y18512D01*
X-24921Y17913D01*
X-24957Y17859D01*
X-24970Y17795D01*
Y16919D01*
X-25187Y16702D01*
X-26181D01*
X-26245Y16689D01*
X-26299Y16653D01*
X-26335Y16599D01*
X-26348Y16535D01*
Y15571D01*
X-26335Y15507D01*
X-26299Y15453D01*
X-26261Y15428D01*
X-26264Y15392D01*
X-26268Y15374D01*
X-26287Y15362D01*
X-26301Y15340D01*
X-26306Y15315D01*
Y14921D01*
X-26301Y14896D01*
X-26287Y14874D01*
X-26266Y14860D01*
X-26240Y14855D01*
X-26072D01*
X-26045Y14836D01*
X-25984Y14783D01*
X-25709Y14509D01*
X-25690Y14487D01*
X-25666Y14457D01*
X-25647Y14429D01*
X-25637Y14413D01*
Y14252D01*
X-25632Y14227D01*
X-25618Y14205D01*
X-25596Y14191D01*
X-25571Y14186D01*
X-25217D01*
X-25191Y14191D01*
X-25167Y14204D01*
X-25143Y14191D01*
X-25118Y14186D01*
X-25039D01*
X-25014Y14191D01*
X-24990Y14204D01*
X-24966Y14191D01*
X-24941Y14186D01*
X-24670D01*
X-24668Y14184D01*
X-24639Y14159D01*
X-24452Y13973D01*
X-24452Y13973D01*
X-24415Y13948D01*
X-24370Y13939D01*
X-21932D01*
X-21917Y13889D01*
X-21966Y13856D01*
X-22014Y13785D01*
X-22030Y13701D01*
X-22014Y13617D01*
X-21979Y13565D01*
X-21978Y13546D01*
Y12854D01*
X-22028Y12839D01*
X-22050Y12872D01*
X-22121Y12919D01*
X-22205Y12936D01*
X-22289Y12919D01*
X-22360Y12872D01*
X-22407Y12800D01*
X-22424Y12717D01*
X-22407Y12633D01*
X-22372Y12581D01*
X-22371Y12561D01*
Y12375D01*
X-22373Y12357D01*
X-22377Y12333D01*
X-22382Y12315D01*
X-22387Y12302D01*
X-22392Y12294D01*
X-22395Y12291D01*
X-22559D01*
X-22584Y12286D01*
X-22606Y12271D01*
X-22620Y12250D01*
X-22625Y12224D01*
Y11870D01*
X-22620Y11845D01*
X-22606Y11823D01*
X-22584Y11809D01*
X-22559Y11804D01*
X-22165D01*
X-22140Y11809D01*
X-22138Y11810D01*
X-22133Y11804D01*
X-22112Y11789D01*
X-22087Y11784D01*
X-22008D01*
X-21983Y11789D01*
X-21961Y11804D01*
X-21950Y11820D01*
X-21941Y11826D01*
X-21894Y11835D01*
X-21093Y11035D01*
X-21057Y10996D01*
X-21031Y10964D01*
X-21011Y10935D01*
Y10768D01*
X-21006Y10742D01*
X-20992Y10721D01*
X-20970Y10706D01*
X-20945Y10701D01*
X-20760D01*
X-20728Y10670D01*
X-20674Y10633D01*
X-20610Y10621D01*
X-19528D01*
X-19464Y10633D01*
X-19410Y10670D01*
X-19364Y10715D01*
X-19315Y10693D01*
X-19313Y10683D01*
X-19299Y10662D01*
X-19277Y10647D01*
X-19252Y10642D01*
X-19173D01*
X-19171Y10643D01*
X-19125Y10613D01*
X-19121Y10606D01*
X-19116Y10585D01*
X-19102Y10563D01*
X-19080Y10549D01*
X-19055Y10544D01*
X-18661D01*
X-18636Y10549D01*
X-18615Y10563D01*
X-18600Y10585D01*
X-18570Y10607D01*
X-18548Y10604D01*
X-18543Y10603D01*
X-18465D01*
X-18439Y10608D01*
X-18418Y10622D01*
X-18413Y10629D01*
X-18411Y10628D01*
X-18386Y10623D01*
X-18117D01*
X-18108Y10616D01*
X-18081Y10594D01*
X-17917Y10429D01*
X-17917Y10429D01*
X-17879Y10404D01*
X-17835Y10395D01*
X-17835Y10395D01*
X-17339D01*
X-17339Y10395D01*
X-17294Y10404D01*
X-17256Y10429D01*
X-17162Y10524D01*
X-17162Y10524D01*
X-17137Y10562D01*
X-17128Y10606D01*
Y12432D01*
X-16940Y12620D01*
X-16545D01*
X-16501Y12629D01*
X-16463Y12654D01*
X-16438Y12692D01*
X-16429Y12736D01*
X-16438Y12781D01*
X-16463Y12819D01*
X-16501Y12844D01*
X-16545Y12853D01*
X-16988D01*
X-17033Y12844D01*
X-17071Y12819D01*
X-17071Y12819D01*
X-17128Y12761D01*
X-17178Y12782D01*
Y12953D01*
X-17180Y12963D01*
X-17157Y13003D01*
X-17146Y13013D01*
X-16545D01*
X-16501Y13022D01*
X-16463Y13048D01*
X-16462Y13049D01*
X-16398Y13055D01*
X-15945Y12602D01*
X-15951Y12541D01*
X-15976Y12525D01*
X-15980Y12526D01*
X-15999Y12539D01*
X-16043Y12548D01*
X-16088Y12539D01*
X-16106Y12526D01*
X-16142Y12517D01*
X-16177Y12526D01*
X-16196Y12539D01*
X-16240Y12548D01*
X-16285Y12539D01*
X-16322Y12513D01*
X-16325Y12510D01*
X-16352Y12478D01*
X-16389Y12497D01*
X-16392Y12499D01*
X-16437Y12508D01*
X-16482Y12499D01*
X-16519Y12474D01*
X-16545Y12436D01*
X-16553Y12392D01*
Y12116D01*
Y10658D01*
X-17292Y9920D01*
X-19196D01*
X-19202Y9920D01*
X-19205Y9921D01*
Y10157D01*
X-19210Y10183D01*
X-19225Y10204D01*
X-19246Y10219D01*
X-19272Y10224D01*
X-19626D01*
X-19651Y10219D01*
X-19675Y10206D01*
X-19699Y10219D01*
X-19724Y10224D01*
X-19803D01*
X-19829Y10219D01*
X-19852Y10206D01*
X-19876Y10219D01*
X-19902Y10224D01*
X-20256D01*
X-20281Y10219D01*
X-20303Y10204D01*
X-20317Y10183D01*
X-20322Y10157D01*
Y10151D01*
X-20323Y10150D01*
X-20326Y10147D01*
X-20334Y10143D01*
X-20346Y10138D01*
X-20365Y10133D01*
X-20389Y10129D01*
X-20406Y10127D01*
X-20462D01*
X-20485Y10150D01*
Y10335D01*
X-20490Y10360D01*
X-20504Y10382D01*
X-20526Y10396D01*
X-20551Y10401D01*
X-20945D01*
X-20970Y10396D01*
X-20992Y10382D01*
X-21006Y10360D01*
X-21011Y10335D01*
Y10020D01*
X-21006Y9994D01*
X-20993Y9970D01*
X-21006Y9947D01*
X-21011Y9921D01*
Y9724D01*
X-21006Y9699D01*
X-21003Y9694D01*
X-21025Y9644D01*
X-21025Y9644D01*
X-22589D01*
X-22594Y9649D01*
X-22605Y9662D01*
X-22611Y9670D01*
Y9941D01*
X-22616Y9966D01*
X-22629Y9990D01*
X-22616Y10014D01*
X-22611Y10039D01*
Y10118D01*
X-22616Y10143D01*
X-22629Y10167D01*
X-22616Y10191D01*
X-22611Y10217D01*
Y10571D01*
X-22616Y10596D01*
X-22630Y10618D01*
X-22652Y10632D01*
X-22677Y10637D01*
X-23071D01*
X-23096Y10632D01*
X-23118Y10618D01*
X-23132Y10596D01*
X-23133Y10592D01*
X-23138Y10590D01*
X-23153Y10586D01*
X-23174Y10583D01*
X-23213Y10580D01*
X-23248D01*
X-23257Y10580D01*
X-23282Y10583D01*
X-23303Y10586D01*
X-23319Y10590D01*
X-23324Y10592D01*
X-23325Y10596D01*
X-23339Y10618D01*
X-23360Y10632D01*
X-23386Y10637D01*
X-23780D01*
X-23805Y10632D01*
X-23807Y10631D01*
X-23839Y10669D01*
X-23643Y10865D01*
X-23621Y10884D01*
X-23591Y10909D01*
X-23564Y10928D01*
X-23546Y10938D01*
X-23386D01*
X-23360Y10943D01*
X-23339Y10957D01*
X-23325Y10979D01*
X-23320Y11004D01*
Y11319D01*
X-23325Y11344D01*
X-23339Y11366D01*
X-23360Y11380D01*
X-23386Y11385D01*
X-23780D01*
X-23805Y11380D01*
X-23826Y11366D01*
X-23841Y11344D01*
X-23846Y11319D01*
Y11152D01*
X-23846Y11151D01*
X-23866Y11123D01*
X-23918Y11062D01*
X-24173Y10807D01*
X-24209Y10753D01*
X-24214Y10726D01*
X-24264Y10731D01*
Y10945D01*
X-24269Y10970D01*
X-24284Y10992D01*
X-24305Y11006D01*
X-24331Y11011D01*
X-24724D01*
X-24750Y11006D01*
X-24771Y10992D01*
X-24786Y10970D01*
X-24787Y10966D01*
X-24791Y10964D01*
X-24807Y10960D01*
X-24827Y10957D01*
X-24867Y10954D01*
X-25157D01*
X-25221Y10941D01*
X-25275Y10905D01*
X-25971Y10210D01*
X-26007Y10176D01*
X-26038Y10152D01*
X-26065Y10132D01*
X-26078Y10125D01*
X-26260D01*
X-26285Y10120D01*
X-26307Y10106D01*
X-26321Y10084D01*
X-26326Y10059D01*
Y9705D01*
X-26321Y9679D01*
X-26320Y9678D01*
X-26325Y9668D01*
X-26346Y9653D01*
X-26360Y9632D01*
X-26365Y9606D01*
Y9528D01*
X-26360Y9502D01*
X-26346Y9481D01*
X-26325Y9466D01*
X-26326Y9429D01*
Y9075D01*
X-26321Y9049D01*
X-26307Y9028D01*
X-26285Y9014D01*
X-26260Y9009D01*
X-26254D01*
X-26253Y9008D01*
X-26250Y9005D01*
X-26245Y8997D01*
X-26240Y8984D01*
X-26235Y8966D01*
X-26231Y8942D01*
X-26230Y8927D01*
X-26950Y8207D01*
X-27013Y8195D01*
X-27084Y8147D01*
X-27132Y8076D01*
X-27148Y7992D01*
X-27132Y7908D01*
X-27084Y7837D01*
X-27013Y7790D01*
X-26929Y7773D01*
X-26879Y7783D01*
X-26832Y7767D01*
X-26820Y7747D01*
X-26818Y7742D01*
X-26800Y7724D01*
X-26800Y7724D01*
X-26500Y7531D01*
X-26500Y7531D01*
X-26476Y7522D01*
X-26450Y7522D01*
X-26444Y7525D01*
X-26397Y7507D01*
X-26389Y7500D01*
X-26384Y7475D01*
X-26336Y7404D01*
X-26265Y7357D01*
X-26204Y7344D01*
X-26189Y7332D01*
X-26102Y7244D01*
X-26048Y7208D01*
X-25984Y7196D01*
X-24331D01*
X-24267Y7208D01*
X-24213Y7244D01*
X-23937Y7520D01*
X-23901Y7574D01*
X-23896Y7601D01*
X-23846Y7596D01*
Y7343D01*
X-23841Y7317D01*
X-23826Y7296D01*
X-23805Y7281D01*
X-23780Y7276D01*
X-23386D01*
X-23360Y7281D01*
X-23339Y7296D01*
X-23325Y7317D01*
X-23324Y7322D01*
X-23319Y7324D01*
X-23303Y7327D01*
X-23283Y7330D01*
X-23244Y7333D01*
X-23173D01*
X-23124Y7331D01*
X-23110Y7329D01*
X-23109Y7329D01*
X-23096Y7321D01*
X-23071Y7316D01*
X-22677D01*
X-22652Y7321D01*
X-22630Y7335D01*
X-22616Y7357D01*
X-22611Y7382D01*
Y7736D01*
X-22616Y7762D01*
X-22629Y7785D01*
X-22616Y7809D01*
X-22611Y7835D01*
Y7913D01*
X-22616Y7939D01*
X-22629Y7963D01*
X-22616Y7986D01*
X-22611Y8012D01*
Y8071D01*
X-22608Y8072D01*
X-22601Y8073D01*
X-17795D01*
X-17795Y8073D01*
X-17751Y8081D01*
X-17713Y8107D01*
X-16927Y8892D01*
X-16877Y8872D01*
Y8563D01*
X-16872Y8538D01*
X-16858Y8516D01*
X-16836Y8502D01*
X-16811Y8497D01*
X-16417D01*
X-16392Y8502D01*
X-16370Y8516D01*
X-16356Y8538D01*
X-16351Y8563D01*
Y8579D01*
X-16314Y8586D01*
X-16260Y8622D01*
X-16121Y8761D01*
X-16058Y8774D01*
X-15987Y8821D01*
X-15939Y8892D01*
X-15927Y8954D01*
X-15914Y8968D01*
X-15906Y8977D01*
X-15866Y9013D01*
X-15834Y9040D01*
X-15809Y9058D01*
X-15737D01*
X-15715Y9045D01*
X-15689Y9027D01*
X-15633Y8980D01*
X-15560Y8907D01*
Y8287D01*
X-15548Y8224D01*
X-15512Y8170D01*
X-15345Y8003D01*
X-15309Y7965D01*
X-15283Y7932D01*
X-15263Y7904D01*
Y7736D01*
X-15258Y7711D01*
X-15244Y7689D01*
X-15222Y7675D01*
X-15197Y7670D01*
X-14803D01*
X-14778Y7675D01*
X-14756Y7689D01*
X-14742Y7711D01*
X-14737Y7736D01*
Y8051D01*
X-14742Y8077D01*
X-14756Y8098D01*
X-14778Y8112D01*
X-14803Y8117D01*
X-14964D01*
X-14980Y8127D01*
X-15007Y8145D01*
X-15064Y8193D01*
X-15227Y8356D01*
Y8373D01*
X-15197Y8418D01*
X-14803D01*
X-14778Y8423D01*
X-14756Y8437D01*
X-14742Y8459D01*
X-14737Y8484D01*
Y8799D01*
X-14742Y8825D01*
X-14756Y8846D01*
X-14769Y8854D01*
X-14771Y8861D01*
X-14775Y8881D01*
X-14780Y8964D01*
X-14780Y8973D01*
X-14775Y9007D01*
X-14769Y9034D01*
X-14763Y9053D01*
X-14759Y9061D01*
X-14748Y9063D01*
X-14727Y9077D01*
X-14712Y9099D01*
X-14707Y9124D01*
Y9695D01*
X-14712Y9720D01*
X-14727Y9742D01*
X-14748Y9756D01*
X-14759Y9758D01*
X-14763Y9766D01*
X-14769Y9785D01*
X-14774Y9810D01*
X-14783Y9911D01*
Y10551D01*
X-14783Y10551D01*
X-14788Y10576D01*
X-14742Y10601D01*
X-11933Y7792D01*
X-11933Y7792D01*
X-11895Y7766D01*
X-11850Y7758D01*
X-11631D01*
X-11625Y7757D01*
X-11621Y7756D01*
Y7677D01*
X-11619Y7664D01*
X-11640Y7660D01*
X-11661Y7645D01*
X-11675Y7624D01*
X-11680Y7598D01*
Y7520D01*
X-11675Y7494D01*
X-11661Y7473D01*
X-11643Y7451D01*
X-11656Y7427D01*
X-11661Y7402D01*
Y7155D01*
X-11663Y7146D01*
Y5945D01*
X-11650Y5881D01*
X-11614Y5827D01*
X-11063Y5276D01*
X-11009Y5240D01*
X-10945Y5227D01*
X-10216D01*
X-10163Y5191D01*
X-10079Y5174D01*
X-9995Y5191D01*
X-9924Y5239D01*
X-9876Y5310D01*
X-9860Y5394D01*
X-9876Y5474D01*
X-9875Y5485D01*
X-9854Y5524D01*
X-9843D01*
X-9817Y5529D01*
X-9796Y5544D01*
X-9781Y5565D01*
X-9776Y5591D01*
Y5669D01*
X-9766Y5682D01*
X-9705D01*
X-9679Y5687D01*
X-9658Y5701D01*
X-9643Y5723D01*
X-9638Y5748D01*
Y6142D01*
X-9643Y6167D01*
X-9658Y6189D01*
X-9676Y6210D01*
X-9663Y6234D01*
X-9658Y6260D01*
Y6339D01*
X-9658Y6340D01*
X-9628Y6386D01*
X-9621Y6390D01*
X-9449D01*
X-9423Y6395D01*
X-9413Y6402D01*
X-9317Y6408D01*
X-8845D01*
X-8832Y6407D01*
X-8807Y6404D01*
X-8787Y6400D01*
X-8773Y6395D01*
X-8766Y6392D01*
X-8762Y6372D01*
X-8748Y6351D01*
X-8726Y6336D01*
X-8701Y6331D01*
X-8307D01*
X-8282Y6336D01*
X-8260Y6351D01*
X-8246Y6372D01*
X-8241Y6398D01*
Y6752D01*
X-8196Y6784D01*
X-8189D01*
X-8164Y6789D01*
X-8142Y6804D01*
X-8128Y6825D01*
X-8123Y6850D01*
Y6929D01*
X-8078Y6959D01*
X-8071D01*
X-8062Y6959D01*
X-8037Y6957D01*
X-8016Y6953D01*
X-8000Y6950D01*
X-7995Y6948D01*
X-7994Y6943D01*
X-7980Y6922D01*
X-7958Y6907D01*
X-7933Y6902D01*
X-7618D01*
X-7593Y6907D01*
X-7571Y6922D01*
X-7557Y6943D01*
X-7552Y6969D01*
Y7362D01*
X-7557Y7388D01*
X-7571Y7409D01*
X-7593Y7423D01*
X-7618Y7428D01*
X-7933D01*
X-7958Y7423D01*
X-7980Y7409D01*
X-7994Y7388D01*
X-7999Y7362D01*
Y7316D01*
X-8002Y7313D01*
X-8010Y7308D01*
X-8023Y7303D01*
X-8042Y7298D01*
X-8066Y7294D01*
X-8083Y7293D01*
X-9017D01*
X-9047Y7339D01*
X-9046Y7343D01*
X-9028Y7355D01*
X-9014Y7376D01*
X-9009Y7402D01*
Y7795D01*
X-9014Y7821D01*
X-9028Y7842D01*
X-9049Y7857D01*
X-9054Y7857D01*
X-9056Y7862D01*
X-9060Y7878D01*
X-9063Y7898D01*
X-9066Y7937D01*
Y7968D01*
X-9063Y8018D01*
X-9062Y8031D01*
X-9061Y8033D01*
X-9053Y8046D01*
X-9048Y8071D01*
Y8465D01*
X-9053Y8490D01*
X-9067Y8511D01*
X-9089Y8526D01*
X-9114Y8531D01*
X-9469D01*
X-9494Y8526D01*
X-9515Y8511D01*
X-9542Y8486D01*
X-9567Y8491D01*
X-9646D01*
X-9671Y8486D01*
X-9697Y8511D01*
X-9719Y8526D01*
X-9744Y8531D01*
X-10098D01*
X-10124Y8526D01*
X-10145Y8511D01*
X-10160Y8490D01*
X-10165Y8465D01*
Y8385D01*
X-10168Y8385D01*
X-10174Y8384D01*
X-11920D01*
X-14943Y11407D01*
Y12274D01*
Y12431D01*
X-14951Y12476D01*
X-14956Y12482D01*
X-14929Y12532D01*
X-14795D01*
X-14769Y12482D01*
X-14773Y12476D01*
X-14782Y12431D01*
Y11909D01*
X-14782Y11909D01*
X-14773Y11865D01*
X-14748Y11827D01*
X-14175Y11255D01*
X-14157Y11243D01*
X-11927Y9012D01*
X-11889Y8987D01*
X-11844Y8978D01*
X-11844Y8978D01*
X-7607D01*
X-7261Y8632D01*
X-7242Y8612D01*
X-7232Y8599D01*
Y8287D01*
X-7227Y8262D01*
X-7212Y8241D01*
X-7191Y8226D01*
X-7165Y8221D01*
X-6772D01*
X-6746Y8226D01*
X-6725Y8241D01*
X-6710Y8262D01*
X-6705Y8287D01*
Y8642D01*
X-6710Y8667D01*
X-6725Y8689D01*
X-6746Y8703D01*
X-6772Y8708D01*
X-6998D01*
X-7004Y8712D01*
X-7015Y8719D01*
X-7039Y8739D01*
X-7477Y9177D01*
X-7514Y9202D01*
X-7559Y9211D01*
X-7559Y9211D01*
X-11796D01*
X-13279Y10694D01*
X-13273Y10758D01*
X-13162Y10870D01*
X-13157Y10871D01*
X-13124Y10876D01*
X-13046Y10883D01*
X-12656D01*
X-12643Y10822D01*
X-12596Y10751D01*
X-12525Y10703D01*
X-12441Y10686D01*
X-12357Y10703D01*
X-12286Y10751D01*
X-12238Y10822D01*
X-12222Y10906D01*
X-12238Y10989D01*
X-12263Y11025D01*
X-12236Y11075D01*
X-11781D01*
Y10778D01*
X-11989Y10569D01*
X-12052Y10557D01*
X-12124Y10509D01*
X-12171Y10438D01*
X-12188Y10354D01*
X-12171Y10270D01*
X-12124Y10199D01*
X-12052Y10152D01*
X-11968Y10135D01*
X-11896Y10149D01*
X-11868Y10137D01*
X-11845Y10118D01*
X-11841Y10105D01*
X-11824Y10085D01*
X-11579Y9883D01*
X-11556Y9871D01*
X-11530Y9869D01*
X-11528Y9869D01*
X-11477Y9847D01*
X-11471Y9840D01*
X-11462Y9798D01*
X-11415Y9727D01*
X-11344Y9679D01*
X-11260Y9663D01*
X-11176Y9679D01*
X-11124Y9714D01*
X-11105Y9715D01*
X-8268D01*
X-8204Y9728D01*
X-8150Y9764D01*
X-7992Y9922D01*
X-7956Y9976D01*
X-7944Y10039D01*
Y10591D01*
X-7956Y10654D01*
X-7992Y10708D01*
X-8270Y10986D01*
X-8249Y11036D01*
X-7972D01*
X-7947Y11041D01*
X-7926Y11056D01*
X-7911Y11077D01*
X-7906Y11102D01*
Y11496D01*
X-7911Y11521D01*
X-7926Y11543D01*
X-7947Y11557D01*
X-7952Y11558D01*
X-7953Y11563D01*
X-7957Y11579D01*
X-7960Y11599D01*
X-7963Y11638D01*
Y11703D01*
X-7962Y11731D01*
X-7960Y11753D01*
X-7957Y11770D01*
X-7955Y11777D01*
X-7945Y11784D01*
X-7931Y11805D01*
X-7926Y11831D01*
Y12185D01*
X-7931Y12210D01*
X-7944Y12234D01*
X-7931Y12258D01*
X-7926Y12283D01*
Y12362D01*
X-7931Y12388D01*
X-7944Y12411D01*
X-7931Y12435D01*
X-7926Y12461D01*
Y12815D01*
X-7931Y12840D01*
X-7945Y12862D01*
X-7967Y12876D01*
X-7992Y12881D01*
X-8071D01*
X-8072Y12884D01*
X-8073Y12891D01*
Y13268D01*
X-8080Y13303D01*
X-8079Y13306D01*
X-8060Y13334D01*
X-8046Y13349D01*
X-8041Y13349D01*
X-8017Y13359D01*
X-7999Y13378D01*
X-7038Y14823D01*
X-7028Y14847D01*
X-7028Y14873D01*
X-7035Y14889D01*
X-7037Y14902D01*
X-7023Y14951D01*
X-7020Y14953D01*
X-7006Y14975D01*
X-7001Y15000D01*
Y15394D01*
X-7006Y15419D01*
X-7020Y15441D01*
X-7042Y15455D01*
X-7067Y15460D01*
X-7091D01*
X-7094Y15467D01*
X-7097Y15479D01*
X-7100Y15496D01*
X-7101Y15508D01*
Y15676D01*
X-7101Y15683D01*
X-7099Y15692D01*
X-7098Y15699D01*
X-7096Y15705D01*
X-7095Y15707D01*
X-7089Y15711D01*
X-7042Y15782D01*
X-7025Y15866D01*
X-7042Y15950D01*
X-7068Y15989D01*
X-7061Y16041D01*
X-7051Y16048D01*
X-7040Y16056D01*
X-7025Y16077D01*
X-7020Y16102D01*
Y16181D01*
X-7025Y16206D01*
X-7040Y16228D01*
X-7051Y16236D01*
X-7061Y16243D01*
X-7068Y16295D01*
X-7042Y16333D01*
X-7025Y16417D01*
X-7042Y16501D01*
X-7066Y16537D01*
X-7039Y16587D01*
X-7008D01*
X-6983Y16592D01*
X-6961Y16607D01*
X-6947Y16628D01*
X-6942Y16654D01*
Y16732D01*
X-6942Y16734D01*
X-6912Y16780D01*
X-6905Y16784D01*
X-6791D01*
X-6766Y16789D01*
X-6744Y16804D01*
X-6730Y16825D01*
X-6725Y16850D01*
Y17244D01*
X-6730Y17269D01*
X-6744Y17291D01*
X-6766Y17305D01*
X-6791Y17310D01*
X-6977D01*
X-6981Y17313D01*
X-7008Y17332D01*
X-7069Y17383D01*
X-7992Y18307D01*
X-8046Y18343D01*
X-8110Y18356D01*
X-8137D01*
X-8156Y18406D01*
X-8146Y18414D01*
X-8130Y18434D01*
X-8123Y18459D01*
X-8126Y18485D01*
X-8139Y18507D01*
X-10484Y21239D01*
X-10484Y21239D01*
X-10504Y21255D01*
X-10505Y21255D01*
X-10505Y21260D01*
Y21654D01*
X-10510Y21679D01*
X-10524Y21700D01*
X-10532Y21706D01*
X-10532Y21706D01*
X-10535Y21720D01*
X-10542Y21818D01*
Y21929D01*
Y23248D01*
X-10542Y23248D01*
X-10556Y23319D01*
X-10596Y23380D01*
X-11012Y23796D01*
X-11018Y23824D01*
X-11065Y23895D01*
X-11137Y23943D01*
X-11220Y23959D01*
X-11304Y23943D01*
X-11375Y23895D01*
X-11423Y23824D01*
X-11440Y23740D01*
X-11423Y23656D01*
X-11375Y23585D01*
X-11304Y23538D01*
X-11281Y23533D01*
X-11257Y23498D01*
X-11278Y23452D01*
X-11555D01*
X-11580Y23447D01*
X-11602Y23433D01*
X-11628Y23447D01*
X-11654Y23452D01*
X-11732D01*
X-11758Y23447D01*
X-11778Y23436D01*
X-11802Y23445D01*
X-11805Y23447D01*
X-11811Y23448D01*
X-11826Y23454D01*
X-11828Y23458D01*
X-11833Y23472D01*
X-11837Y23491D01*
X-11841Y23535D01*
Y23868D01*
X-11633Y24076D01*
X-11570Y24089D01*
X-11499Y24136D01*
X-11451Y24207D01*
X-11434Y24291D01*
X-11451Y24375D01*
X-11499Y24446D01*
X-11570Y24494D01*
X-11654Y24511D01*
X-11737Y24494D01*
X-11809Y24446D01*
X-11826Y24421D01*
X-11893Y24411D01*
X-11902Y24418D01*
Y24449D01*
X-11907Y24474D01*
X-11922Y24496D01*
X-11943Y24510D01*
X-11968Y24515D01*
X-12520D01*
X-12545Y24510D01*
X-12567Y24496D01*
X-12574Y24484D01*
X-12581Y24474D01*
X-12633Y24468D01*
X-12672Y24494D01*
X-12756Y24511D01*
X-12840Y24494D01*
X-12894Y24458D01*
X-12913D01*
X-12977Y24445D01*
X-13006Y24426D01*
X-13056Y24449D01*
X-13061Y24474D01*
X-13076Y24496D01*
X-13097Y24510D01*
X-13123Y24515D01*
X-15787D01*
X-15813Y24510D01*
X-15818Y24507D01*
X-15867Y24528D01*
X-15868Y24529D01*
Y30928D01*
X-15867Y30934D01*
X-15867Y30938D01*
X-15787D01*
X-15762Y30943D01*
X-15741Y30957D01*
X-15726Y30979D01*
X-15721Y31004D01*
Y31358D01*
X-15726Y31384D01*
X-15741Y31405D01*
X-15762Y31419D01*
X-15787Y31425D01*
D02*
G37*
G36*
X-16693Y36322D02*
X-16777Y36305D01*
X-16848Y36257D01*
X-16895Y36186D01*
X-16908Y36125D01*
X-16920Y36111D01*
X-17559Y35472D01*
X-17595Y35418D01*
X-17608Y35354D01*
Y35248D01*
X-17609Y35231D01*
X-17613Y35208D01*
X-17618Y35189D01*
X-17623Y35176D01*
X-17628Y35169D01*
X-17631Y35165D01*
X-17632Y35165D01*
X-17638D01*
X-17663Y35160D01*
X-17685Y35145D01*
X-17699Y35124D01*
X-17704Y35098D01*
Y34744D01*
X-17699Y34719D01*
X-17685Y34697D01*
X-17663Y34683D01*
X-17638Y34678D01*
X-17244D01*
X-17219Y34683D01*
X-17197Y34697D01*
X-17175Y34715D01*
X-17151Y34703D01*
X-17126Y34698D01*
X-17047D01*
X-17022Y34703D01*
X-17000Y34717D01*
X-16985Y34717D01*
X-16945Y34710D01*
X-16937Y34697D01*
X-16915Y34683D01*
X-16890Y34678D01*
X-16496D01*
X-16471Y34683D01*
X-16449Y34697D01*
X-16435Y34719D01*
X-16430Y34744D01*
Y35098D01*
X-16435Y35124D01*
X-16449Y35145D01*
X-16471Y35160D01*
X-16496Y35165D01*
X-16502D01*
X-16503Y35165D01*
X-16506Y35169D01*
X-16511Y35176D01*
X-16516Y35189D01*
X-16521Y35208D01*
X-16525Y35231D01*
X-16526Y35248D01*
Y35414D01*
X-16490Y35467D01*
X-16474Y35551D01*
X-16490Y35635D01*
X-16538Y35706D01*
X-16609Y35754D01*
X-16693Y35770D01*
X-16725Y35764D01*
X-16750Y35810D01*
X-16672Y35887D01*
X-16609Y35900D01*
X-16538Y35947D01*
X-16490Y36018D01*
X-16474Y36102D01*
X-16490Y36186D01*
X-16538Y36257D01*
X-16609Y36305D01*
X-16693Y36322D01*
D02*
G37*
G36*
X-18012Y32862D02*
X-18327D01*
X-18352Y32857D01*
X-18374Y32842D01*
X-18388Y32821D01*
X-18393Y32795D01*
Y32402D01*
X-18388Y32376D01*
X-18374Y32355D01*
X-18352Y32340D01*
X-18327Y32335D01*
X-18309D01*
X-18294Y32333D01*
X-18276Y32328D01*
X-18257Y32320D01*
X-18237Y32310D01*
X-18215Y32297D01*
X-18194Y32282D01*
X-18154Y32249D01*
X-17826Y31921D01*
X-17791Y31883D01*
X-17765Y31852D01*
X-17746Y31824D01*
X-17743Y31820D01*
Y31634D01*
X-17738Y31609D01*
X-17724Y31587D01*
X-17703Y31573D01*
X-17677Y31568D01*
X-17283D01*
X-17258Y31573D01*
X-17237Y31587D01*
X-17222Y31609D01*
X-17217Y31634D01*
Y31988D01*
X-17222Y32014D01*
X-17237Y32035D01*
X-17258Y32049D01*
X-17283Y32054D01*
X-17466D01*
X-17478Y32062D01*
X-17505Y32080D01*
X-17563Y32129D01*
X-17864Y32430D01*
X-17900Y32469D01*
X-17926Y32502D01*
X-17946Y32529D01*
Y32795D01*
X-17951Y32821D01*
X-17965Y32842D01*
X-17986Y32857D01*
X-18012Y32862D01*
D02*
G37*
G36*
X-15079Y34535D02*
X-15472D01*
X-15498Y34530D01*
X-15519Y34515D01*
X-15528Y34503D01*
X-15568Y34495D01*
X-15583Y34496D01*
X-15605Y34510D01*
X-15630Y34515D01*
X-16378D01*
X-16403Y34510D01*
X-16427Y34498D01*
X-16449Y34515D01*
X-16471Y34530D01*
X-16496Y34535D01*
X-16890D01*
X-16915Y34530D01*
X-16937Y34515D01*
X-16951Y34494D01*
X-16956Y34469D01*
Y34114D01*
X-16951Y34089D01*
X-16937Y34067D01*
X-16915Y34053D01*
X-16890Y34048D01*
X-16884D01*
X-16883Y34047D01*
X-16880Y34044D01*
X-16875Y34037D01*
X-16870Y34024D01*
X-16865Y34005D01*
X-16861Y33981D01*
X-16860Y33964D01*
Y33898D01*
X-16847Y33834D01*
X-16811Y33780D01*
X-16634Y33604D01*
X-16615Y33582D01*
X-16591Y33551D01*
X-16572Y33524D01*
X-16562Y33507D01*
Y33346D01*
X-16557Y33321D01*
X-16548Y33308D01*
X-16557Y33277D01*
X-16570Y33258D01*
X-16949D01*
X-17020Y33243D01*
X-17081Y33203D01*
X-17081Y33203D01*
X-17320Y32964D01*
X-17366Y32921D01*
X-17405Y32889D01*
X-17440Y32865D01*
X-17446Y32862D01*
X-17579D01*
X-17604Y32857D01*
X-17626Y32842D01*
X-17640Y32821D01*
X-17645Y32795D01*
Y32402D01*
X-17640Y32376D01*
X-17626Y32355D01*
X-17604Y32340D01*
X-17579Y32335D01*
X-17264D01*
X-17238Y32340D01*
X-17217Y32355D01*
X-17203Y32376D01*
X-17201Y32386D01*
X-17150D01*
X-17148Y32376D01*
X-17133Y32355D01*
X-17112Y32340D01*
X-17087Y32335D01*
X-17008D01*
X-16983Y32340D01*
X-16961Y32355D01*
X-16911Y32349D01*
X-16907Y32346D01*
X-16905Y32341D01*
X-16903Y32325D01*
X-16899Y32265D01*
Y32138D01*
X-16900Y32121D01*
X-16904Y32097D01*
X-16909Y32079D01*
X-16914Y32066D01*
X-16919Y32058D01*
X-16922Y32055D01*
X-16923Y32054D01*
X-16929D01*
X-16954Y32049D01*
X-16976Y32035D01*
X-16990Y32014D01*
X-16995Y31988D01*
Y31634D01*
X-16990Y31609D01*
X-16976Y31587D01*
X-16954Y31573D01*
X-16929Y31568D01*
X-16535D01*
X-16510Y31573D01*
X-16489Y31587D01*
X-16467Y31605D01*
X-16443Y31592D01*
X-16417Y31587D01*
X-16339D01*
X-16313Y31592D01*
X-16292Y31607D01*
X-16277Y31607D01*
X-16236Y31600D01*
X-16228Y31587D01*
X-16206Y31573D01*
X-16181Y31568D01*
X-15787D01*
X-15762Y31573D01*
X-15741Y31587D01*
X-15732Y31600D01*
X-15692Y31607D01*
X-15677Y31607D01*
X-15655Y31592D01*
X-15630Y31587D01*
X-15394D01*
X-15391Y31588D01*
X-15346Y31558D01*
X-15341Y31551D01*
Y31358D01*
X-15377Y31304D01*
X-15394Y31220D01*
X-15377Y31137D01*
X-15329Y31065D01*
X-15258Y31018D01*
X-15174Y31001D01*
X-15091Y31018D01*
X-15019Y31065D01*
X-14972Y31137D01*
X-14955Y31220D01*
X-14972Y31304D01*
X-15007Y31356D01*
X-15008Y31376D01*
Y31863D01*
X-14617Y32253D01*
X-14579Y32289D01*
X-14546Y32315D01*
X-14518Y32335D01*
X-14350D01*
X-14325Y32340D01*
X-14304Y32355D01*
X-14289Y32376D01*
X-14284Y32402D01*
Y32795D01*
X-14289Y32821D01*
X-14304Y32842D01*
X-14325Y32857D01*
X-14350Y32862D01*
X-14483D01*
X-14489Y32865D01*
X-14523Y32889D01*
X-14597Y32952D01*
X-14848Y33203D01*
X-14889Y33230D01*
X-14874Y33280D01*
X-14724D01*
X-14699Y33285D01*
X-14678Y33300D01*
X-14663Y33321D01*
X-14658Y33346D01*
Y33740D01*
X-14663Y33766D01*
X-14678Y33787D01*
X-14690Y33795D01*
X-14692Y33805D01*
X-14695Y33846D01*
Y33898D01*
X-14709Y33969D01*
X-14750Y34030D01*
X-14909Y34188D01*
X-14951Y34234D01*
X-14982Y34273D01*
X-15006Y34307D01*
X-15012Y34318D01*
Y34469D01*
X-15018Y34494D01*
X-15032Y34515D01*
X-15053Y34530D01*
X-15079Y34535D01*
D02*
G37*
G36*
X-7598Y5125D02*
X-7992D01*
X-8017Y5120D01*
X-8039Y5106D01*
X-8053Y5084D01*
X-8058Y5059D01*
Y5032D01*
X-8062Y5030D01*
X-8069Y5025D01*
X-8082Y5020D01*
X-8101Y5015D01*
X-8125Y5011D01*
X-8142Y5009D01*
X-8366D01*
X-8420Y5045D01*
X-8504Y5062D01*
X-8588Y5045D01*
X-8659Y4998D01*
X-8706Y4926D01*
X-8723Y4843D01*
X-8706Y4759D01*
X-8659Y4688D01*
X-8588Y4640D01*
X-8504Y4623D01*
X-8420Y4640D01*
X-8368Y4675D01*
X-8349Y4676D01*
X-8120D01*
X-8092Y4675D01*
X-8070Y4672D01*
X-8053Y4670D01*
X-8046Y4668D01*
X-8039Y4658D01*
X-8017Y4643D01*
X-7992Y4638D01*
X-7598D01*
X-7573Y4643D01*
X-7552Y4658D01*
X-7537Y4679D01*
X-7532Y4705D01*
Y5059D01*
X-7537Y5084D01*
X-7552Y5106D01*
X-7573Y5120D01*
X-7598Y5125D01*
D02*
G37*
%LPD*%
G36*
X-18385Y27265D02*
X-18386Y27280D01*
X-18392Y27293D01*
X-18402Y27305D01*
X-18416Y27315D01*
X-18434Y27323D01*
X-18455Y27330D01*
X-18481Y27336D01*
X-18511Y27339D01*
X-18544Y27342D01*
X-18561Y27342D01*
X-18627Y27338D01*
X-18631Y27337D01*
X-18633Y27336D01*
Y27546D01*
X-18631Y27545D01*
X-18627Y27544D01*
X-18622Y27543D01*
X-18615Y27542D01*
X-18583Y27540D01*
X-18564Y27540D01*
X-18544Y27540D01*
X-18481Y27546D01*
X-18455Y27552D01*
X-18434Y27559D01*
X-18416Y27567D01*
X-18402Y27577D01*
X-18392Y27589D01*
X-18386Y27602D01*
X-18385Y27617D01*
Y27265D01*
D02*
G37*
G36*
X-15080Y35097D02*
X-15433Y35096D01*
X-15411Y35098D01*
X-15391Y35106D01*
X-15373Y35117D01*
X-15357Y35134D01*
X-15344Y35155D01*
X-15334Y35182D01*
X-15326Y35212D01*
X-15320Y35248D01*
X-15316Y35288D01*
X-15315Y35333D01*
X-15079D01*
X-15080Y35097D01*
D02*
G37*
G36*
X-17696Y33898D02*
X-17692Y33835D01*
X-17688Y33810D01*
X-17682Y33788D01*
X-17676Y33770D01*
X-17669Y33757D01*
X-17660Y33747D01*
X-17650Y33741D01*
X-17639Y33739D01*
X-17951D01*
X-17940Y33741D01*
X-17931Y33747D01*
X-17922Y33757D01*
X-17914Y33770D01*
X-17908Y33788D01*
X-17903Y33810D01*
X-17899Y33835D01*
X-17896Y33865D01*
X-17894Y33936D01*
X-17697D01*
X-17696Y33898D01*
D02*
G37*
G36*
X-17338Y34115D02*
X-17355Y34126D01*
X-17373Y34131D01*
X-17395Y34130D01*
X-17419Y34124D01*
X-17445Y34113D01*
X-17474Y34096D01*
X-17506Y34074D01*
X-17540Y34047D01*
X-17577Y34014D01*
X-17617Y33976D01*
X-17776Y34096D01*
X-17736Y34137D01*
X-17673Y34211D01*
X-17651Y34243D01*
X-17634Y34272D01*
X-17623Y34299D01*
X-17618Y34322D01*
X-17618Y34342D01*
X-17624Y34360D01*
X-17636Y34374D01*
X-17338Y34115D01*
D02*
G37*
G36*
X-6849Y7657D02*
X-6866Y7651D01*
X-6881Y7641D01*
X-6894Y7627D01*
X-6905Y7610D01*
X-6913Y7588D01*
X-6920Y7562D01*
X-6925Y7533D01*
X-6928Y7506D01*
X-6924Y7457D01*
X-6920Y7432D01*
X-6915Y7410D01*
X-6908Y7392D01*
X-6901Y7379D01*
X-6892Y7369D01*
X-6882Y7363D01*
X-6871Y7361D01*
X-7184D01*
X-7173Y7363D01*
X-7163Y7369D01*
X-7154Y7379D01*
X-7147Y7392D01*
X-7140Y7410D01*
X-7135Y7432D01*
X-7131Y7457D01*
X-7128Y7487D01*
X-7127Y7515D01*
X-7132Y7588D01*
X-7135Y7610D01*
X-7140Y7627D01*
X-7145Y7641D01*
X-7150Y7651D01*
X-7157Y7657D01*
X-7164Y7659D01*
X-6831D01*
X-6849Y7657D01*
D02*
G37*
G36*
X-7256Y6023D02*
X-7266Y6019D01*
X-7275Y6011D01*
X-7282Y6000D01*
X-7289Y5985D01*
X-7294Y5968D01*
X-7298Y5947D01*
X-7301Y5923D01*
X-7303Y5896D01*
X-7303Y5866D01*
X-7500D01*
X-7501Y5896D01*
X-7505Y5947D01*
X-7509Y5968D01*
X-7514Y5985D01*
X-7521Y6000D01*
X-7528Y6011D01*
X-7537Y6019D01*
X-7547Y6023D01*
X-7558Y6025D01*
X-7245D01*
X-7256Y6023D01*
D02*
G37*
G36*
X-7461Y5668D02*
X-7499Y5628D01*
X-7559Y5557D01*
X-7581Y5525D01*
X-7598Y5496D01*
X-7609Y5470D01*
X-7615Y5446D01*
X-7616Y5424D01*
X-7611Y5406D01*
X-7601Y5390D01*
X-7858Y5686D01*
X-7844Y5675D01*
X-7827Y5668D01*
X-7806Y5668D01*
X-7783Y5673D01*
X-7757Y5685D01*
X-7727Y5702D01*
X-7695Y5724D01*
X-7660Y5753D01*
X-7580Y5827D01*
X-7461Y5668D01*
D02*
G37*
G36*
X-19429Y6101D02*
X-19469Y6060D01*
X-19532Y5986D01*
X-19554Y5954D01*
X-19571Y5924D01*
X-19582Y5898D01*
X-19588Y5875D01*
X-19587Y5854D01*
X-19581Y5837D01*
X-19569Y5823D01*
X-19866Y6080D01*
X-19850Y6070D01*
X-19832Y6065D01*
X-19810Y6066D01*
X-19786Y6072D01*
X-19760Y6083D01*
X-19731Y6100D01*
X-19699Y6122D01*
X-19664Y6150D01*
X-19588Y6221D01*
X-19429Y6101D01*
D02*
G37*
G36*
X-16747Y5206D02*
X-16748Y5202D01*
X-16749Y5196D01*
X-16750Y5189D01*
X-16751Y5158D01*
X-16752Y5112D01*
X-16949D01*
X-16949Y5129D01*
X-16953Y5202D01*
X-16954Y5206D01*
X-16955Y5208D01*
X-16745D01*
X-16747Y5206D01*
D02*
G37*
G36*
X-16751Y4961D02*
X-16745Y4898D01*
X-16740Y4873D01*
X-16733Y4851D01*
X-16724Y4833D01*
X-16714Y4820D01*
X-16702Y4810D01*
X-16689Y4804D01*
X-16675Y4802D01*
X-17026D01*
X-17012Y4804D01*
X-16998Y4810D01*
X-16987Y4820D01*
X-16977Y4833D01*
X-16968Y4851D01*
X-16961Y4873D01*
X-16956Y4898D01*
X-16952Y4928D01*
X-16950Y4961D01*
X-16949Y4999D01*
X-16752D01*
X-16751Y4961D01*
D02*
G37*
G36*
X-18820Y6048D02*
X-18815Y6035D01*
X-18807Y6023D01*
X-18796Y6013D01*
X-18782Y6004D01*
X-18764Y5997D01*
X-18744Y5991D01*
X-18720Y5987D01*
X-18693Y5985D01*
X-18663Y5984D01*
Y5827D01*
X-18693Y5826D01*
X-18720Y5824D01*
X-18744Y5820D01*
X-18764Y5814D01*
X-18782Y5807D01*
X-18796Y5798D01*
X-18807Y5788D01*
X-18815Y5776D01*
X-18820Y5763D01*
X-18821Y5748D01*
Y6063D01*
X-18820Y6048D01*
D02*
G37*
G36*
X-18462Y5748D02*
X-18464Y5763D01*
X-18468Y5776D01*
X-18476Y5788D01*
X-18487Y5798D01*
X-18502Y5807D01*
X-18519Y5814D01*
X-18540Y5820D01*
X-18564Y5824D01*
X-18591Y5826D01*
X-18621Y5827D01*
Y5984D01*
X-18591Y5985D01*
X-18564Y5987D01*
X-18540Y5991D01*
X-18519Y5997D01*
X-18502Y6004D01*
X-18487Y6013D01*
X-18476Y6023D01*
X-18468Y6035D01*
X-18464Y6048D01*
X-18462Y6063D01*
Y5748D01*
D02*
G37*
G36*
X-16912Y5516D02*
X-16858Y5467D01*
X-16854Y5466D01*
X-16852Y5465D01*
X-17000Y5316D01*
X-17001Y5319D01*
X-17003Y5322D01*
X-17006Y5327D01*
X-17010Y5332D01*
X-17031Y5356D01*
X-17064Y5389D01*
X-16924Y5528D01*
X-16912Y5516D01*
D02*
G37*
G36*
X-8327Y5767D02*
X-8343Y5761D01*
X-8358Y5751D01*
X-8371Y5738D01*
X-8381Y5720D01*
X-8390Y5698D01*
X-8397Y5673D01*
X-8402Y5643D01*
X-8405Y5610D01*
X-8405Y5578D01*
X-8401Y5507D01*
X-8400Y5503D01*
X-8399Y5501D01*
X-8609D01*
X-8608Y5503D01*
X-8607Y5507D01*
X-8606Y5512D01*
X-8605Y5519D01*
X-8603Y5551D01*
X-8603Y5580D01*
X-8603Y5610D01*
X-8606Y5643D01*
X-8611Y5673D01*
X-8618Y5698D01*
X-8627Y5720D01*
X-8637Y5738D01*
X-8650Y5751D01*
X-8665Y5761D01*
X-8681Y5767D01*
X-8699Y5769D01*
X-8308D01*
X-8327Y5767D01*
D02*
G37*
G36*
X-6043Y16603D02*
X-6039Y16530D01*
X-6038Y16527D01*
X-6037Y16524D01*
X-6247D01*
X-6245Y16527D01*
X-6244Y16530D01*
X-6243Y16536D01*
X-6243Y16543D01*
X-6241Y16574D01*
X-6240Y16621D01*
X-6043D01*
X-6043Y16603D01*
D02*
G37*
G36*
X-9393Y4917D02*
X-9405Y4904D01*
X-9454Y4850D01*
X-9456Y4846D01*
X-9456Y4844D01*
X-9605Y4993D01*
X-9602Y4993D01*
X-9599Y4995D01*
X-9594Y4998D01*
X-9589Y5003D01*
X-9565Y5023D01*
X-9532Y5056D01*
X-9393Y4917D01*
D02*
G37*
G36*
X-9076Y5747D02*
X-9076Y5741D01*
X-9075Y5552D01*
X-9272D01*
X-9273Y5590D01*
X-9276Y5623D01*
X-9281Y5653D01*
X-9287Y5678D01*
X-9296Y5700D01*
X-9307Y5718D01*
X-9320Y5732D01*
X-9335Y5741D01*
X-9351Y5747D01*
X-9370Y5749D01*
X-9076D01*
X-9076Y5747D01*
D02*
G37*
G36*
X-14912Y19048D02*
X-14884Y19025D01*
X-14857Y19004D01*
X-14829Y18986D01*
X-14802Y18971D01*
X-14775Y18958D01*
X-14747Y18948D01*
X-14720Y18941D01*
X-14693Y18937D01*
X-14667Y18936D01*
X-15017Y18736D01*
X-15003Y18748D01*
X-14995Y18763D01*
X-14993Y18782D01*
X-14997Y18805D01*
X-15008Y18831D01*
X-15026Y18860D01*
X-15049Y18894D01*
X-15079Y18930D01*
X-15158Y19014D01*
X-14940Y19075D01*
X-14912Y19048D01*
D02*
G37*
G36*
X-15543Y19790D02*
X-15547Y19771D01*
X-15546Y19749D01*
X-15540Y19725D01*
X-15529Y19698D01*
X-15512Y19669D01*
X-15490Y19638D01*
X-15463Y19604D01*
X-15431Y19568D01*
X-15394Y19529D01*
X-15493Y19350D01*
X-15536Y19391D01*
X-15611Y19455D01*
X-15643Y19478D01*
X-15673Y19495D01*
X-15699Y19506D01*
X-15722Y19511D01*
X-15742Y19510D01*
X-15758Y19503D01*
X-15772Y19491D01*
X-15534Y19807D01*
X-15543Y19790D01*
D02*
G37*
G36*
X-22165Y11570D02*
X-22161Y11547D01*
X-22154Y11522D01*
X-22144Y11498D01*
X-22132Y11473D01*
X-22117Y11447D01*
X-22098Y11421D01*
X-22078Y11395D01*
X-22027Y11340D01*
X-22068Y11102D01*
X-22113Y11145D01*
X-22191Y11212D01*
X-22224Y11236D01*
X-22254Y11253D01*
X-22280Y11264D01*
X-22302Y11268D01*
X-22320Y11266D01*
X-22335Y11258D01*
X-22347Y11243D01*
X-22167Y11593D01*
X-22165Y11570D01*
D02*
G37*
G36*
X-21672Y10867D02*
X-21669Y10833D01*
X-21664Y10803D01*
X-21657Y10778D01*
X-21649Y10756D01*
X-21638Y10738D01*
X-21625Y10724D01*
X-21610Y10714D01*
X-21594Y10708D01*
X-21575Y10706D01*
X-21888Y10707D01*
X-21885Y10709D01*
X-21882Y10715D01*
X-21879Y10725D01*
X-21877Y10739D01*
X-21875Y10757D01*
X-21871Y10833D01*
X-21870Y10904D01*
X-21673D01*
X-21672Y10867D01*
D02*
G37*
G36*
X-21102Y5264D02*
X-21099Y5237D01*
X-21095Y5214D01*
X-21090Y5193D01*
X-21083Y5176D01*
X-21074Y5162D01*
X-21064Y5151D01*
X-21053Y5143D01*
X-21040Y5138D01*
X-21025Y5136D01*
X-21339Y5135D01*
X-21324Y5137D01*
X-21310Y5142D01*
X-21298Y5150D01*
X-21288Y5161D01*
X-21280Y5175D01*
X-21272Y5193D01*
X-21267Y5213D01*
X-21263Y5237D01*
X-21261Y5264D01*
X-21260Y5294D01*
X-21102D01*
X-21102Y5264D01*
D02*
G37*
G36*
X-21039Y5512D02*
X-21052Y5507D01*
X-21064Y5499D01*
X-21074Y5488D01*
X-21083Y5474D01*
X-21090Y5456D01*
X-21095Y5436D01*
X-21099Y5412D01*
X-21102Y5386D01*
X-21102Y5356D01*
X-21260D01*
X-21261Y5386D01*
X-21263Y5412D01*
X-21267Y5436D01*
X-21272Y5456D01*
X-21280Y5474D01*
X-21288Y5488D01*
X-21298Y5499D01*
X-21310Y5507D01*
X-21324Y5512D01*
X-21339Y5513D01*
X-21024D01*
X-21039Y5512D01*
D02*
G37*
G36*
X-19853Y11411D02*
X-19825Y11387D01*
X-19798Y11366D01*
X-19770Y11348D01*
X-19743Y11333D01*
X-19715Y11320D01*
X-19688Y11310D01*
X-19661Y11303D01*
X-19634Y11299D01*
X-19608Y11298D01*
X-19998Y11138D01*
X-19981Y11148D01*
X-19972Y11162D01*
X-19969Y11180D01*
X-19973Y11201D01*
X-19984Y11227D01*
X-20001Y11257D01*
X-20025Y11291D01*
X-20056Y11329D01*
X-20138Y11416D01*
X-19881Y11437D01*
X-19853Y11411D01*
D02*
G37*
G36*
X-18086Y11320D02*
X-18103Y11330D01*
X-18121Y11335D01*
X-18143Y11335D01*
X-18167Y11329D01*
X-18193Y11318D01*
X-18222Y11301D01*
X-18254Y11279D01*
X-18288Y11252D01*
X-18325Y11219D01*
X-18365Y11181D01*
X-18524Y11301D01*
X-18484Y11342D01*
X-18421Y11415D01*
X-18399Y11448D01*
X-18382Y11477D01*
X-18371Y11503D01*
X-18366Y11527D01*
X-18366Y11547D01*
X-18373Y11564D01*
X-18385Y11579D01*
X-18086Y11320D01*
D02*
G37*
G36*
X-9586Y11457D02*
X-9580Y11394D01*
X-9574Y11369D01*
X-9567Y11347D01*
X-9559Y11329D01*
X-9549Y11316D01*
X-9537Y11306D01*
X-9524Y11300D01*
X-9509Y11298D01*
X-9861D01*
X-9846Y11300D01*
X-9833Y11306D01*
X-9821Y11316D01*
X-9811Y11329D01*
X-9803Y11347D01*
X-9796Y11369D01*
X-9790Y11394D01*
X-9787Y11424D01*
X-9784Y11457D01*
X-9783Y11495D01*
X-9587D01*
X-9586Y11457D01*
D02*
G37*
G36*
X-18524Y11711D02*
X-18564Y11669D01*
X-18628Y11594D01*
X-18651Y11562D01*
X-18668Y11532D01*
X-18679Y11506D01*
X-18684Y11483D01*
X-18684Y11463D01*
X-18677Y11446D01*
X-18664Y11433D01*
X-18980Y11671D01*
X-18964Y11661D01*
X-18944Y11657D01*
X-18922Y11659D01*
X-18898Y11665D01*
X-18871Y11676D01*
X-18842Y11693D01*
X-18811Y11715D01*
X-18777Y11742D01*
X-18741Y11774D01*
X-18702Y11811D01*
X-18524Y11711D01*
D02*
G37*
G36*
X-20350Y12019D02*
X-20357Y12003D01*
X-20359Y11984D01*
X-20354Y11961D01*
X-20343Y11935D01*
X-20326Y11905D01*
X-20303Y11872D01*
X-20274Y11836D01*
X-20197Y11753D01*
X-20395Y11673D01*
X-20433Y11709D01*
X-20502Y11767D01*
X-20533Y11789D01*
X-20562Y11805D01*
X-20588Y11816D01*
X-20613Y11823D01*
X-20635Y11824D01*
X-20655Y11821D01*
X-20673Y11812D01*
X-20336Y12032D01*
X-20350Y12019D01*
D02*
G37*
G36*
X-10669Y11751D02*
X-10711Y11708D01*
X-10776Y11631D01*
X-10799Y11599D01*
X-10816Y11569D01*
X-10827Y11543D01*
X-10832Y11520D01*
X-10831Y11501D01*
X-10823Y11485D01*
X-10810Y11472D01*
X-11146Y11690D01*
X-11128Y11682D01*
X-11108Y11679D01*
X-11086Y11680D01*
X-11061Y11687D01*
X-11034Y11698D01*
X-11005Y11715D01*
X-10974Y11736D01*
X-10941Y11763D01*
X-10905Y11794D01*
X-10867Y11831D01*
X-10669Y11751D01*
D02*
G37*
G36*
X-8001Y11830D02*
X-8007Y11824D01*
X-8013Y11814D01*
X-8018Y11801D01*
X-8022Y11783D01*
X-8025Y11761D01*
X-8028Y11736D01*
X-8031Y11673D01*
X-8031Y11669D01*
X-8031Y11654D01*
X-8026Y11591D01*
X-8022Y11566D01*
X-8017Y11544D01*
X-8011Y11526D01*
X-8003Y11512D01*
X-7995Y11503D01*
X-7985Y11497D01*
X-7974Y11495D01*
X-8286D01*
X-8275Y11497D01*
X-8265Y11503D01*
X-8257Y11512D01*
X-8249Y11526D01*
X-8243Y11544D01*
X-8238Y11566D01*
X-8234Y11591D01*
X-8231Y11621D01*
X-8229Y11666D01*
X-8229Y11673D01*
X-8232Y11706D01*
X-8237Y11736D01*
X-8244Y11761D01*
X-8253Y11783D01*
X-8264Y11801D01*
X-8277Y11814D01*
X-8291Y11824D01*
X-8308Y11830D01*
X-8327Y11832D01*
X-7993D01*
X-8001Y11830D01*
D02*
G37*
G36*
X-19054Y11360D02*
X-19056Y11371D01*
X-19062Y11380D01*
X-19072Y11389D01*
X-19085Y11397D01*
X-19103Y11403D01*
X-19125Y11408D01*
X-19150Y11412D01*
X-19180Y11415D01*
X-19251Y11417D01*
Y11614D01*
X-19213Y11615D01*
X-19150Y11619D01*
X-19125Y11623D01*
X-19103Y11629D01*
X-19085Y11635D01*
X-19072Y11642D01*
X-19062Y11651D01*
X-19056Y11661D01*
X-19054Y11672D01*
Y11360D01*
D02*
G37*
G36*
X-17713Y11791D02*
X-17640Y11728D01*
X-17607Y11705D01*
X-17578Y11689D01*
X-17552Y11677D01*
X-17528Y11672D01*
X-17508Y11672D01*
X-17491Y11679D01*
X-17476Y11690D01*
X-17734Y11394D01*
X-17724Y11410D01*
X-17719Y11428D01*
X-17719Y11450D01*
X-17725Y11474D01*
X-17737Y11500D01*
X-17753Y11529D01*
X-17776Y11561D01*
X-17803Y11595D01*
X-17874Y11672D01*
X-17755Y11831D01*
X-17713Y11791D01*
D02*
G37*
G36*
X-8779Y11654D02*
X-8774Y11591D01*
X-8770Y11566D01*
X-8765Y11544D01*
X-8759Y11526D01*
X-8751Y11512D01*
X-8743Y11503D01*
X-8733Y11497D01*
X-8722Y11495D01*
X-9034D01*
X-9023Y11497D01*
X-9013Y11503D01*
X-9005Y11512D01*
X-8997Y11526D01*
X-8991Y11544D01*
X-8986Y11566D01*
X-8982Y11591D01*
X-8979Y11621D01*
X-8976Y11692D01*
X-8780D01*
X-8779Y11654D01*
D02*
G37*
G36*
X-17398Y11299D02*
X-17411Y11293D01*
X-17423Y11283D01*
X-17433Y11269D01*
X-17441Y11251D01*
X-17448Y11230D01*
X-17454Y11204D01*
X-17456Y11184D01*
X-17454Y11158D01*
X-17448Y11133D01*
X-17441Y11111D01*
X-17433Y11093D01*
X-17423Y11079D01*
X-17411Y11070D01*
X-17398Y11064D01*
X-17383Y11062D01*
X-17735D01*
X-17720Y11064D01*
X-17707Y11070D01*
X-17695Y11079D01*
X-17685Y11093D01*
X-17677Y11111D01*
X-17670Y11133D01*
X-17664Y11158D01*
X-17662Y11178D01*
X-17664Y11204D01*
X-17670Y11230D01*
X-17677Y11251D01*
X-17685Y11269D01*
X-17695Y11283D01*
X-17707Y11293D01*
X-17720Y11299D01*
X-17735Y11301D01*
X-17383D01*
X-17398Y11299D01*
D02*
G37*
G36*
X-18000Y10803D02*
X-18003Y10795D01*
X-18004Y10785D01*
X-18001Y10773D01*
X-17996Y10760D01*
X-17987Y10745D01*
X-17976Y10729D01*
X-17962Y10711D01*
X-17924Y10671D01*
X-18013Y10621D01*
X-18032Y10639D01*
X-18067Y10669D01*
X-18083Y10680D01*
X-18098Y10688D01*
X-18111Y10693D01*
X-18123Y10697D01*
X-18134Y10697D01*
X-18144Y10695D01*
X-18152Y10690D01*
X-17993Y10810D01*
X-18000Y10803D01*
D02*
G37*
G36*
X-24723Y10631D02*
X-24725Y10642D01*
X-24731Y10652D01*
X-24741Y10661D01*
X-24755Y10668D01*
X-24772Y10675D01*
X-24794Y10680D01*
X-24820Y10684D01*
X-24849Y10687D01*
X-24920Y10689D01*
Y10886D01*
X-24883Y10886D01*
X-24820Y10891D01*
X-24794Y10895D01*
X-24772Y10900D01*
X-24755Y10907D01*
X-24741Y10914D01*
X-24731Y10923D01*
X-24725Y10933D01*
X-24723Y10944D01*
Y10631D01*
D02*
G37*
G36*
X-20552Y10966D02*
X-20546Y10949D01*
X-20536Y10934D01*
X-20522Y10921D01*
X-20504Y10910D01*
X-20482Y10902D01*
X-20456Y10895D01*
X-20427Y10890D01*
X-20393Y10887D01*
X-20356Y10886D01*
Y10689D01*
X-20552Y10769D01*
X-20554Y10984D01*
X-20552Y10966D01*
D02*
G37*
G36*
X-23070Y10218D02*
X-23072Y10236D01*
X-23077Y10253D01*
X-23087Y10267D01*
X-23101Y10280D01*
X-23119Y10291D01*
X-23140Y10299D01*
X-23166Y10306D01*
X-23196Y10311D01*
X-23229Y10314D01*
X-23232Y10314D01*
X-23291Y10310D01*
X-23316Y10306D01*
X-23338Y10301D01*
X-23356Y10294D01*
X-23369Y10287D01*
X-23379Y10278D01*
X-23385Y10268D01*
X-23387Y10257D01*
Y10570D01*
X-23385Y10559D01*
X-23379Y10549D01*
X-23369Y10540D01*
X-23356Y10533D01*
X-23338Y10526D01*
X-23316Y10521D01*
X-23291Y10517D01*
X-23261Y10514D01*
X-23223Y10513D01*
X-23166Y10517D01*
X-23140Y10521D01*
X-23119Y10526D01*
X-23101Y10533D01*
X-23087Y10540D01*
X-23077Y10549D01*
X-23072Y10559D01*
X-23070Y10570D01*
Y10218D01*
D02*
G37*
G36*
X-11755Y10428D02*
X-11767Y10416D01*
X-11816Y10362D01*
X-11818Y10358D01*
X-11819Y10356D01*
X-11967Y10504D01*
X-11965Y10505D01*
X-11961Y10507D01*
X-11957Y10510D01*
X-11951Y10514D01*
X-11928Y10535D01*
X-11894Y10568D01*
X-11755Y10428D01*
D02*
G37*
G36*
X-10491Y10159D02*
X-10493Y10177D01*
X-10499Y10194D01*
X-10509Y10208D01*
X-10522Y10221D01*
X-10540Y10232D01*
X-10562Y10240D01*
X-10587Y10247D01*
X-10617Y10252D01*
X-10650Y10255D01*
X-10682Y10256D01*
X-10753Y10252D01*
X-10757Y10251D01*
X-10759Y10249D01*
Y10459D01*
X-10757Y10458D01*
X-10753Y10457D01*
X-10748Y10456D01*
X-10741Y10455D01*
X-10709Y10453D01*
X-10680Y10453D01*
X-10650Y10454D01*
X-10617Y10457D01*
X-10587Y10461D01*
X-10562Y10468D01*
X-10540Y10477D01*
X-10522Y10488D01*
X-10509Y10500D01*
X-10499Y10515D01*
X-10493Y10531D01*
X-10491Y10550D01*
Y10159D01*
D02*
G37*
G36*
X-15235Y11031D02*
X-15229Y11018D01*
X-15219Y11001D01*
X-15204Y10980D01*
X-15162Y10929D01*
X-15104Y10866D01*
X-15029Y10789D01*
X-15139Y10481D01*
X-15201Y10541D01*
X-15311Y10634D01*
X-15359Y10668D01*
X-15403Y10693D01*
X-15442Y10710D01*
X-15478Y10718D01*
X-15508Y10718D01*
X-15535Y10709D01*
X-15557Y10691D01*
X-15238Y11042D01*
X-15235Y11031D01*
D02*
G37*
G36*
X-8730Y11461D02*
X-8732Y11439D01*
X-8729Y11416D01*
X-8722Y11391D01*
X-8710Y11364D01*
X-8694Y11335D01*
X-8673Y11305D01*
X-8647Y11272D01*
X-8617Y11238D01*
X-8583Y11202D01*
X-8623Y10964D01*
X-8668Y11008D01*
X-8747Y11075D01*
X-8780Y11099D01*
X-8810Y11117D01*
X-8836Y11127D01*
X-8858Y11131D01*
X-8876Y11129D01*
X-8891Y11120D01*
X-8902Y11105D01*
X-8723Y11480D01*
X-8730Y11461D01*
D02*
G37*
G36*
X-23460Y11005D02*
X-23478Y11015D01*
X-23497Y11019D01*
X-23519Y11018D01*
X-23543Y11012D01*
X-23570Y11000D01*
X-23599Y10984D01*
X-23630Y10962D01*
X-23664Y10935D01*
X-23700Y10903D01*
X-23739Y10866D01*
X-23917Y10966D01*
X-23877Y11008D01*
X-23813Y11083D01*
X-23790Y11115D01*
X-23773Y11145D01*
X-23762Y11171D01*
X-23757Y11194D01*
X-23758Y11214D01*
X-23765Y11231D01*
X-23778Y11244D01*
X-23460Y11005D01*
D02*
G37*
G36*
X-10491Y10907D02*
X-10663Y10854D01*
Y10846D01*
X-10680Y10846D01*
X-10753Y10842D01*
X-10757Y10841D01*
X-10759Y10840D01*
Y11050D01*
X-10757Y11049D01*
X-10753Y11048D01*
X-10748Y11047D01*
X-10741Y11046D01*
X-10709Y11044D01*
X-10680Y11044D01*
X-10650Y11044D01*
X-10617Y11047D01*
X-10587Y11052D01*
X-10561Y11059D01*
X-10539Y11068D01*
X-10522Y11079D01*
X-10508Y11092D01*
X-10498Y11106D01*
X-10492Y11123D01*
X-10490Y11142D01*
X-10491Y10907D01*
D02*
G37*
G36*
X-18524Y11022D02*
X-18567Y10977D01*
X-18634Y10899D01*
X-18658Y10866D01*
X-18676Y10836D01*
X-18686Y10810D01*
X-18691Y10788D01*
X-18688Y10769D01*
X-18679Y10755D01*
X-18664Y10744D01*
X-19040Y10923D01*
X-19020Y10916D01*
X-18998Y10914D01*
X-18975Y10917D01*
X-18950Y10924D01*
X-18923Y10936D01*
X-18894Y10952D01*
X-18864Y10973D01*
X-18831Y10998D01*
X-18797Y11028D01*
X-18761Y11063D01*
X-18524Y11022D01*
D02*
G37*
G36*
X-20865Y11183D02*
X-20795Y11124D01*
X-20764Y11102D01*
X-20735Y11086D01*
X-20708Y11074D01*
X-20684Y11068D01*
X-20662Y11067D01*
X-20643Y11071D01*
X-20626Y11080D01*
X-20942Y10842D01*
X-20930Y10856D01*
X-20923Y10872D01*
X-20922Y10892D01*
X-20927Y10915D01*
X-20938Y10942D01*
X-20955Y10971D01*
X-20978Y11004D01*
X-21007Y11039D01*
X-21083Y11121D01*
X-20904Y11221D01*
X-20865Y11183D01*
D02*
G37*
G36*
X-13299Y11227D02*
X-13289Y11210D01*
X-13273Y11196D01*
X-13252Y11183D01*
X-13225Y11172D01*
X-13193Y11164D01*
X-13155Y11157D01*
X-13111Y11152D01*
X-13007Y11148D01*
X-12979Y10951D01*
X-13036Y10950D01*
X-13133Y10942D01*
X-13172Y10935D01*
X-13205Y10927D01*
X-13231Y10916D01*
X-13251Y10903D01*
X-13265Y10889D01*
X-13273Y10872D01*
X-13275Y10853D01*
X-13303Y11245D01*
X-13299Y11227D01*
D02*
G37*
G36*
X-8843Y13228D02*
X-8846Y13222D01*
X-8849Y13212D01*
X-8852Y13198D01*
X-8854Y13180D01*
X-8855Y13153D01*
X-8853Y13127D01*
X-8849Y13101D01*
X-8844Y13079D01*
X-8837Y13062D01*
X-8830Y13048D01*
X-8821Y13038D01*
X-8811Y13032D01*
X-8801Y13030D01*
X-9113D01*
X-9102Y13032D01*
X-9092Y13038D01*
X-9083Y13048D01*
X-9076Y13062D01*
X-9070Y13079D01*
X-9064Y13101D01*
X-9062Y13119D01*
X-9064Y13133D01*
X-9071Y13159D01*
X-9080Y13180D01*
X-9091Y13198D01*
X-9103Y13212D01*
X-9118Y13222D01*
X-9135Y13228D01*
X-9154Y13230D01*
X-8840D01*
X-8843Y13228D01*
D02*
G37*
G36*
X-17924Y13070D02*
X-17944Y13048D01*
X-17976Y13011D01*
X-17988Y12995D01*
X-17996Y12980D01*
X-18002Y12967D01*
X-18005Y12955D01*
X-18004Y12945D01*
X-18001Y12937D01*
X-17995Y12930D01*
X-18152Y13049D01*
X-18144Y13044D01*
X-18134Y13042D01*
X-18123Y13043D01*
X-18111Y13046D01*
X-18098Y13052D01*
X-18083Y13060D01*
X-18068Y13071D01*
X-18051Y13085D01*
X-18013Y13119D01*
X-17924Y13070D01*
D02*
G37*
G36*
X-9820Y13327D02*
X-9821Y13336D01*
X-9824Y13344D01*
X-9829Y13352D01*
X-9836Y13358D01*
X-9845Y13364D01*
X-9856Y13368D01*
X-9869Y13372D01*
X-9884Y13374D01*
X-9901Y13375D01*
X-9920Y13376D01*
Y13474D01*
X-9901Y13475D01*
X-9884Y13476D01*
X-9869Y13479D01*
X-9856Y13482D01*
X-9845Y13487D01*
X-9836Y13492D01*
X-9829Y13499D01*
X-9824Y13506D01*
X-9821Y13514D01*
X-9820Y13524D01*
Y13327D01*
D02*
G37*
G36*
X-11157Y12816D02*
X-11174Y12827D01*
X-11192Y12831D01*
X-11214Y12831D01*
X-11238Y12825D01*
X-11264Y12814D01*
X-11293Y12797D01*
X-11325Y12775D01*
X-11359Y12748D01*
X-11396Y12715D01*
X-11436Y12677D01*
X-11595Y12797D01*
X-11555Y12838D01*
X-11492Y12911D01*
X-11470Y12944D01*
X-11453Y12973D01*
X-11442Y12999D01*
X-11437Y13023D01*
X-11437Y13043D01*
X-11443Y13061D01*
X-11455Y13075D01*
X-11157Y12816D01*
D02*
G37*
G36*
X-15603Y12549D02*
X-15586Y12531D01*
X-15502Y12450D01*
X-15509Y12444D01*
X-15492Y12425D01*
X-15481Y12405D01*
X-15482Y12397D01*
X-15482Y12378D01*
X-15478Y12334D01*
X-15474Y12313D01*
X-15470Y12294D01*
X-15465Y12276D01*
X-15458Y12259D01*
X-15451Y12243D01*
X-15443Y12229D01*
X-15433Y12215D01*
X-15669D01*
X-15660Y12229D01*
X-15651Y12243D01*
X-15644Y12259D01*
X-15638Y12276D01*
X-15632Y12294D01*
X-15628Y12313D01*
X-15624Y12334D01*
X-15622Y12355D01*
X-15620Y12402D01*
X-15609D01*
X-15615Y12466D01*
X-15697Y12354D01*
X-15691Y12366D01*
X-15688Y12379D01*
X-15689Y12395D01*
X-15693Y12411D01*
X-15701Y12430D01*
X-15712Y12450D01*
X-15727Y12471D01*
X-15745Y12494D01*
X-15767Y12519D01*
X-15793Y12546D01*
X-15690Y12599D01*
X-15691Y12604D01*
X-15685Y12608D01*
X-15678Y12605D01*
X-15665Y12613D01*
X-15603Y12549D01*
D02*
G37*
G36*
X-8139Y12893D02*
X-8138Y12876D01*
X-8135Y12861D01*
X-8132Y12848D01*
X-8127Y12837D01*
X-8122Y12828D01*
X-8116Y12821D01*
X-8108Y12816D01*
X-8100Y12813D01*
X-8091Y12812D01*
X-8287D01*
X-8278Y12813D01*
X-8270Y12816D01*
X-8262Y12821D01*
X-8256Y12828D01*
X-8250Y12837D01*
X-8246Y12848D01*
X-8243Y12861D01*
X-8240Y12876D01*
X-8239Y12893D01*
X-8238Y12912D01*
X-8140D01*
X-8139Y12893D01*
D02*
G37*
G36*
X-18736Y12816D02*
X-18753Y12826D01*
X-18773Y12830D01*
X-18794Y12829D01*
X-18819Y12823D01*
X-18845Y12811D01*
X-18874Y12795D01*
X-18906Y12773D01*
X-18940Y12746D01*
X-18976Y12714D01*
X-19014Y12677D01*
X-19193Y12777D01*
X-19152Y12819D01*
X-19089Y12894D01*
X-19066Y12926D01*
X-19049Y12956D01*
X-19038Y12982D01*
X-19033Y13005D01*
X-19034Y13025D01*
X-19041Y13042D01*
X-19054Y13055D01*
X-18736Y12816D01*
D02*
G37*
G36*
X-23210Y14538D02*
X-23207Y14530D01*
X-23202Y14522D01*
X-23195Y14516D01*
X-23186Y14510D01*
X-23175Y14506D01*
X-23162Y14502D01*
X-23147Y14500D01*
X-23130Y14499D01*
X-23112Y14498D01*
Y14400D01*
X-23130Y14399D01*
X-23147Y14398D01*
X-23162Y14395D01*
X-23175Y14392D01*
X-23186Y14387D01*
X-23195Y14382D01*
X-23202Y14375D01*
X-23207Y14368D01*
X-23210Y14360D01*
X-23211Y14350D01*
Y14547D01*
X-23210Y14538D01*
D02*
G37*
G36*
X-24114Y14746D02*
X-24043Y14687D01*
X-24012Y14665D01*
X-23983Y14649D01*
X-23956Y14637D01*
X-23932Y14631D01*
X-23910Y14630D01*
X-23891Y14634D01*
X-23874Y14643D01*
X-24190Y14405D01*
X-24178Y14419D01*
X-24171Y14435D01*
X-24170Y14455D01*
X-24175Y14478D01*
X-24186Y14505D01*
X-24203Y14534D01*
X-24226Y14567D01*
X-24255Y14602D01*
X-24331Y14684D01*
X-24152Y14784D01*
X-24114Y14746D01*
D02*
G37*
G36*
X-21810Y14745D02*
X-21908Y14715D01*
Y14813D01*
X-21889Y14813D01*
X-21872Y14815D01*
X-21858Y14817D01*
X-21845Y14821D01*
X-21834Y14825D01*
X-21825Y14831D01*
X-21818Y14837D01*
X-21813Y14844D01*
X-21810Y14853D01*
X-21809Y14862D01*
X-21810Y14745D01*
D02*
G37*
G36*
X-25567Y14743D02*
X-25492Y14679D01*
X-25459Y14656D01*
X-25430Y14639D01*
X-25404Y14628D01*
X-25380Y14623D01*
X-25361Y14624D01*
X-25344Y14630D01*
X-25331Y14643D01*
X-25568Y14327D01*
X-25559Y14344D01*
X-25555Y14363D01*
X-25556Y14385D01*
X-25562Y14409D01*
X-25574Y14436D01*
X-25590Y14465D01*
X-25612Y14496D01*
X-25639Y14530D01*
X-25671Y14566D01*
X-25709Y14605D01*
X-25609Y14784D01*
X-25567Y14743D01*
D02*
G37*
G36*
X-20707Y13210D02*
X-20899Y13170D01*
Y13169D01*
X-20916Y13169D01*
X-20989Y13165D01*
X-20993Y13164D01*
X-20995Y13163D01*
Y13373D01*
X-20993Y13371D01*
X-20989Y13370D01*
X-20984Y13369D01*
X-20977Y13369D01*
X-20945Y13367D01*
X-20903Y13366D01*
X-20867Y13367D01*
X-20833Y13370D01*
X-20803Y13375D01*
X-20778Y13382D01*
X-20756Y13391D01*
X-20738Y13402D01*
X-20724Y13414D01*
X-20714Y13429D01*
X-20708Y13446D01*
X-20706Y13465D01*
X-20707Y13210D01*
D02*
G37*
G36*
X-21707Y13592D02*
X-21708Y13588D01*
X-21709Y13582D01*
X-21710Y13575D01*
X-21712Y13544D01*
X-21713Y13498D01*
X-21909D01*
X-21910Y13515D01*
X-21914Y13588D01*
X-21915Y13592D01*
X-21916Y13594D01*
X-21706D01*
X-21707Y13592D01*
D02*
G37*
G36*
X-24594Y14404D02*
X-24596Y14394D01*
X-24595Y14383D01*
X-24592Y14371D01*
X-24586Y14358D01*
X-24578Y14343D01*
X-24567Y14328D01*
X-24553Y14311D01*
X-24518Y14273D01*
X-24568Y14184D01*
X-24589Y14204D01*
X-24627Y14236D01*
X-24643Y14248D01*
X-24658Y14256D01*
X-24671Y14262D01*
X-24683Y14265D01*
X-24692Y14264D01*
X-24701Y14261D01*
X-24707Y14254D01*
X-24589Y14412D01*
X-24594Y14404D01*
D02*
G37*
G36*
X-14331Y12598D02*
X-15512D01*
X-16181Y13268D01*
Y14488D01*
X-14331D01*
Y12598D01*
D02*
G37*
G36*
X-21004Y12363D02*
X-20998Y12274D01*
X-20994Y12253D01*
X-20990Y12235D01*
X-20985Y12221D01*
X-20980Y12211D01*
X-20973Y12205D01*
X-20966Y12203D01*
X-21299Y12202D01*
X-21281Y12204D01*
X-21264Y12210D01*
X-21249Y12220D01*
X-21236Y12234D01*
X-21225Y12252D01*
X-21217Y12274D01*
X-21210Y12299D01*
X-21205Y12329D01*
X-21202Y12363D01*
X-21201Y12400D01*
X-21004D01*
X-21004Y12363D01*
D02*
G37*
G36*
X-22107Y12383D02*
X-22112Y12320D01*
X-22116Y12294D01*
X-22121Y12272D01*
X-22128Y12255D01*
X-22136Y12241D01*
X-22145Y12231D01*
X-22155Y12225D01*
X-22167Y12223D01*
X-22402Y12222D01*
X-22383Y12224D01*
X-22366Y12230D01*
X-22351Y12240D01*
X-22339Y12254D01*
X-22328Y12272D01*
X-22319Y12293D01*
X-22312Y12319D01*
X-22307Y12349D01*
X-22304Y12382D01*
X-22303Y12420D01*
X-22106D01*
X-22107Y12383D01*
D02*
G37*
G36*
X-10138Y12440D02*
X-10154Y12434D01*
X-10169Y12425D01*
X-10182Y12411D01*
X-10192Y12393D01*
X-10201Y12371D01*
X-10208Y12346D01*
X-10213Y12316D01*
X-10216Y12283D01*
X-10217Y12245D01*
X-10413D01*
X-10414Y12283D01*
X-10417Y12316D01*
X-10422Y12346D01*
X-10429Y12371D01*
X-10438Y12393D01*
X-10448Y12411D01*
X-10461Y12425D01*
X-10476Y12434D01*
X-10492Y12440D01*
X-10511Y12442D01*
X-10119D01*
X-10138Y12440D01*
D02*
G37*
G36*
X-14223Y12343D02*
X-14220Y12335D01*
X-14215Y12327D01*
X-14208Y12321D01*
X-14199Y12315D01*
X-14188Y12311D01*
X-14175Y12308D01*
X-14160Y12305D01*
X-14143Y12304D01*
X-14124Y12303D01*
Y12205D01*
X-14143Y12204D01*
X-14160Y12203D01*
X-14175Y12200D01*
X-14188Y12197D01*
X-14199Y12192D01*
X-14208Y12187D01*
X-14215Y12181D01*
X-14220Y12173D01*
X-14223Y12165D01*
X-14224Y12156D01*
Y12352D01*
X-14223Y12343D01*
D02*
G37*
G36*
X-9248Y11695D02*
X-9261Y11708D01*
X-9278Y11715D01*
X-9298Y11716D01*
X-9321Y11711D01*
X-9347Y11700D01*
X-9377Y11683D01*
X-9409Y11660D01*
X-9445Y11631D01*
X-9526Y11555D01*
X-9626Y11734D01*
X-9589Y11772D01*
X-9530Y11842D01*
X-9508Y11874D01*
X-9491Y11903D01*
X-9480Y11930D01*
X-9473Y11954D01*
X-9472Y11976D01*
X-9476Y11995D01*
X-9486Y12012D01*
X-9248Y11695D01*
D02*
G37*
G36*
X-13403Y11713D02*
X-13404Y11722D01*
X-13407Y11730D01*
X-13412Y11738D01*
X-13419Y11744D01*
X-13428Y11750D01*
X-13439Y11754D01*
X-13452Y11757D01*
X-13467Y11760D01*
X-13484Y11761D01*
X-13503Y11762D01*
Y11860D01*
X-13484Y11861D01*
X-13467Y11862D01*
X-13452Y11865D01*
X-13439Y11868D01*
X-13428Y11873D01*
X-13419Y11878D01*
X-13412Y11884D01*
X-13407Y11892D01*
X-13404Y11900D01*
X-13403Y11909D01*
Y11713D01*
D02*
G37*
G36*
X-21707Y12174D02*
X-21708Y12170D01*
X-21709Y12165D01*
X-21710Y12158D01*
X-21712Y12127D01*
X-21713Y12080D01*
X-21909D01*
X-21910Y12097D01*
X-21914Y12170D01*
X-21915Y12174D01*
X-21916Y12176D01*
X-21706D01*
X-21707Y12174D01*
D02*
G37*
G36*
X-9556Y12996D02*
X-9558Y12975D01*
X-9556Y12952D01*
X-9549Y12926D01*
X-9537Y12900D01*
X-9521Y12871D01*
X-9500Y12840D01*
X-9474Y12808D01*
X-9444Y12774D01*
X-9409Y12738D01*
X-9450Y12500D01*
X-9495Y12543D01*
X-9573Y12611D01*
X-9607Y12635D01*
X-9637Y12652D01*
X-9663Y12663D01*
X-9685Y12667D01*
X-9703Y12665D01*
X-9718Y12656D01*
X-9729Y12640D01*
X-9550Y13016D01*
X-9556Y12996D01*
D02*
G37*
G36*
X-22101Y12607D02*
X-22102Y12604D01*
X-22103Y12598D01*
X-22104Y12591D01*
X-22106Y12560D01*
X-22106Y12513D01*
X-22303D01*
X-22303Y12530D01*
X-22307Y12604D01*
X-22308Y12607D01*
X-22310Y12609D01*
X-22100D01*
X-22101Y12607D01*
D02*
G37*
G36*
X-20999D02*
X-21000Y12604D01*
X-21001Y12598D01*
X-21002Y12591D01*
X-21003Y12560D01*
X-21004Y12513D01*
X-21201D01*
X-21201Y12530D01*
X-21205Y12604D01*
X-21206Y12607D01*
X-21207Y12609D01*
X-20997D01*
X-20999Y12607D01*
D02*
G37*
G36*
X-20315Y12777D02*
X-20309Y12760D01*
X-20299Y12745D01*
X-20286Y12732D01*
X-20268Y12721D01*
X-20246Y12713D01*
X-20220Y12706D01*
X-20191Y12701D01*
X-20157Y12698D01*
X-20154Y12698D01*
X-20095Y12702D01*
X-20070Y12706D01*
X-20048Y12711D01*
X-20030Y12718D01*
X-20016Y12725D01*
X-20007Y12734D01*
X-20001Y12744D01*
X-19999Y12755D01*
Y12442D01*
X-20001Y12453D01*
X-20007Y12463D01*
X-20016Y12472D01*
X-20030Y12479D01*
X-20048Y12486D01*
X-20070Y12491D01*
X-20095Y12495D01*
X-20125Y12498D01*
X-20196Y12500D01*
Y12531D01*
X-20316Y12580D01*
X-20317Y12795D01*
X-20315Y12777D01*
D02*
G37*
G36*
X-18385Y12068D02*
X-18386Y12079D01*
X-18392Y12089D01*
X-18402Y12098D01*
X-18416Y12105D01*
X-18434Y12112D01*
X-18455Y12117D01*
X-18481Y12121D01*
X-18511Y12124D01*
X-18522Y12124D01*
X-18566Y12121D01*
X-18592Y12117D01*
X-18614Y12112D01*
X-18631Y12105D01*
X-18645Y12098D01*
X-18655Y12089D01*
X-18661Y12079D01*
X-18663Y12068D01*
Y12381D01*
X-18661Y12370D01*
X-18655Y12360D01*
X-18645Y12351D01*
X-18631Y12344D01*
X-18614Y12337D01*
X-18592Y12332D01*
X-18566Y12328D01*
X-18537Y12325D01*
X-18531Y12325D01*
X-18511Y12327D01*
X-18481Y12332D01*
X-18455Y12338D01*
X-18434Y12347D01*
X-18416Y12358D01*
X-18402Y12370D01*
X-18392Y12385D01*
X-18386Y12402D01*
X-18385Y12420D01*
Y12068D01*
D02*
G37*
G36*
X-10925Y12479D02*
X-10969Y12434D01*
X-11036Y12356D01*
X-11060Y12322D01*
X-11077Y12292D01*
X-11088Y12267D01*
X-11092Y12244D01*
X-11090Y12226D01*
X-11081Y12211D01*
X-11065Y12201D01*
X-11441Y12379D01*
X-11421Y12373D01*
X-11400Y12371D01*
X-11377Y12373D01*
X-11352Y12380D01*
X-11325Y12392D01*
X-11296Y12409D01*
X-11265Y12429D01*
X-11233Y12455D01*
X-11199Y12485D01*
X-11163Y12520D01*
X-10925Y12479D01*
D02*
G37*
G36*
X-21713Y12470D02*
X-21708Y12396D01*
X-21707Y12393D01*
X-21706Y12391D01*
X-21916D01*
X-21915Y12393D01*
X-21914Y12396D01*
X-21913Y12402D01*
X-21912Y12409D01*
X-21910Y12440D01*
X-21909Y12487D01*
X-21713D01*
X-21713Y12470D01*
D02*
G37*
G36*
X-9449Y6753D02*
X-9443Y6736D01*
X-9433Y6721D01*
X-9419Y6709D01*
X-9402Y6698D01*
X-9380Y6689D01*
X-9354Y6682D01*
X-9324Y6677D01*
X-9291Y6674D01*
X-9253Y6673D01*
Y6476D01*
X-9291Y6476D01*
X-9432Y6467D01*
X-9442Y6465D01*
X-9448Y6461D01*
X-9450Y6458D01*
X-9451Y6772D01*
X-9449Y6753D01*
D02*
G37*
G36*
X-11318Y7007D02*
X-11335Y7001D01*
X-11349Y6991D01*
X-11362Y6978D01*
X-11373Y6960D01*
X-11382Y6938D01*
X-11389Y6913D01*
X-11394Y6883D01*
X-11397Y6850D01*
X-11398Y6812D01*
X-11594D01*
X-11593Y7009D01*
X-11299D01*
X-11318Y7007D01*
D02*
G37*
G36*
X-9861Y7403D02*
X-9824D01*
X-9831Y7401D01*
X-9838Y7395D01*
X-9844Y7385D01*
X-9848Y7371D01*
X-9853Y7354D01*
X-9854Y7348D01*
X-9844Y7321D01*
X-9831Y7295D01*
X-9813Y7274D01*
X-9791Y7256D01*
X-9766Y7242D01*
X-9736Y7232D01*
X-9703Y7226D01*
X-9665Y7224D01*
X-9723Y7028D01*
X-9762Y7026D01*
X-9799Y7022D01*
X-9836Y7015D01*
X-9871Y7005D01*
X-9905Y6993D01*
X-9938Y6977D01*
X-9970Y6959D01*
X-10001Y6938D01*
X-10031Y6915D01*
X-10059Y6888D01*
X-10198Y7028D01*
X-10172Y7056D01*
X-10148Y7086D01*
X-10127Y7116D01*
X-10109Y7148D01*
X-10094Y7181D01*
X-10081Y7215D01*
X-10072Y7251D01*
X-10065Y7287D01*
X-10064Y7290D01*
X-10066Y7306D01*
X-10071Y7332D01*
X-10078Y7354D01*
X-10087Y7371D01*
X-10097Y7385D01*
X-10109Y7395D01*
X-10122Y7401D01*
X-10136Y7403D01*
X-9925D01*
X-9862Y7421D01*
X-9861Y7403D01*
D02*
G37*
G36*
X-8699Y6399D02*
X-8701Y6414D01*
X-8707Y6427D01*
X-8717Y6438D01*
X-8731Y6449D01*
X-8749Y6457D01*
X-8770Y6464D01*
X-8796Y6469D01*
X-8825Y6473D01*
X-8859Y6476D01*
X-8896Y6476D01*
Y6673D01*
X-8859Y6674D01*
X-8796Y6680D01*
X-8770Y6686D01*
X-8749Y6693D01*
X-8731Y6701D01*
X-8717Y6711D01*
X-8707Y6723D01*
X-8701Y6736D01*
X-8699Y6751D01*
Y6399D01*
D02*
G37*
G36*
X-10917Y6365D02*
X-10921Y6346D01*
X-10920Y6324D01*
X-10914Y6300D01*
X-10903Y6273D01*
X-10886Y6244D01*
X-10864Y6213D01*
X-10837Y6179D01*
X-10805Y6142D01*
X-10768Y6104D01*
X-10867Y5925D01*
X-10910Y5966D01*
X-10985Y6030D01*
X-11017Y6053D01*
X-11047Y6070D01*
X-11073Y6081D01*
X-11096Y6086D01*
X-11116Y6085D01*
X-11132Y6078D01*
X-11146Y6065D01*
X-10908Y6382D01*
X-10917Y6365D01*
D02*
G37*
G36*
X-23070Y7383D02*
X-23072Y7387D01*
X-23077Y7390D01*
X-23087Y7393D01*
X-23101Y7395D01*
X-23119Y7397D01*
X-23196Y7401D01*
X-23221Y7401D01*
X-23228Y7401D01*
X-23291Y7396D01*
X-23316Y7392D01*
X-23338Y7387D01*
X-23356Y7381D01*
X-23369Y7373D01*
X-23379Y7365D01*
X-23385Y7355D01*
X-23387Y7344D01*
Y7656D01*
X-23385Y7645D01*
X-23379Y7635D01*
X-23369Y7627D01*
X-23356Y7619D01*
X-23338Y7613D01*
X-23316Y7608D01*
X-23291Y7604D01*
X-23261Y7601D01*
X-23227Y7600D01*
X-23195Y7602D01*
X-23166Y7607D01*
X-23140Y7614D01*
X-23118Y7623D01*
X-23100Y7634D01*
X-23086Y7647D01*
X-23076Y7661D01*
X-23070Y7678D01*
X-23068Y7697D01*
X-23070Y7383D01*
D02*
G37*
G36*
X-25078Y8035D02*
X-25072Y8022D01*
X-25062Y8010D01*
X-25049Y8000D01*
X-25031Y7992D01*
X-25009Y7985D01*
X-24984Y7979D01*
X-24954Y7976D01*
X-24921Y7973D01*
X-24899Y7973D01*
X-24883Y7973D01*
X-24820Y7978D01*
X-24794Y7982D01*
X-24772Y7987D01*
X-24755Y7993D01*
X-24741Y8001D01*
X-24731Y8009D01*
X-24725Y8019D01*
X-24723Y8030D01*
Y7718D01*
X-24725Y7729D01*
X-24731Y7739D01*
X-24741Y7747D01*
X-24755Y7755D01*
X-24772Y7761D01*
X-24794Y7766D01*
X-24820Y7770D01*
X-24849Y7773D01*
X-24906Y7775D01*
X-24921Y7775D01*
X-24984Y7769D01*
X-25009Y7763D01*
X-25031Y7756D01*
X-25049Y7748D01*
X-25062Y7738D01*
X-25072Y7726D01*
X-25078Y7713D01*
X-25080Y7698D01*
Y8050D01*
X-25078Y8035D01*
D02*
G37*
G36*
X-11553Y7776D02*
X-11554Y7785D01*
X-11557Y7793D01*
X-11562Y7801D01*
X-11569Y7807D01*
X-11578Y7812D01*
X-11588Y7817D01*
X-11601Y7820D01*
X-11616Y7823D01*
X-11633Y7824D01*
X-11652Y7825D01*
Y7923D01*
X-11633Y7924D01*
X-11616Y7925D01*
X-11601Y7928D01*
X-11588Y7931D01*
X-11578Y7936D01*
X-11569Y7941D01*
X-11562Y7947D01*
X-11557Y7955D01*
X-11554Y7963D01*
X-11553Y7972D01*
Y7776D01*
D02*
G37*
G36*
X-10576Y7677D02*
X-10579Y7671D01*
X-10582Y7661D01*
X-10584Y7647D01*
X-10586Y7629D01*
X-10590Y7556D01*
X-10585Y7497D01*
X-10581Y7471D01*
X-10576Y7449D01*
X-10570Y7432D01*
X-10562Y7418D01*
X-10554Y7408D01*
X-10544Y7402D01*
X-10533Y7400D01*
X-10845D01*
X-10834Y7402D01*
X-10824Y7408D01*
X-10816Y7418D01*
X-10808Y7432D01*
X-10802Y7449D01*
X-10797Y7471D01*
X-10793Y7497D01*
X-10790Y7526D01*
X-10790Y7532D01*
X-10791Y7552D01*
X-10796Y7582D01*
X-10803Y7608D01*
X-10812Y7629D01*
X-10823Y7647D01*
X-10836Y7661D01*
X-10850Y7671D01*
X-10867Y7677D01*
X-10886Y7678D01*
X-10572D01*
X-10576Y7677D01*
D02*
G37*
G36*
X-7932Y6970D02*
X-7934Y6981D01*
X-7940Y6991D01*
X-7949Y6999D01*
X-7963Y7007D01*
X-7981Y7013D01*
X-8003Y7018D01*
X-8028Y7022D01*
X-8058Y7025D01*
X-8129Y7028D01*
Y7224D01*
X-8091Y7225D01*
X-8057Y7228D01*
X-8028Y7233D01*
X-8002Y7240D01*
X-7980Y7249D01*
X-7962Y7260D01*
X-7949Y7273D01*
X-7939Y7287D01*
X-7933Y7304D01*
X-7931Y7323D01*
X-7932Y6970D01*
D02*
G37*
G36*
X-26030Y7555D02*
X-26029Y7552D01*
X-26025Y7547D01*
X-26021Y7542D01*
X-26000Y7518D01*
X-25968Y7485D01*
X-26107Y7346D01*
X-26119Y7358D01*
X-26174Y7407D01*
X-26177Y7408D01*
X-26180Y7409D01*
X-26031Y7558D01*
X-26030Y7555D01*
D02*
G37*
G36*
X-10058Y5749D02*
X-10060Y5768D01*
X-10066Y5784D01*
X-10075Y5799D01*
X-10089Y5811D01*
X-10107Y5822D01*
X-10129Y5831D01*
X-10154Y5838D01*
X-10184Y5843D01*
X-10217Y5845D01*
X-10255Y5846D01*
Y6043D01*
X-10217Y6044D01*
X-10184Y6047D01*
X-10154Y6052D01*
X-10129Y6059D01*
X-10107Y6068D01*
X-10089Y6078D01*
X-10075Y6091D01*
X-10066Y6105D01*
X-10060Y6122D01*
X-10058Y6140D01*
Y5749D01*
D02*
G37*
G36*
X-10186Y5289D02*
X-10188Y5290D01*
X-10192Y5291D01*
X-10197Y5292D01*
X-10204Y5293D01*
X-10236Y5295D01*
X-10282Y5295D01*
Y5492D01*
X-10265Y5492D01*
X-10192Y5496D01*
X-10188Y5497D01*
X-10186Y5499D01*
Y5289D01*
D02*
G37*
G36*
X-23955Y9963D02*
X-23949Y9929D01*
X-23939Y9900D01*
X-23925Y9874D01*
X-23907Y9852D01*
X-23886Y9835D01*
X-23860Y9821D01*
X-23841Y9814D01*
X-23827Y9818D01*
X-23810Y9824D01*
X-23796Y9831D01*
X-23786Y9840D01*
X-23780Y9850D01*
X-23778Y9861D01*
Y9804D01*
X-23760Y9803D01*
Y9606D01*
X-23778Y9605D01*
Y9549D01*
X-23780Y9560D01*
X-23786Y9569D01*
X-23796Y9578D01*
X-23810Y9586D01*
X-23827Y9592D01*
X-23841Y9595D01*
X-23860Y9589D01*
X-23886Y9575D01*
X-23907Y9557D01*
X-23925Y9535D01*
X-23939Y9510D01*
X-23949Y9480D01*
X-23955Y9447D01*
X-23957Y9409D01*
X-24154Y9705D01*
X-23957Y10000D01*
X-23955Y9963D01*
D02*
G37*
G36*
X-25118Y10035D02*
X-25114Y10011D01*
X-25107Y9987D01*
X-25097Y9962D01*
X-25085Y9937D01*
X-25069Y9912D01*
X-25051Y9886D01*
X-25030Y9859D01*
X-24980Y9804D01*
X-25021Y9567D01*
X-25065Y9610D01*
X-25143Y9677D01*
X-25177Y9700D01*
X-25206Y9718D01*
X-25232Y9729D01*
X-25255Y9733D01*
X-25273Y9731D01*
X-25288Y9722D01*
X-25299Y9707D01*
X-25119Y10058D01*
X-25118Y10035D01*
D02*
G37*
G36*
X-14852Y9933D02*
X-14840Y9800D01*
X-14833Y9767D01*
X-14824Y9741D01*
X-14814Y9720D01*
X-14803Y9705D01*
X-14790Y9697D01*
X-14775Y9694D01*
X-15225D01*
X-15210Y9697D01*
X-15197Y9705D01*
X-15186Y9720D01*
X-15176Y9741D01*
X-15167Y9767D01*
X-15160Y9800D01*
X-15155Y9838D01*
X-15151Y9883D01*
X-15148Y9989D01*
X-14852D01*
X-14852Y9933D01*
D02*
G37*
G36*
X-22683Y9684D02*
X-22685Y9677D01*
X-22685Y9669D01*
X-22682Y9659D01*
X-22676Y9648D01*
X-22668Y9635D01*
X-22657Y9621D01*
X-22643Y9605D01*
X-22609Y9568D01*
X-22698Y9518D01*
X-22716Y9535D01*
X-22747Y9563D01*
X-22761Y9573D01*
X-22774Y9581D01*
X-22785Y9587D01*
X-22796Y9591D01*
X-22805Y9592D01*
X-22812Y9591D01*
X-22819Y9588D01*
X-22678Y9689D01*
X-22683Y9684D01*
D02*
G37*
G36*
X-15745Y9174D02*
X-15484Y9345D01*
X-15497Y9332D01*
X-15505Y9316D01*
X-15506Y9297D01*
X-15502Y9274D01*
X-15491Y9248D01*
X-15474Y9218D01*
X-15451Y9185D01*
X-15421Y9149D01*
X-15344Y9066D01*
X-15543Y8986D01*
X-15580Y9022D01*
X-15649Y9080D01*
X-15680Y9102D01*
X-15709Y9118D01*
X-15736Y9129D01*
X-15761Y9136D01*
X-15783Y9137D01*
X-15803Y9134D01*
X-15821Y9125D01*
X-15805Y9136D01*
X-15811Y9133D01*
X-15841Y9116D01*
X-15874Y9093D01*
X-15910Y9063D01*
X-15959Y9018D01*
X-15989Y8984D01*
X-15991Y8980D01*
X-15992Y8978D01*
X-16140Y9126D01*
X-16138Y9127D01*
X-16134Y9129D01*
X-16130Y9132D01*
X-16124Y9136D01*
X-16101Y9157D01*
X-16071Y9187D01*
X-16036Y9222D01*
X-15979Y9291D01*
X-15957Y9322D01*
X-15940Y9351D01*
X-15929Y9378D01*
X-15922Y9403D01*
X-15921Y9425D01*
X-15924Y9445D01*
X-15933Y9463D01*
X-15745Y9174D01*
D02*
G37*
G36*
X-23050Y8781D02*
X-23052Y8796D01*
X-23058Y8809D01*
X-23068Y8820D01*
X-23081Y8830D01*
X-23099Y8839D01*
X-23121Y8846D01*
X-23146Y8851D01*
X-23176Y8855D01*
X-23209Y8857D01*
X-23223Y8858D01*
X-23228Y8858D01*
X-23291Y8853D01*
X-23316Y8849D01*
X-23338Y8844D01*
X-23356Y8837D01*
X-23369Y8830D01*
X-23379Y8821D01*
X-23385Y8811D01*
X-23387Y8801D01*
Y9113D01*
X-23385Y9102D01*
X-23379Y9092D01*
X-23369Y9083D01*
X-23356Y9076D01*
X-23338Y9070D01*
X-23316Y9064D01*
X-23291Y9060D01*
X-23261Y9057D01*
X-23215Y9056D01*
X-23209Y9056D01*
X-23176Y9059D01*
X-23146Y9064D01*
X-23120Y9071D01*
X-23098Y9080D01*
X-23081Y9091D01*
X-23067Y9103D01*
X-23057Y9118D01*
X-23051Y9135D01*
X-23049Y9154D01*
X-23050Y8781D01*
D02*
G37*
G36*
X-24759Y9584D02*
X-24683Y9519D01*
X-24650Y9496D01*
X-24620Y9479D01*
X-24594Y9468D01*
X-24571Y9463D01*
X-24552Y9464D01*
X-24536Y9472D01*
X-24523Y9486D01*
X-24723Y9175D01*
X-24725Y9194D01*
X-24729Y9214D01*
X-24736Y9235D01*
X-24745Y9257D01*
X-24758Y9280D01*
X-24773Y9304D01*
X-24791Y9329D01*
X-24836Y9381D01*
X-24862Y9408D01*
X-24802Y9626D01*
X-24759Y9584D01*
D02*
G37*
G36*
X-25728Y10077D02*
X-25768Y10036D01*
X-25831Y9962D01*
X-25854Y9930D01*
X-25870Y9901D01*
X-25882Y9874D01*
X-25887Y9851D01*
X-25887Y9831D01*
X-25881Y9813D01*
X-25869Y9799D01*
X-26166Y10057D01*
X-26149Y10046D01*
X-26131Y10042D01*
X-26109Y10042D01*
X-26086Y10048D01*
X-26059Y10060D01*
X-26030Y10076D01*
X-25998Y10098D01*
X-25964Y10126D01*
X-25887Y10197D01*
X-25728Y10077D01*
D02*
G37*
G36*
X-9507Y10531D02*
X-9501Y10515D01*
X-9491Y10500D01*
X-9478Y10488D01*
X-9460Y10477D01*
X-9438Y10468D01*
X-9413Y10461D01*
X-9383Y10457D01*
X-9350Y10454D01*
X-9312Y10453D01*
Y10256D01*
X-9350Y10255D01*
X-9383Y10252D01*
X-9413Y10247D01*
X-9438Y10240D01*
X-9460Y10232D01*
X-9478Y10221D01*
X-9491Y10208D01*
X-9501Y10194D01*
X-9507Y10177D01*
X-9509Y10159D01*
Y10550D01*
X-9507Y10531D01*
D02*
G37*
G36*
X-8660Y10159D02*
X-8662Y10177D01*
X-8668Y10194D01*
X-8678Y10208D01*
X-8692Y10221D01*
X-8709Y10232D01*
X-8731Y10240D01*
X-8757Y10247D01*
X-8786Y10252D01*
X-8820Y10255D01*
X-8857Y10256D01*
Y10453D01*
X-8820Y10454D01*
X-8786Y10457D01*
X-8757Y10461D01*
X-8731Y10468D01*
X-8709Y10477D01*
X-8692Y10488D01*
X-8678Y10500D01*
X-8668Y10515D01*
X-8662Y10531D01*
X-8660Y10550D01*
Y10159D01*
D02*
G37*
G36*
X-15256Y10058D02*
X-15272Y10052D01*
X-15287Y10043D01*
X-15300Y10029D01*
X-15310Y10011D01*
X-15319Y9989D01*
X-15326Y9964D01*
X-15331Y9934D01*
X-15334Y9901D01*
X-15335Y9864D01*
X-15532D01*
X-15532Y9901D01*
X-15535Y9934D01*
X-15540Y9964D01*
X-15547Y9989D01*
X-15556Y10011D01*
X-15566Y10029D01*
X-15579Y10043D01*
X-15594Y10052D01*
X-15610Y10058D01*
X-15629Y10060D01*
X-15238D01*
X-15256Y10058D01*
D02*
G37*
G36*
X-19273Y9892D02*
X-19270Y9884D01*
X-19265Y9876D01*
X-19258Y9870D01*
X-19249Y9865D01*
X-19238Y9860D01*
X-19225Y9857D01*
X-19210Y9854D01*
X-19193Y9853D01*
X-19175Y9852D01*
Y9754D01*
X-19273Y9765D01*
X-19274Y9902D01*
X-19273Y9892D01*
D02*
G37*
G36*
X-20255Y9765D02*
X-20257Y9784D01*
X-20262Y9800D01*
X-20272Y9815D01*
X-20286Y9827D01*
X-20304Y9838D01*
X-20325Y9847D01*
X-20351Y9853D01*
X-20381Y9858D01*
X-20414Y9861D01*
X-20451Y9862D01*
Y10059D01*
X-20414Y10060D01*
X-20381Y10063D01*
X-20351Y10068D01*
X-20325Y10075D01*
X-20304Y10083D01*
X-20286Y10094D01*
X-20272Y10107D01*
X-20262Y10121D01*
X-20257Y10138D01*
X-20255Y10156D01*
Y9765D01*
D02*
G37*
G36*
X-11151Y9986D02*
X-11147Y9985D01*
X-11141Y9984D01*
X-11134Y9983D01*
X-11103Y9981D01*
X-11057Y9980D01*
Y9783D01*
X-11074Y9783D01*
X-11147Y9779D01*
X-11151Y9778D01*
X-11153Y9777D01*
Y9987D01*
X-11151Y9986D01*
D02*
G37*
G36*
X-25886Y9074D02*
X-25902Y9068D01*
X-25917Y9058D01*
X-25930Y9045D01*
X-25940Y9027D01*
X-25949Y9005D01*
X-25956Y8980D01*
X-25961Y8950D01*
X-25964Y8917D01*
X-25965Y8879D01*
X-26161D01*
X-26162Y8917D01*
X-26165Y8950D01*
X-26170Y8980D01*
X-26177Y9005D01*
X-26186Y9027D01*
X-26196Y9045D01*
X-26209Y9058D01*
X-26224Y9068D01*
X-26240Y9074D01*
X-26259Y9076D01*
X-25867D01*
X-25886Y9074D01*
D02*
G37*
G36*
X-22679Y8278D02*
X-22676Y8270D01*
X-22671Y8262D01*
X-22664Y8256D01*
X-22655Y8250D01*
X-22644Y8246D01*
X-22631Y8243D01*
X-22616Y8240D01*
X-22599Y8239D01*
X-22580Y8238D01*
Y8140D01*
X-22599Y8139D01*
X-22616Y8138D01*
X-22631Y8135D01*
X-22644Y8132D01*
X-22655Y8127D01*
X-22664Y8122D01*
X-22671Y8116D01*
X-22676Y8108D01*
X-22679Y8100D01*
X-22680Y8091D01*
Y8287D01*
X-22679Y8278D01*
D02*
G37*
G36*
X-23955Y8506D02*
X-23949Y8472D01*
X-23939Y8443D01*
X-23925Y8417D01*
X-23907Y8396D01*
X-23886Y8378D01*
X-23860Y8364D01*
X-23841Y8358D01*
X-23827Y8361D01*
X-23810Y8367D01*
X-23796Y8375D01*
X-23786Y8383D01*
X-23780Y8393D01*
X-23778Y8404D01*
Y8347D01*
X-23760Y8346D01*
Y8150D01*
X-23778Y8149D01*
Y8092D01*
X-23780Y8103D01*
X-23786Y8113D01*
X-23796Y8121D01*
X-23810Y8129D01*
X-23827Y8135D01*
X-23841Y8138D01*
X-23860Y8132D01*
X-23886Y8118D01*
X-23907Y8100D01*
X-23925Y8079D01*
X-23939Y8053D01*
X-23949Y8024D01*
X-23955Y7990D01*
X-23957Y7953D01*
X-24154Y8248D01*
X-23957Y8543D01*
X-23955Y8506D01*
D02*
G37*
G36*
X-10096Y8169D02*
X-10097Y8179D01*
X-10100Y8187D01*
X-10105Y8194D01*
X-10112Y8201D01*
X-10121Y8206D01*
X-10132Y8211D01*
X-10145Y8214D01*
X-10160Y8217D01*
X-10177Y8218D01*
X-10196Y8219D01*
Y8317D01*
X-10177Y8317D01*
X-10160Y8319D01*
X-10145Y8321D01*
X-10132Y8325D01*
X-10121Y8329D01*
X-10112Y8335D01*
X-10105Y8341D01*
X-10100Y8348D01*
X-10097Y8357D01*
X-10096Y8366D01*
Y8169D01*
D02*
G37*
G36*
X-25614Y8066D02*
X-25626Y8054D01*
X-25674Y7999D01*
X-25676Y7996D01*
X-25677Y7994D01*
X-25825Y8142D01*
X-25823Y8143D01*
X-25819Y8145D01*
X-25815Y8148D01*
X-25809Y8152D01*
X-25786Y8173D01*
X-25753Y8205D01*
X-25614Y8066D01*
D02*
G37*
G36*
X-9119Y8070D02*
X-9122Y8064D01*
X-9125Y8054D01*
X-9127Y8041D01*
X-9129Y8023D01*
X-9133Y7949D01*
X-9129Y7890D01*
X-9125Y7865D01*
X-9119Y7843D01*
X-9113Y7825D01*
X-9106Y7812D01*
X-9097Y7802D01*
X-9087Y7796D01*
X-9076Y7794D01*
X-9388D01*
X-9377Y7796D01*
X-9368Y7802D01*
X-9359Y7812D01*
X-9352Y7825D01*
X-9345Y7843D01*
X-9340Y7865D01*
X-9336Y7890D01*
X-9333Y7920D01*
X-9333Y7926D01*
X-9335Y7946D01*
X-9340Y7976D01*
X-9346Y8001D01*
X-9355Y8023D01*
X-9366Y8041D01*
X-9379Y8054D01*
X-9394Y8064D01*
X-9410Y8070D01*
X-9429Y8072D01*
X-9115D01*
X-9119Y8070D01*
D02*
G37*
G36*
X-15117Y8152D02*
X-15047Y8093D01*
X-15016Y8071D01*
X-14987Y8054D01*
X-14960Y8043D01*
X-14936Y8036D01*
X-14914Y8035D01*
X-14895Y8039D01*
X-14878Y8049D01*
X-15194Y7811D01*
X-15182Y7824D01*
X-15175Y7841D01*
X-15174Y7861D01*
X-15179Y7884D01*
X-15190Y7910D01*
X-15207Y7940D01*
X-15230Y7972D01*
X-15259Y8008D01*
X-15335Y8089D01*
X-15156Y8189D01*
X-15117Y8152D01*
D02*
G37*
G36*
X-26716Y8066D02*
X-26728Y8054D01*
X-26777Y7999D01*
X-26779Y7996D01*
X-26779Y7994D01*
X-26928Y8142D01*
X-26925Y8143D01*
X-26922Y8145D01*
X-26917Y8148D01*
X-26912Y8152D01*
X-26888Y8173D01*
X-26855Y8205D01*
X-26716Y8066D01*
D02*
G37*
G36*
X-14790Y9122D02*
X-14803Y9114D01*
X-14814Y9099D01*
X-14824Y9078D01*
X-14833Y9051D01*
X-14840Y9019D01*
X-14845Y8981D01*
X-14847Y8964D01*
X-14840Y8872D01*
X-14835Y8845D01*
X-14829Y8824D01*
X-14822Y8810D01*
X-14814Y8801D01*
X-14804Y8798D01*
X-15196D01*
X-15186Y8801D01*
X-15178Y8810D01*
X-15171Y8824D01*
X-15165Y8845D01*
X-15160Y8872D01*
X-15155Y8904D01*
X-15153Y8938D01*
X-15160Y9019D01*
X-15167Y9051D01*
X-15176Y9078D01*
X-15186Y9099D01*
X-15197Y9114D01*
X-15210Y9122D01*
X-15225Y9125D01*
X-14775D01*
X-14790Y9122D01*
D02*
G37*
G36*
X-25119Y9076D02*
X-25143Y9074D01*
X-25169Y9068D01*
X-25196Y9057D01*
X-25226Y9043D01*
X-25257Y9024D01*
X-25290Y9001D01*
X-25326Y8974D01*
X-25401Y8907D01*
X-25442Y8867D01*
X-25650Y8938D01*
X-25605Y8985D01*
X-25536Y9065D01*
X-25511Y9099D01*
X-25494Y9129D01*
X-25484Y9154D01*
X-25480Y9176D01*
X-25483Y9194D01*
X-25493Y9207D01*
X-25511Y9217D01*
X-25119Y9076D01*
D02*
G37*
G36*
X-22068Y9065D02*
X-22065Y9057D01*
X-22060Y9050D01*
X-22053Y9043D01*
X-22045Y9038D01*
X-22034Y9033D01*
X-22021Y9030D01*
X-22006Y9028D01*
X-21989Y9026D01*
X-21970Y9026D01*
Y8927D01*
X-21989Y8927D01*
X-22006Y8925D01*
X-22021Y8923D01*
X-22034Y8919D01*
X-22045Y8915D01*
X-22053Y8909D01*
X-22060Y8903D01*
X-22065Y8896D01*
X-22068Y8887D01*
X-22069Y8878D01*
Y9075D01*
X-22068Y9065D01*
D02*
G37*
G36*
X-16143Y8826D02*
X-16146Y8826D01*
X-16149Y8824D01*
X-16154Y8821D01*
X-16159Y8816D01*
X-16183Y8795D01*
X-16216Y8763D01*
X-16355Y8902D01*
X-16343Y8914D01*
X-16294Y8969D01*
X-16292Y8972D01*
X-16292Y8975D01*
X-16143Y8826D01*
D02*
G37*
G36*
X-25212Y8329D02*
X-25227Y8341D01*
X-25244Y8347D01*
X-25264Y8348D01*
X-25288Y8342D01*
X-25314Y8331D01*
X-25343Y8314D01*
X-25376Y8292D01*
X-25411Y8263D01*
X-25491Y8189D01*
X-25610Y8348D01*
X-25572Y8387D01*
X-25512Y8459D01*
X-25490Y8490D01*
X-25473Y8520D01*
X-25462Y8546D01*
X-25456Y8570D01*
X-25455Y8591D01*
X-25460Y8610D01*
X-25470Y8626D01*
X-25212Y8329D01*
D02*
G37*
G36*
X-7087Y8693D02*
X-7055Y8666D01*
X-7039Y8655D01*
X-7025Y8647D01*
X-7012Y8641D01*
X-6999Y8637D01*
X-6987Y8636D01*
X-6976Y8636D01*
X-6966Y8639D01*
X-7163Y8560D01*
X-7155Y8565D01*
X-7150Y8572D01*
X-7149Y8581D01*
X-7151Y8592D01*
X-7156Y8605D01*
X-7165Y8620D01*
X-7177Y8637D01*
X-7193Y8656D01*
X-7234Y8699D01*
X-7105Y8710D01*
X-7087Y8693D01*
D02*
G37*
G36*
X-25631Y8678D02*
X-25643Y8666D01*
X-25677Y8627D01*
X-25682Y8620D01*
X-25686Y8614D01*
X-25688Y8608D01*
X-25689Y8604D01*
X-25688Y8600D01*
X-25881Y8683D01*
X-25774Y8814D01*
X-25631Y8678D01*
D02*
G37*
G36*
X-25937Y15223D02*
X-25941Y15204D01*
X-25940Y15182D01*
X-25934Y15158D01*
X-25922Y15131D01*
X-25906Y15102D01*
X-25884Y15071D01*
X-25857Y15037D01*
X-25825Y15001D01*
X-25787Y14962D01*
X-25887Y14783D01*
X-25929Y14824D01*
X-26004Y14888D01*
X-26037Y14911D01*
X-26066Y14928D01*
X-26093Y14939D01*
X-26116Y14944D01*
X-26135Y14943D01*
X-26152Y14937D01*
X-26166Y14924D01*
X-25928Y15240D01*
X-25937Y15223D01*
D02*
G37*
G36*
X-19664Y23623D02*
X-19592Y23563D01*
X-19561Y23541D01*
X-19532Y23524D01*
X-19505Y23513D01*
X-19481Y23507D01*
X-19460Y23506D01*
X-19441Y23511D01*
X-19425Y23521D01*
X-19722Y23264D01*
X-19710Y23278D01*
X-19704Y23295D01*
X-19704Y23316D01*
X-19709Y23339D01*
X-19720Y23365D01*
X-19737Y23395D01*
X-19760Y23427D01*
X-19788Y23462D01*
X-19862Y23542D01*
X-19703Y23662D01*
X-19664Y23623D01*
D02*
G37*
G36*
X-20785Y23091D02*
X-20787Y23113D01*
X-20794Y23133D01*
X-20806Y23151D01*
X-20823Y23166D01*
X-20844Y23179D01*
X-20870Y23190D01*
X-20901Y23198D01*
X-20937Y23204D01*
X-20977Y23207D01*
X-21022Y23209D01*
Y23445D01*
X-20977Y23446D01*
X-20937Y23450D01*
X-20901Y23456D01*
X-20870Y23464D01*
X-20844Y23474D01*
X-20823Y23487D01*
X-20806Y23503D01*
X-20794Y23520D01*
X-20787Y23541D01*
X-20785Y23563D01*
Y23091D01*
D02*
G37*
G36*
X-11909Y23544D02*
X-11902Y23481D01*
X-11897Y23455D01*
X-11890Y23434D01*
X-11882Y23416D01*
X-11872Y23402D01*
X-11860Y23392D01*
X-11847Y23386D01*
X-11832Y23385D01*
X-12184D01*
X-12169Y23386D01*
X-12156Y23392D01*
X-12144Y23402D01*
X-12134Y23416D01*
X-12126Y23434D01*
X-12119Y23455D01*
X-12113Y23481D01*
X-12109Y23511D01*
X-12107Y23544D01*
X-12106Y23581D01*
X-11909D01*
X-11909Y23544D01*
D02*
G37*
G36*
X-12652Y23631D02*
X-12653Y23627D01*
X-12654Y23622D01*
X-12655Y23615D01*
X-12657Y23583D01*
X-12657Y23564D01*
X-12657Y23544D01*
X-12651Y23481D01*
X-12645Y23455D01*
X-12638Y23434D01*
X-12630Y23416D01*
X-12620Y23402D01*
X-12608Y23392D01*
X-12595Y23386D01*
X-12580Y23385D01*
X-12932D01*
X-12917Y23386D01*
X-12904Y23392D01*
X-12892Y23402D01*
X-12882Y23416D01*
X-12874Y23434D01*
X-12867Y23455D01*
X-12861Y23481D01*
X-12857Y23511D01*
X-12855Y23544D01*
X-12855Y23561D01*
X-12859Y23627D01*
X-12860Y23631D01*
X-12861Y23633D01*
X-12651Y23633D01*
X-12652Y23631D01*
D02*
G37*
G36*
X-11207Y23205D02*
X-11206Y23194D01*
X-11202Y23181D01*
X-11194Y23165D01*
X-11181Y23146D01*
X-11166Y23125D01*
X-11122Y23075D01*
X-11063Y23013D01*
X-11182Y22854D01*
X-11216Y22887D01*
X-11319Y22976D01*
X-11337Y22988D01*
X-11353Y22996D01*
X-11365Y22999D01*
X-11375Y22999D01*
X-11382Y22995D01*
X-11203Y23213D01*
X-11207Y23205D01*
D02*
G37*
G36*
X-13221Y23275D02*
X-13226Y23257D01*
X-13225Y23235D01*
X-13219Y23211D01*
X-13208Y23185D01*
X-13191Y23156D01*
X-13169Y23124D01*
X-13142Y23090D01*
X-13071Y23013D01*
X-13190Y22854D01*
X-13232Y22894D01*
X-13305Y22957D01*
X-13338Y22980D01*
X-13367Y22996D01*
X-13393Y23008D01*
X-13417Y23013D01*
X-13437Y23013D01*
X-13454Y23007D01*
X-13469Y22995D01*
X-13211Y23291D01*
X-13221Y23275D01*
D02*
G37*
G36*
X-18068Y22974D02*
X-18077Y22978D01*
X-18086Y22981D01*
X-18097Y22980D01*
X-18110Y22977D01*
X-18123Y22971D01*
X-18137Y22963D01*
X-18153Y22952D01*
X-18170Y22939D01*
X-18188Y22923D01*
X-18207Y22904D01*
X-18297Y22954D01*
X-18276Y22975D01*
X-18244Y23012D01*
X-18233Y23029D01*
X-18225Y23044D01*
X-18219Y23057D01*
X-18217Y23068D01*
X-18217Y23078D01*
X-18221Y23086D01*
X-18227Y23093D01*
X-18068Y22974D01*
D02*
G37*
G36*
X-18612Y22973D02*
X-18620Y22970D01*
X-18627Y22965D01*
X-18634Y22958D01*
X-18639Y22949D01*
X-18644Y22938D01*
X-18647Y22926D01*
X-18650Y22911D01*
X-18651Y22894D01*
X-18652Y22875D01*
X-18750D01*
X-18750Y22894D01*
X-18752Y22911D01*
X-18754Y22926D01*
X-18758Y22938D01*
X-18762Y22949D01*
X-18768Y22958D01*
X-18774Y22965D01*
X-18781Y22970D01*
X-18790Y22973D01*
X-18799Y22974D01*
X-18602D01*
X-18612Y22973D01*
D02*
G37*
G36*
X-13838Y23700D02*
X-13854Y23694D01*
X-13869Y23684D01*
X-13882Y23671D01*
X-13893Y23653D01*
X-13902Y23631D01*
X-13908Y23606D01*
X-13913Y23576D01*
X-13916Y23543D01*
X-13917Y23505D01*
X-14114D01*
X-14113Y23702D01*
X-13819D01*
X-13838Y23700D01*
D02*
G37*
G36*
X-19994Y24616D02*
X-20000Y24598D01*
X-20000Y24578D01*
X-19995Y24555D01*
X-19984Y24528D01*
X-19967Y24499D01*
X-19945Y24467D01*
X-19916Y24431D01*
X-19842Y24352D01*
X-20001Y24232D01*
X-20041Y24270D01*
X-20112Y24330D01*
X-20144Y24352D01*
X-20173Y24369D01*
X-20199Y24380D01*
X-20223Y24386D01*
X-20245Y24387D01*
X-20263Y24382D01*
X-20280Y24371D01*
X-19982Y24630D01*
X-19994Y24616D01*
D02*
G37*
G36*
X-21449Y24672D02*
X-21453Y24653D01*
X-21452Y24631D01*
X-21445Y24607D01*
X-21434Y24580D01*
X-21417Y24551D01*
X-21396Y24520D01*
X-21369Y24486D01*
X-21336Y24449D01*
X-21299Y24411D01*
X-21399Y24232D01*
X-21441Y24273D01*
X-21516Y24337D01*
X-21549Y24360D01*
X-21578Y24377D01*
X-21604Y24388D01*
X-21627Y24393D01*
X-21647Y24392D01*
X-21664Y24385D01*
X-21677Y24373D01*
X-21440Y24689D01*
X-21449Y24672D01*
D02*
G37*
G36*
X-17787D02*
X-17791Y24653D01*
X-17790Y24631D01*
X-17784Y24607D01*
X-17773Y24580D01*
X-17756Y24551D01*
X-17734Y24520D01*
X-17707Y24486D01*
X-17675Y24449D01*
X-17638Y24411D01*
X-17738Y24232D01*
X-17780Y24273D01*
X-17855Y24337D01*
X-17887Y24360D01*
X-17917Y24377D01*
X-17943Y24388D01*
X-17966Y24393D01*
X-17986Y24392D01*
X-18002Y24385D01*
X-18016Y24373D01*
X-17778Y24689D01*
X-17787Y24672D01*
D02*
G37*
G36*
X-18537Y24616D02*
X-18543Y24598D01*
X-18544Y24578D01*
X-18538Y24555D01*
X-18527Y24528D01*
X-18511Y24499D01*
X-18488Y24467D01*
X-18460Y24431D01*
X-18386Y24352D01*
X-18545Y24232D01*
X-18584Y24270D01*
X-18655Y24330D01*
X-18687Y24352D01*
X-18716Y24369D01*
X-18743Y24380D01*
X-18767Y24386D01*
X-18788Y24387D01*
X-18807Y24382D01*
X-18823Y24371D01*
X-18525Y24630D01*
X-18537Y24616D01*
D02*
G37*
G36*
X-18093Y24060D02*
X-18026Y24004D01*
X-17995Y23983D01*
X-17967Y23967D01*
X-17940Y23955D01*
X-17915Y23948D01*
X-17891Y23946D01*
X-17870Y23948D01*
X-17850Y23954D01*
X-18226Y23775D01*
X-18210Y23786D01*
X-18202Y23801D01*
X-18199Y23819D01*
X-18203Y23841D01*
X-18214Y23867D01*
X-18232Y23897D01*
X-18255Y23931D01*
X-18286Y23968D01*
X-18366Y24054D01*
X-18129Y24095D01*
X-18093Y24060D01*
D02*
G37*
G36*
X-18975Y23604D02*
X-18977Y23618D01*
X-18983Y23632D01*
X-18993Y23643D01*
X-19007Y23653D01*
X-19024Y23662D01*
X-19046Y23669D01*
X-19072Y23674D01*
X-19101Y23678D01*
X-19135Y23680D01*
X-19172Y23681D01*
Y23878D01*
X-19135Y23879D01*
X-19072Y23885D01*
X-19046Y23890D01*
X-19024Y23897D01*
X-19007Y23906D01*
X-18993Y23916D01*
X-18983Y23928D01*
X-18977Y23941D01*
X-18975Y23955D01*
Y23604D01*
D02*
G37*
G36*
X-11655Y24141D02*
X-11657Y24141D01*
X-11661Y24139D01*
X-11665Y24136D01*
X-11671Y24131D01*
X-11694Y24110D01*
X-11728Y24078D01*
X-11867Y24217D01*
X-11855Y24229D01*
X-11806Y24284D01*
X-11804Y24287D01*
X-11804Y24290D01*
X-11655Y24141D01*
D02*
G37*
G36*
X-12992Y24074D02*
X-13030Y24034D01*
X-13091Y23963D01*
X-13113Y23931D01*
X-13129Y23902D01*
X-13141Y23875D01*
X-13147Y23851D01*
X-13147Y23830D01*
X-13143Y23811D01*
X-13132Y23795D01*
X-13390Y24092D01*
X-13376Y24080D01*
X-13358Y24074D01*
X-13338Y24074D01*
X-13315Y24079D01*
X-13288Y24090D01*
X-13259Y24107D01*
X-13227Y24130D01*
X-13191Y24158D01*
X-13112Y24232D01*
X-12992Y24074D01*
D02*
G37*
G36*
X-20259Y23070D02*
X-20279Y23063D01*
X-20296Y23051D01*
X-20312Y23034D01*
X-20325Y23013D01*
X-20335Y22987D01*
X-20344Y22956D01*
X-20350Y22921D01*
X-20353Y22881D01*
X-20354Y22836D01*
X-20591D01*
X-20592Y22881D01*
X-20595Y22921D01*
X-20601Y22956D01*
X-20609Y22987D01*
X-20620Y23013D01*
X-20633Y23034D01*
X-20648Y23051D01*
X-20666Y23063D01*
X-20686Y23070D01*
X-20709Y23072D01*
X-20236D01*
X-20259Y23070D01*
D02*
G37*
G36*
X-21685Y21140D02*
X-21716Y21108D01*
X-21762Y21055D01*
X-21778Y21033D01*
X-21788Y21015D01*
X-21793Y21000D01*
X-21793Y20988D01*
X-21788Y20980D01*
X-21778Y20975D01*
X-21763Y20973D01*
X-22331D01*
X-22301Y20976D01*
X-22269Y20983D01*
X-22235Y20996D01*
X-22198Y21013D01*
X-22160Y21036D01*
X-22119Y21063D01*
X-22076Y21096D01*
X-21985Y21176D01*
X-21936Y21224D01*
X-21685Y21140D01*
D02*
G37*
G36*
X-17420Y21419D02*
X-17416Y21382D01*
X-17409Y21345D01*
X-17399Y21310D01*
X-17386Y21276D01*
X-17371Y21243D01*
X-17353Y21211D01*
X-17332Y21180D01*
X-17309Y21150D01*
X-17282Y21122D01*
X-17380Y20942D01*
X-17408Y20967D01*
X-17436Y20987D01*
X-17464Y21001D01*
X-17492Y21009D01*
X-17520Y21012D01*
X-17548Y21009D01*
X-17575Y21001D01*
X-17603Y20987D01*
X-17631Y20967D01*
X-17659Y20942D01*
X-17757Y21122D01*
X-17731Y21150D01*
X-17707Y21180D01*
X-17686Y21211D01*
X-17668Y21243D01*
X-17653Y21276D01*
X-17640Y21310D01*
X-17631Y21345D01*
X-17624Y21382D01*
X-17620Y21419D01*
X-17618Y21458D01*
X-17421D01*
X-17420Y21419D01*
D02*
G37*
G36*
X-14245Y21543D02*
X-14250Y21524D01*
X-14249Y21503D01*
X-14243Y21479D01*
X-14232Y21453D01*
X-14215Y21424D01*
X-14193Y21392D01*
X-14165Y21357D01*
X-14094Y21281D01*
X-14214Y21122D01*
X-14255Y21162D01*
X-14329Y21225D01*
X-14361Y21247D01*
X-14391Y21264D01*
X-14417Y21275D01*
X-14440Y21281D01*
X-14461Y21280D01*
X-14478Y21274D01*
X-14492Y21262D01*
X-14235Y21559D01*
X-14245Y21543D01*
D02*
G37*
G36*
X-20294Y21299D02*
X-20311Y21293D01*
X-20326Y21283D01*
X-20339Y21269D01*
X-20349Y21251D01*
X-20358Y21230D01*
X-20365Y21204D01*
X-20370Y21175D01*
X-20373Y21141D01*
X-20374Y21104D01*
X-20571D01*
X-20572Y21141D01*
X-20575Y21175D01*
X-20580Y21204D01*
X-20587Y21230D01*
X-20595Y21251D01*
X-20606Y21269D01*
X-20619Y21283D01*
X-20634Y21293D01*
X-20651Y21299D01*
X-20669Y21301D01*
X-20276D01*
X-20294Y21299D01*
D02*
G37*
G36*
X-13837Y21025D02*
X-13766Y20965D01*
X-13734Y20942D01*
X-13705Y20926D01*
X-13678Y20914D01*
X-13654Y20908D01*
X-13633Y20908D01*
X-13614Y20913D01*
X-13598Y20923D01*
X-13895Y20665D01*
X-13883Y20680D01*
X-13877Y20697D01*
X-13877Y20717D01*
X-13882Y20740D01*
X-13893Y20767D01*
X-13910Y20796D01*
X-13933Y20829D01*
X-13961Y20864D01*
X-14036Y20944D01*
X-13877Y21063D01*
X-13837Y21025D01*
D02*
G37*
G36*
X-17795Y20473D02*
X-17790Y20410D01*
X-17786Y20385D01*
X-17781Y20363D01*
X-17774Y20345D01*
X-17767Y20331D01*
X-17758Y20322D01*
X-17748Y20316D01*
X-17738Y20314D01*
X-18050D01*
X-18039Y20316D01*
X-18029Y20322D01*
X-18020Y20331D01*
X-18013Y20345D01*
X-18007Y20363D01*
X-18001Y20385D01*
X-17997Y20410D01*
X-17994Y20440D01*
X-17992Y20511D01*
X-17795D01*
X-17795Y20473D01*
D02*
G37*
G36*
X-12788Y21259D02*
X-12798Y21253D01*
X-12806Y21243D01*
X-12814Y21230D01*
X-12820Y21212D01*
X-12825Y21190D01*
X-12829Y21165D01*
X-12832Y21135D01*
X-12834Y21086D01*
X-12834Y21083D01*
X-12828Y21020D01*
X-12822Y20995D01*
X-12815Y20973D01*
X-12807Y20955D01*
X-12797Y20942D01*
X-12785Y20932D01*
X-12772Y20926D01*
X-12757Y20924D01*
X-13130Y20923D01*
X-13111Y20925D01*
X-13094Y20931D01*
X-13080Y20941D01*
X-13067Y20955D01*
X-13056Y20972D01*
X-13047Y20994D01*
X-13040Y21020D01*
X-13035Y21050D01*
X-13032Y21083D01*
X-13032Y21100D01*
X-13032Y21102D01*
X-13037Y21165D01*
X-13041Y21190D01*
X-13046Y21212D01*
X-13052Y21230D01*
X-13060Y21243D01*
X-13068Y21253D01*
X-13078Y21259D01*
X-13089Y21261D01*
X-12777D01*
X-12788Y21259D01*
D02*
G37*
G36*
X-11870Y20944D02*
X-11910Y20902D01*
X-11973Y20829D01*
X-11995Y20796D01*
X-12012Y20767D01*
X-12023Y20740D01*
X-12029Y20717D01*
X-12028Y20697D01*
X-12022Y20680D01*
X-12010Y20665D01*
X-12307Y20923D01*
X-12291Y20913D01*
X-12272Y20908D01*
X-12251Y20908D01*
X-12227Y20914D01*
X-12201Y20926D01*
X-12172Y20942D01*
X-12140Y20965D01*
X-12105Y20992D01*
X-12029Y21063D01*
X-11870Y20944D01*
D02*
G37*
G36*
X-11413Y21262D02*
X-11426Y21276D01*
X-11442Y21284D01*
X-11461Y21285D01*
X-11484Y21280D01*
X-11510Y21269D01*
X-11540Y21252D01*
X-11572Y21229D01*
X-11609Y21199D01*
X-11692Y21122D01*
X-11772Y21320D01*
X-11735Y21358D01*
X-11677Y21427D01*
X-11656Y21458D01*
X-11639Y21487D01*
X-11628Y21514D01*
X-11621Y21538D01*
X-11620Y21561D01*
X-11623Y21581D01*
X-11631Y21599D01*
X-11413Y21262D01*
D02*
G37*
G36*
X-19338Y22653D02*
X-19342Y22645D01*
X-19342Y22635D01*
X-19340Y22624D01*
X-19334Y22610D01*
X-19326Y22596D01*
X-19315Y22579D01*
X-19300Y22562D01*
X-19262Y22521D01*
X-19352Y22471D01*
X-19371Y22490D01*
X-19406Y22519D01*
X-19422Y22530D01*
X-19436Y22538D01*
X-19450Y22544D01*
X-19462Y22547D01*
X-19473Y22547D01*
X-19482Y22545D01*
X-19491Y22541D01*
X-19332Y22660D01*
X-19338Y22653D01*
D02*
G37*
G36*
X-12750Y22694D02*
X-12673Y22628D01*
X-12640Y22604D01*
X-12610Y22587D01*
X-12584Y22576D01*
X-12561Y22571D01*
X-12543Y22573D01*
X-12527Y22581D01*
X-12516Y22596D01*
X-12714Y22240D01*
X-12707Y22259D01*
X-12704Y22279D01*
X-12706Y22302D01*
X-12713Y22327D01*
X-12724Y22354D01*
X-12741Y22383D01*
X-12762Y22414D01*
X-12788Y22447D01*
X-12819Y22481D01*
X-12854Y22518D01*
X-12794Y22736D01*
X-12750Y22694D01*
D02*
G37*
G36*
X-11003Y22757D02*
X-10999Y22694D01*
X-10995Y22668D01*
X-10990Y22646D01*
X-10983Y22629D01*
X-10976Y22615D01*
X-10967Y22605D01*
X-10957Y22599D01*
X-10946Y22597D01*
X-11259D01*
X-11248Y22599D01*
X-11238Y22605D01*
X-11229Y22615D01*
X-11222Y22629D01*
X-11215Y22646D01*
X-11210Y22668D01*
X-11206Y22694D01*
X-11203Y22723D01*
X-11201Y22794D01*
X-11004D01*
X-11003Y22757D01*
D02*
G37*
G36*
X-13917D02*
X-13912Y22694D01*
X-13908Y22668D01*
X-13903Y22646D01*
X-13897Y22629D01*
X-13889Y22615D01*
X-13880Y22605D01*
X-13871Y22599D01*
X-13860Y22597D01*
X-14172D01*
X-14161Y22599D01*
X-14151Y22605D01*
X-14142Y22615D01*
X-14135Y22629D01*
X-14129Y22646D01*
X-14123Y22668D01*
X-14119Y22694D01*
X-14116Y22723D01*
X-14114Y22794D01*
X-13917D01*
X-13917Y22757D01*
D02*
G37*
G36*
X-13319Y21613D02*
X-13364Y21566D01*
X-13435Y21481D01*
X-13461Y21444D01*
X-13481Y21409D01*
X-13495Y21377D01*
X-13502Y21348D01*
X-13503Y21322D01*
X-13498Y21299D01*
X-13487Y21279D01*
X-13780Y21651D01*
X-13764Y21636D01*
X-13743Y21628D01*
X-13719Y21627D01*
X-13692Y21633D01*
X-13660Y21647D01*
X-13625Y21667D01*
X-13586Y21695D01*
X-13543Y21729D01*
X-13446Y21819D01*
X-13319Y21613D01*
D02*
G37*
G36*
X-10610Y21929D02*
X-10637Y21888D01*
X-10610D01*
X-10610Y21844D01*
X-10601Y21711D01*
X-10597Y21690D01*
X-10592Y21674D01*
X-10586Y21662D01*
X-10579Y21655D01*
X-10572Y21652D01*
X-10795D01*
X-10846Y21575D01*
X-10849Y21620D01*
X-10855Y21652D01*
X-10885D01*
X-10877Y21655D01*
X-10871Y21662D01*
X-10865Y21674D01*
X-10863Y21681D01*
X-10868Y21695D01*
X-10884Y21726D01*
X-10906Y21752D01*
X-10932Y21773D01*
X-10962Y21790D01*
X-10998Y21802D01*
X-11038Y21809D01*
X-11083Y21811D01*
Y22047D01*
X-11038Y22050D01*
X-10998Y22057D01*
X-10962Y22069D01*
X-10932Y22085D01*
X-10906Y22106D01*
X-10884Y22132D01*
X-10868Y22163D01*
X-10856Y22198D01*
X-10849Y22239D01*
X-10846Y22283D01*
X-10610Y21929D01*
D02*
G37*
G36*
X-20353Y22758D02*
X-20348Y22713D01*
X-20339Y22669D01*
X-20328Y22627D01*
X-20313Y22586D01*
X-20294Y22546D01*
X-20272Y22508D01*
X-20247Y22471D01*
X-20219Y22436D01*
X-20187Y22402D01*
X-20305Y22186D01*
X-20339Y22216D01*
X-20372Y22239D01*
X-20406Y22256D01*
X-20439Y22266D01*
X-20472Y22269D01*
X-20506Y22266D01*
X-20539Y22256D01*
X-20573Y22239D01*
X-20606Y22216D01*
X-20639Y22186D01*
X-20758Y22402D01*
X-20726Y22436D01*
X-20697Y22471D01*
X-20672Y22508D01*
X-20651Y22546D01*
X-20632Y22586D01*
X-20617Y22627D01*
X-20606Y22669D01*
X-20597Y22713D01*
X-20592Y22758D01*
X-20591Y22805D01*
X-20354D01*
X-20353Y22758D01*
D02*
G37*
G36*
X-12067Y21844D02*
X-12057Y21711D01*
X-12053Y21690D01*
X-12048Y21674D01*
X-12043Y21662D01*
X-12036Y21655D01*
X-12029Y21652D01*
X-12341D01*
X-12334Y21655D01*
X-12328Y21662D01*
X-12322Y21674D01*
X-12317Y21690D01*
X-12313Y21711D01*
X-12309Y21737D01*
X-12305Y21803D01*
X-12303Y21888D01*
X-12067D01*
X-12067Y21844D01*
D02*
G37*
G36*
X-19743Y26536D02*
X-19740Y26502D01*
X-19735Y26473D01*
X-19728Y26447D01*
X-19719Y26425D01*
X-19709Y26407D01*
X-19696Y26393D01*
X-19681Y26384D01*
X-19664Y26378D01*
X-19646Y26375D01*
X-19940Y26377D01*
X-19941Y26574D01*
X-19744D01*
X-19743Y26536D01*
D02*
G37*
G36*
X-20230Y26230D02*
X-20236Y26212D01*
X-20237Y26192D01*
X-20231Y26169D01*
X-20220Y26142D01*
X-20203Y26113D01*
X-20181Y26081D01*
X-20153Y26045D01*
X-20079Y25966D01*
X-20238Y25846D01*
X-20277Y25884D01*
X-20348Y25945D01*
X-20380Y25966D01*
X-20409Y25983D01*
X-20436Y25994D01*
X-20460Y26000D01*
X-20481Y26001D01*
X-20500Y25996D01*
X-20516Y25986D01*
X-20218Y26244D01*
X-20230Y26230D01*
D02*
G37*
G36*
X-20409Y26636D02*
X-20420Y26651D01*
X-20435Y26660D01*
X-20454Y26662D01*
X-20476Y26658D01*
X-20502Y26647D01*
X-20532Y26630D01*
X-20565Y26606D01*
X-20602Y26576D01*
X-20688Y26496D01*
X-20728Y26734D01*
X-20702Y26761D01*
X-20657Y26815D01*
X-20639Y26841D01*
X-20624Y26867D01*
X-20612Y26892D01*
X-20602Y26916D01*
X-20595Y26940D01*
X-20591Y26964D01*
X-20589Y26987D01*
X-20409Y26636D01*
D02*
G37*
G36*
X-18012Y26633D02*
X-18028Y26627D01*
X-18043Y26617D01*
X-18056Y26604D01*
X-18066Y26586D01*
X-18075Y26564D01*
X-18082Y26539D01*
X-18087Y26509D01*
X-18090Y26476D01*
X-18091Y26438D01*
X-18287D01*
X-18288Y26476D01*
X-18291Y26509D01*
X-18296Y26539D01*
X-18303Y26564D01*
X-18312Y26586D01*
X-18322Y26604D01*
X-18335Y26617D01*
X-18350Y26627D01*
X-18366Y26633D01*
X-18385Y26635D01*
X-17993D01*
X-18012Y26633D01*
D02*
G37*
G36*
X-19917Y25806D02*
X-19842Y25742D01*
X-19810Y25719D01*
X-19780Y25702D01*
X-19754Y25691D01*
X-19731Y25686D01*
X-19711Y25687D01*
X-19694Y25693D01*
X-19681Y25706D01*
X-19919Y25390D01*
X-19910Y25407D01*
X-19905Y25426D01*
X-19907Y25448D01*
X-19913Y25472D01*
X-19924Y25499D01*
X-19941Y25528D01*
X-19963Y25559D01*
X-19990Y25593D01*
X-20022Y25629D01*
X-20059Y25668D01*
X-19959Y25847D01*
X-19917Y25806D01*
D02*
G37*
G36*
X-18078Y24881D02*
X-17989Y24805D01*
X-17950Y24777D01*
X-17915Y24757D01*
X-17883Y24744D01*
X-17855Y24737D01*
X-17831Y24738D01*
X-17811Y24746D01*
X-17795Y24761D01*
X-18088Y24389D01*
X-18077Y24409D01*
X-18071Y24432D01*
X-18072Y24458D01*
X-18080Y24487D01*
X-18094Y24519D01*
X-18114Y24554D01*
X-18140Y24592D01*
X-18172Y24633D01*
X-18211Y24676D01*
X-18256Y24723D01*
X-18129Y24930D01*
X-18078Y24881D01*
D02*
G37*
G36*
X-21121Y25867D02*
X-21117Y25804D01*
X-21113Y25778D01*
X-21108Y25757D01*
X-21101Y25739D01*
X-21094Y25725D01*
X-21085Y25715D01*
X-21075Y25709D01*
X-21064Y25707D01*
X-21377D01*
X-21366Y25709D01*
X-21356Y25715D01*
X-21347Y25725D01*
X-21340Y25739D01*
X-21333Y25757D01*
X-21328Y25778D01*
X-21324Y25804D01*
X-21321Y25833D01*
X-21319Y25904D01*
X-21122D01*
X-21121Y25867D01*
D02*
G37*
G36*
X-18091D02*
X-18096Y25804D01*
X-18100Y25778D01*
X-18106Y25757D01*
X-18112Y25739D01*
X-18120Y25725D01*
X-18129Y25715D01*
X-18139Y25709D01*
X-18151Y25707D01*
X-18386Y25706D01*
X-18367Y25708D01*
X-18350Y25714D01*
X-18336Y25724D01*
X-18323Y25738D01*
X-18312Y25756D01*
X-18303Y25778D01*
X-18296Y25803D01*
X-18291Y25833D01*
X-18288Y25867D01*
X-18287Y25904D01*
X-18091D01*
X-18091Y25867D01*
D02*
G37*
G36*
X-19739Y26781D02*
X-19740Y26777D01*
X-19741Y26771D01*
X-19742Y26764D01*
X-19743Y26733D01*
X-19744Y26687D01*
X-19941D01*
X-19941Y26704D01*
X-19945Y26777D01*
X-19946Y26781D01*
X-19948Y26783D01*
X-19738D01*
X-19739Y26781D01*
D02*
G37*
G36*
X-16543Y31118D02*
X-16547Y31110D01*
X-16547Y31100D01*
X-16545Y31088D01*
X-16539Y31075D01*
X-16531Y31060D01*
X-16519Y31044D01*
X-16505Y31026D01*
X-16467Y30986D01*
X-16556Y30936D01*
X-16576Y30954D01*
X-16611Y30984D01*
X-16626Y30995D01*
X-16641Y31003D01*
X-16654Y31008D01*
X-16666Y31012D01*
X-16677Y31012D01*
X-16687Y31010D01*
X-16696Y31005D01*
X-16537Y31125D01*
X-16543Y31118D01*
D02*
G37*
G36*
X-20196Y27602D02*
X-20190Y27589D01*
X-20180Y27577D01*
X-20167Y27567D01*
X-20149Y27559D01*
X-20127Y27552D01*
X-20102Y27546D01*
X-20072Y27542D01*
X-20039Y27540D01*
X-20022Y27540D01*
X-19956Y27544D01*
X-19952Y27545D01*
X-19950Y27546D01*
Y27336D01*
X-19952Y27337D01*
X-19956Y27338D01*
X-19961Y27339D01*
X-19968Y27340D01*
X-19999Y27342D01*
X-20018Y27342D01*
X-20039Y27342D01*
X-20102Y27336D01*
X-20127Y27330D01*
X-20149Y27323D01*
X-20167Y27315D01*
X-20180Y27305D01*
X-20190Y27293D01*
X-20196Y27280D01*
X-20198Y27265D01*
Y27617D01*
X-20196Y27602D01*
D02*
G37*
G36*
X-17291Y31118D02*
X-17295Y31110D01*
X-17295Y31100D01*
X-17293Y31088D01*
X-17287Y31075D01*
X-17279Y31060D01*
X-17267Y31044D01*
X-17253Y31026D01*
X-17215Y30986D01*
X-17304Y30936D01*
X-17324Y30954D01*
X-17359Y30984D01*
X-17374Y30995D01*
X-17389Y31003D01*
X-17402Y31008D01*
X-17414Y31012D01*
X-17425Y31012D01*
X-17435Y31010D01*
X-17444Y31005D01*
X-17285Y31125D01*
X-17291Y31118D01*
D02*
G37*
G36*
X-15895Y31004D02*
X-15904Y31001D01*
X-15911Y30996D01*
X-15917Y30989D01*
X-15923Y30981D01*
X-15927Y30970D01*
X-15931Y30957D01*
X-15933Y30942D01*
X-15935Y30926D01*
X-15935Y30907D01*
X-16033D01*
X-16034Y30926D01*
X-16035Y30942D01*
X-16038Y30957D01*
X-16041Y30970D01*
X-16046Y30981D01*
X-16051Y30989D01*
X-16058Y30996D01*
X-16065Y31001D01*
X-16073Y31004D01*
X-16083Y31005D01*
X-15886D01*
X-15895Y31004D01*
D02*
G37*
G36*
X-17063Y19924D02*
X-17076Y19937D01*
X-17093Y19943D01*
X-17113Y19944D01*
X-17136Y19939D01*
X-17162Y19928D01*
X-17191Y19911D01*
X-17224Y19888D01*
X-17260Y19859D01*
X-17341Y19783D01*
X-17441Y19962D01*
X-17404Y20001D01*
X-17345Y20071D01*
X-17323Y20102D01*
X-17306Y20131D01*
X-17295Y20158D01*
X-17288Y20182D01*
X-17287Y20204D01*
X-17291Y20223D01*
X-17301Y20240D01*
X-17063Y19924D01*
D02*
G37*
G36*
X-13188Y16740D02*
X-13182Y16730D01*
X-13173Y16721D01*
X-13159Y16714D01*
X-13141Y16707D01*
X-13119Y16702D01*
X-13094Y16698D01*
X-13064Y16695D01*
X-12993Y16693D01*
Y16496D01*
X-13031Y16495D01*
X-13094Y16491D01*
X-13119Y16487D01*
X-13141Y16482D01*
X-13159Y16475D01*
X-13173Y16468D01*
X-13182Y16459D01*
X-13188Y16449D01*
X-13190Y16438D01*
Y16751D01*
X-13188Y16740D01*
D02*
G37*
G36*
X-22461Y16633D02*
X-22477Y16627D01*
X-22492Y16617D01*
X-22504Y16604D01*
X-22515Y16586D01*
X-22524Y16564D01*
X-22531Y16539D01*
X-22535Y16509D01*
X-22538Y16476D01*
X-22539Y16438D01*
X-22736D01*
X-22737Y16476D01*
X-22740Y16509D01*
X-22745Y16539D01*
X-22752Y16564D01*
X-22761Y16586D01*
X-22771Y16604D01*
X-22784Y16617D01*
X-22798Y16627D01*
X-22815Y16633D01*
X-22833Y16635D01*
X-22442D01*
X-22461Y16633D01*
D02*
G37*
G36*
X-16221Y16832D02*
X-16215Y16815D01*
X-16205Y16800D01*
X-16191Y16787D01*
X-16173Y16777D01*
X-16151Y16768D01*
X-16126Y16761D01*
X-16096Y16756D01*
X-16068Y16753D01*
X-16019Y16756D01*
X-16015Y16757D01*
X-16013Y16759D01*
Y16549D01*
X-16015Y16550D01*
X-16019Y16551D01*
X-16024Y16552D01*
X-16031Y16553D01*
X-16062Y16555D01*
X-16109Y16555D01*
Y16589D01*
X-16222Y16635D01*
X-16223Y16850D01*
X-16221Y16832D01*
D02*
G37*
G36*
X-21270Y16434D02*
X-21273Y16425D01*
X-21272Y16415D01*
X-21270Y16403D01*
X-21264Y16390D01*
X-21256Y16376D01*
X-21245Y16361D01*
X-21232Y16344D01*
X-21216Y16326D01*
X-21197Y16306D01*
X-21265Y16235D01*
X-21284Y16253D01*
X-21318Y16282D01*
X-21333Y16292D01*
X-21347Y16299D01*
X-21359Y16304D01*
X-21370Y16306D01*
X-21380Y16306D01*
X-21388Y16303D01*
X-21395Y16297D01*
X-21265Y16442D01*
X-21270Y16434D01*
D02*
G37*
G36*
X-23957Y16140D02*
X-23983Y16113D01*
X-24007Y16085D01*
X-24028Y16057D01*
X-24046Y16030D01*
X-24061Y16003D01*
X-24074Y15975D01*
X-24083Y15948D01*
X-24090Y15921D01*
X-24094Y15894D01*
X-24096Y15867D01*
X-24256Y16257D01*
X-24246Y16241D01*
X-24232Y16232D01*
X-24214Y16229D01*
X-24192Y16233D01*
X-24166Y16244D01*
X-24137Y16261D01*
X-24103Y16285D01*
X-24065Y16316D01*
X-23978Y16398D01*
X-23957Y16140D01*
D02*
G37*
G36*
X-7599Y16714D02*
X-7593Y16697D01*
X-7583Y16682D01*
X-7569Y16669D01*
X-7551Y16658D01*
X-7529Y16650D01*
X-7504Y16643D01*
X-7474Y16638D01*
X-7440Y16635D01*
X-7403Y16634D01*
Y16437D01*
X-7600Y16438D01*
X-7601Y16732D01*
X-7599Y16714D01*
D02*
G37*
G36*
X-19168Y16502D02*
X-19164Y16493D01*
X-19157Y16486D01*
X-19147Y16480D01*
X-19134Y16475D01*
X-19118Y16470D01*
X-19100Y16467D01*
X-19079Y16465D01*
X-19055Y16463D01*
X-19028Y16463D01*
Y16364D01*
X-19055Y16364D01*
X-19100Y16360D01*
X-19118Y16356D01*
X-19134Y16352D01*
X-19147Y16347D01*
X-19157Y16341D01*
X-19164Y16333D01*
X-19168Y16325D01*
X-19169Y16316D01*
Y16511D01*
X-19168Y16502D01*
D02*
G37*
G36*
X-14653Y16768D02*
X-14651Y16764D01*
X-14648Y16760D01*
X-14643Y16754D01*
X-14622Y16731D01*
X-14590Y16698D01*
X-14729Y16558D01*
X-14741Y16570D01*
X-14796Y16619D01*
X-14799Y16621D01*
X-14802Y16622D01*
X-14653Y16770D01*
X-14653Y16768D01*
D02*
G37*
G36*
X-7123Y17342D02*
X-7049Y17279D01*
X-7017Y17257D01*
X-6987Y17240D01*
X-6961Y17229D01*
X-6938Y17223D01*
X-6917Y17224D01*
X-6900Y17230D01*
X-6886Y17242D01*
X-7143Y16945D01*
X-7133Y16961D01*
X-7128Y16980D01*
X-7129Y17001D01*
X-7135Y17025D01*
X-7146Y17051D01*
X-7163Y17080D01*
X-7185Y17112D01*
X-7213Y17147D01*
X-7284Y17223D01*
X-7164Y17382D01*
X-7123Y17342D01*
D02*
G37*
G36*
X-8209Y16770D02*
X-8235Y16743D01*
X-8280Y16691D01*
X-8298Y16666D01*
X-8313Y16642D01*
X-8325Y16619D01*
X-8335Y16597D01*
X-8342Y16576D01*
X-8346Y16556D01*
X-8348Y16537D01*
X-8547Y16848D01*
X-8535Y16834D01*
X-8519Y16827D01*
X-8500Y16825D01*
X-8477Y16830D01*
X-8451Y16841D01*
X-8421Y16858D01*
X-8388Y16881D01*
X-8352Y16911D01*
X-8269Y16988D01*
X-8209Y16770D01*
D02*
G37*
G36*
X-7771Y17069D02*
X-7784Y17083D01*
X-7800Y17091D01*
X-7819Y17092D01*
X-7842Y17087D01*
X-7868Y17076D01*
X-7898Y17059D01*
X-7931Y17036D01*
X-7967Y17006D01*
X-8050Y16929D01*
X-8200Y17058D01*
X-8150Y17109D01*
X-8039Y17240D01*
X-8015Y17277D01*
X-7997Y17310D01*
X-7986Y17339D01*
X-7981Y17365D01*
X-7982Y17387D01*
X-7990Y17406D01*
X-7771Y17069D01*
D02*
G37*
G36*
X-13190Y17186D02*
X-13214Y17184D01*
X-13240Y17178D01*
X-13267Y17168D01*
X-13297Y17153D01*
X-13328Y17134D01*
X-13361Y17111D01*
X-13396Y17084D01*
X-13472Y17017D01*
X-13513Y16978D01*
X-13721Y17049D01*
X-13676Y17095D01*
X-13607Y17175D01*
X-13582Y17209D01*
X-13565Y17239D01*
X-13555Y17265D01*
X-13551Y17286D01*
X-13554Y17304D01*
X-13564Y17318D01*
X-13581Y17327D01*
X-13190Y17186D01*
D02*
G37*
G36*
X-23323Y16635D02*
X-23339Y16645D01*
X-23358Y16650D01*
X-23379Y16650D01*
X-23403Y16644D01*
X-23430Y16633D01*
X-23459Y16616D01*
X-23490Y16594D01*
X-23525Y16567D01*
X-23562Y16534D01*
X-23601Y16496D01*
X-23760Y16615D01*
X-23720Y16657D01*
X-23658Y16730D01*
X-23635Y16763D01*
X-23618Y16792D01*
X-23607Y16818D01*
X-23602Y16842D01*
X-23602Y16862D01*
X-23609Y16879D01*
X-23621Y16894D01*
X-23323Y16635D01*
D02*
G37*
G36*
X-24110D02*
X-24126Y16645D01*
X-24145Y16650D01*
X-24166Y16650D01*
X-24190Y16644D01*
X-24217Y16633D01*
X-24246Y16616D01*
X-24278Y16594D01*
X-24312Y16567D01*
X-24349Y16534D01*
X-24388Y16496D01*
X-24547Y16615D01*
X-24507Y16657D01*
X-24445Y16730D01*
X-24422Y16763D01*
X-24406Y16792D01*
X-24395Y16818D01*
X-24389Y16842D01*
X-24390Y16862D01*
X-24396Y16879D01*
X-24408Y16894D01*
X-24110Y16635D01*
D02*
G37*
G36*
X-19168Y17002D02*
X-19164Y16993D01*
X-19157Y16986D01*
X-19147Y16980D01*
X-19134Y16975D01*
X-19118Y16970D01*
X-19100Y16967D01*
X-19079Y16965D01*
X-19055Y16963D01*
X-19028Y16963D01*
Y16864D01*
X-19055Y16864D01*
X-19100Y16860D01*
X-19118Y16856D01*
X-19134Y16852D01*
X-19147Y16847D01*
X-19157Y16841D01*
X-19164Y16833D01*
X-19168Y16825D01*
X-19169Y16816D01*
Y17011D01*
X-19168Y17002D01*
D02*
G37*
G36*
X-21262Y16930D02*
X-21258Y16917D01*
X-21254Y16904D01*
X-21249Y16891D01*
X-21242Y16878D01*
X-21235Y16865D01*
X-21226Y16852D01*
X-21216Y16840D01*
X-21206Y16827D01*
X-21194Y16815D01*
X-21257Y16739D01*
X-21275Y16756D01*
X-21309Y16784D01*
X-21323Y16794D01*
X-21337Y16801D01*
X-21349Y16805D01*
X-21359Y16807D01*
X-21369Y16806D01*
X-21377Y16803D01*
X-21383Y16797D01*
X-21264Y16944D01*
X-21262Y16930D01*
D02*
G37*
G36*
X-23583Y15472D02*
X-23620Y15470D01*
X-23654Y15465D01*
X-23683Y15455D01*
X-23709Y15441D01*
X-23730Y15423D01*
X-23748Y15402D01*
X-23762Y15376D01*
X-23766Y15365D01*
X-23765Y15363D01*
X-23759Y15345D01*
X-23751Y15331D01*
X-23743Y15322D01*
X-23733Y15316D01*
X-23722Y15314D01*
X-23777D01*
X-23778Y15313D01*
X-23780Y15276D01*
X-23976D01*
X-23978Y15313D01*
X-23978Y15314D01*
X-24034D01*
X-24023Y15316D01*
X-24013Y15322D01*
X-24005Y15331D01*
X-23997Y15345D01*
X-23991Y15363D01*
X-23990Y15365D01*
X-23994Y15376D01*
X-24008Y15402D01*
X-24026Y15423D01*
X-24047Y15441D01*
X-24073Y15455D01*
X-24102Y15465D01*
X-24136Y15470D01*
X-24173Y15472D01*
X-23878Y15669D01*
X-23583Y15472D01*
D02*
G37*
G36*
X-25039D02*
X-25077Y15470D01*
X-25110Y15465D01*
X-25140Y15455D01*
X-25165Y15441D01*
X-25187Y15423D01*
X-25205Y15402D01*
X-25219Y15376D01*
X-25222Y15365D01*
X-25222Y15363D01*
X-25215Y15345D01*
X-25208Y15331D01*
X-25199Y15322D01*
X-25189Y15316D01*
X-25178Y15314D01*
X-25234D01*
X-25234Y15313D01*
X-25236Y15276D01*
X-25433D01*
X-25435Y15313D01*
X-25435Y15314D01*
X-25491D01*
X-25480Y15316D01*
X-25470Y15322D01*
X-25461Y15331D01*
X-25454Y15345D01*
X-25448Y15363D01*
X-25447Y15365D01*
X-25451Y15376D01*
X-25465Y15402D01*
X-25482Y15423D01*
X-25504Y15441D01*
X-25530Y15455D01*
X-25559Y15465D01*
X-25593Y15470D01*
X-25630Y15472D01*
X-25335Y15669D01*
X-25039Y15472D01*
D02*
G37*
G36*
X-7168Y15514D02*
X-7166Y15488D01*
X-7162Y15465D01*
X-7157Y15446D01*
X-7150Y15429D01*
X-7142Y15415D01*
X-7132Y15405D01*
X-7121Y15397D01*
X-7108Y15393D01*
X-7094Y15391D01*
X-7394D01*
X-7380Y15393D01*
X-7367Y15397D01*
X-7356Y15405D01*
X-7346Y15415D01*
X-7338Y15429D01*
X-7331Y15446D01*
X-7326Y15465D01*
X-7322Y15488D01*
X-7320Y15514D01*
X-7319Y15542D01*
X-7169D01*
X-7168Y15514D01*
D02*
G37*
G36*
X-8050Y15001D02*
X-8052Y15020D01*
X-8058Y15036D01*
X-8068Y15051D01*
X-8081Y15063D01*
X-8099Y15074D01*
X-8121Y15083D01*
X-8146Y15090D01*
X-8176Y15095D01*
X-8202Y15097D01*
X-8251Y15093D01*
X-8277Y15089D01*
X-8299Y15084D01*
X-8316Y15078D01*
X-8330Y15070D01*
X-8340Y15061D01*
X-8346Y15052D01*
X-8348Y15041D01*
Y15353D01*
X-8346Y15342D01*
X-8340Y15332D01*
X-8330Y15324D01*
X-8316Y15316D01*
X-8299Y15310D01*
X-8277Y15305D01*
X-8251Y15300D01*
X-8222Y15298D01*
X-8202Y15297D01*
X-8176Y15299D01*
X-8146Y15304D01*
X-8121Y15311D01*
X-8099Y15320D01*
X-8081Y15330D01*
X-8068Y15343D01*
X-8058Y15357D01*
X-8052Y15374D01*
X-8050Y15392D01*
Y15001D01*
D02*
G37*
G36*
X-23018Y15092D02*
X-23019Y15081D01*
X-23018Y15070D01*
X-23015Y15058D01*
X-23009Y15044D01*
X-23001Y15030D01*
X-22990Y15014D01*
X-22977Y14998D01*
X-22961Y14980D01*
X-22944Y14962D01*
X-22974Y14853D01*
X-22996Y14874D01*
X-23034Y14908D01*
X-23051Y14919D01*
X-23066Y14928D01*
X-23079Y14934D01*
X-23090Y14936D01*
X-23100Y14935D01*
X-23107Y14931D01*
X-23113Y14924D01*
X-23014Y15101D01*
X-23018Y15092D01*
D02*
G37*
G36*
X-24480Y15223D02*
X-24484Y15204D01*
X-24483Y15182D01*
X-24477Y15158D01*
X-24465Y15131D01*
X-24449Y15102D01*
X-24427Y15071D01*
X-24400Y15037D01*
X-24368Y15001D01*
X-24331Y14962D01*
X-24430Y14783D01*
X-24473Y14824D01*
X-24548Y14888D01*
X-24580Y14911D01*
X-24610Y14928D01*
X-24636Y14939D01*
X-24659Y14944D01*
X-24679Y14943D01*
X-24695Y14937D01*
X-24709Y14924D01*
X-24471Y15240D01*
X-24480Y15223D01*
D02*
G37*
G36*
X-22575Y15412D02*
X-22500Y15348D01*
X-22467Y15325D01*
X-22438Y15308D01*
X-22411Y15297D01*
X-22388Y15292D01*
X-22369Y15293D01*
X-22352Y15300D01*
X-22338Y15312D01*
X-22576Y14996D01*
X-22567Y15013D01*
X-22563Y15032D01*
X-22564Y15054D01*
X-22570Y15078D01*
X-22582Y15105D01*
X-22598Y15134D01*
X-22620Y15165D01*
X-22647Y15199D01*
X-22679Y15236D01*
X-22717Y15274D01*
X-22617Y15453D01*
X-22575Y15412D01*
D02*
G37*
G36*
X-9153Y15018D02*
X-9194Y14976D01*
X-9258Y14901D01*
X-9281Y14869D01*
X-9298Y14839D01*
X-9309Y14813D01*
X-9314Y14790D01*
X-9313Y14770D01*
X-9307Y14753D01*
X-9294Y14740D01*
X-9610Y14978D01*
X-9593Y14969D01*
X-9574Y14964D01*
X-9552Y14966D01*
X-9528Y14972D01*
X-9501Y14983D01*
X-9472Y15000D01*
X-9441Y15022D01*
X-9407Y15049D01*
X-9371Y15081D01*
X-9332Y15118D01*
X-9153Y15018D01*
D02*
G37*
G36*
X-21419Y15640D02*
X-21416Y15632D01*
X-21411Y15625D01*
X-21404Y15618D01*
X-21395Y15613D01*
X-21384Y15608D01*
X-21371Y15605D01*
X-21356Y15602D01*
X-21339Y15601D01*
X-21320Y15600D01*
Y15502D01*
X-21339Y15501D01*
X-21356Y15500D01*
X-21371Y15498D01*
X-21384Y15494D01*
X-21395Y15490D01*
X-21404Y15484D01*
X-21411Y15478D01*
X-21416Y15470D01*
X-21419Y15462D01*
X-21420Y15453D01*
Y15650D01*
X-21419Y15640D01*
D02*
G37*
G36*
X-7706Y16037D02*
X-7708Y16038D01*
X-7711Y16039D01*
X-7717Y16040D01*
X-7724Y16041D01*
X-7755Y16043D01*
X-7802Y16043D01*
Y16240D01*
X-7785Y16240D01*
X-7711Y16244D01*
X-7708Y16245D01*
X-7706Y16247D01*
Y16037D01*
D02*
G37*
G36*
X-13650Y16270D02*
X-13515Y16153D01*
X-13488Y16134D01*
X-13464Y16120D01*
X-13442Y16109D01*
X-13423Y16103D01*
X-13407Y16101D01*
X-13757Y15960D01*
X-13741Y15970D01*
X-13731Y15984D01*
X-13729Y16002D01*
X-13733Y16024D01*
X-13743Y16050D01*
X-13761Y16080D01*
X-13785Y16113D01*
X-13816Y16151D01*
X-13898Y16239D01*
X-13690Y16310D01*
X-13650Y16270D01*
D02*
G37*
G36*
X-10234Y16202D02*
X-10242Y16207D01*
X-10252Y16209D01*
X-10263Y16208D01*
X-10275Y16205D01*
X-10288Y16200D01*
X-10303Y16191D01*
X-10318Y16181D01*
X-10335Y16167D01*
X-10353Y16151D01*
X-10373Y16132D01*
X-10462Y16182D01*
X-10442Y16203D01*
X-10410Y16241D01*
X-10398Y16257D01*
X-10390Y16272D01*
X-10384Y16285D01*
X-10382Y16297D01*
X-10382Y16306D01*
X-10386Y16315D01*
X-10392Y16322D01*
X-10234Y16202D01*
D02*
G37*
G36*
X-9291Y16464D02*
X-9285Y16454D01*
X-9275Y16446D01*
X-9261Y16438D01*
X-9243Y16432D01*
X-9222Y16427D01*
X-9196Y16423D01*
X-9167Y16420D01*
X-9096Y16417D01*
Y16220D01*
X-9133Y16220D01*
X-9196Y16215D01*
X-9222Y16211D01*
X-9243Y16206D01*
X-9261Y16200D01*
X-9275Y16192D01*
X-9285Y16184D01*
X-9291Y16174D01*
X-9293Y16163D01*
Y16475D01*
X-9291Y16464D01*
D02*
G37*
G36*
X-7145Y15753D02*
X-7150Y15745D01*
X-7154Y15737D01*
X-7158Y15727D01*
X-7162Y15716D01*
X-7164Y15704D01*
X-7166Y15691D01*
X-7168Y15677D01*
X-7169Y15646D01*
X-7319D01*
X-7319Y15662D01*
X-7322Y15691D01*
X-7324Y15704D01*
X-7327Y15716D01*
X-7330Y15727D01*
X-7334Y15737D01*
X-7338Y15745D01*
X-7343Y15753D01*
X-7349Y15759D01*
X-7139D01*
X-7145Y15753D01*
D02*
G37*
G36*
X-9684Y15415D02*
X-9804Y15414D01*
Y15413D01*
X-9842Y15413D01*
X-9905Y15406D01*
X-9930Y15401D01*
X-9952Y15394D01*
X-9970Y15386D01*
X-9984Y15375D01*
X-9993Y15364D01*
X-9999Y15351D01*
X-10001Y15336D01*
Y15688D01*
X-9999Y15673D01*
X-9993Y15660D01*
X-9984Y15648D01*
X-9970Y15638D01*
X-9952Y15630D01*
X-9930Y15623D01*
X-9905Y15617D01*
X-9875Y15613D01*
X-9844Y15611D01*
X-9843Y15611D01*
X-9809Y15614D01*
X-9780Y15619D01*
X-9754Y15626D01*
X-9732Y15635D01*
X-9714Y15646D01*
X-9701Y15658D01*
X-9691Y15673D01*
X-9685Y15690D01*
X-9683Y15709D01*
X-9684Y15415D01*
D02*
G37*
G36*
X-12588Y15965D02*
X-12596Y15962D01*
X-12604Y15957D01*
X-12610Y15950D01*
X-12616Y15941D01*
X-12620Y15930D01*
X-12624Y15918D01*
X-12626Y15903D01*
X-12627Y15886D01*
X-12628Y15867D01*
X-12726D01*
X-12727Y15886D01*
X-12728Y15903D01*
X-12731Y15918D01*
X-12734Y15930D01*
X-12739Y15941D01*
X-12744Y15950D01*
X-12750Y15957D01*
X-12758Y15962D01*
X-12766Y15965D01*
X-12776Y15966D01*
X-12579D01*
X-12588Y15965D01*
D02*
G37*
G36*
X-25551Y16240D02*
X-25545Y16224D01*
X-25535Y16209D01*
X-25521Y16196D01*
X-25503Y16186D01*
X-25482Y16177D01*
X-25456Y16170D01*
X-25426Y16165D01*
X-25393Y16162D01*
X-25356Y16161D01*
Y15965D01*
X-25393Y15964D01*
X-25426Y15961D01*
X-25456Y15956D01*
X-25482Y15949D01*
X-25503Y15940D01*
X-25521Y15930D01*
X-25535Y15917D01*
X-25545Y15902D01*
X-25551Y15886D01*
X-25552Y15867D01*
Y16259D01*
X-25551Y16240D01*
D02*
G37*
G36*
X-9684Y16911D02*
X-9804Y16910D01*
Y16909D01*
X-9842Y16909D01*
X-9905Y16902D01*
X-9930Y16897D01*
X-9952Y16890D01*
X-9970Y16882D01*
X-9984Y16872D01*
X-9993Y16860D01*
X-9999Y16847D01*
X-10001Y16832D01*
Y17184D01*
X-9999Y17169D01*
X-9993Y17156D01*
X-9984Y17144D01*
X-9970Y17134D01*
X-9952Y17126D01*
X-9930Y17119D01*
X-9905Y17113D01*
X-9875Y17109D01*
X-9844Y17107D01*
X-9843Y17107D01*
X-9809Y17110D01*
X-9780Y17115D01*
X-9754Y17122D01*
X-9732Y17131D01*
X-9714Y17142D01*
X-9701Y17155D01*
X-9691Y17169D01*
X-9685Y17186D01*
X-9683Y17205D01*
X-9684Y16911D01*
D02*
G37*
G36*
X-22679Y18630D02*
X-22681Y18629D01*
X-22685Y18627D01*
X-22689Y18624D01*
X-22695Y18619D01*
X-22718Y18599D01*
X-22751Y18566D01*
X-22890Y18705D01*
X-22878Y18718D01*
X-22830Y18772D01*
X-22828Y18776D01*
X-22827Y18778D01*
X-22679Y18630D01*
D02*
G37*
G36*
X-17893Y18721D02*
X-17890Y18688D01*
X-17885Y18658D01*
X-17878Y18633D01*
X-17869Y18611D01*
X-17859Y18593D01*
X-17846Y18579D01*
X-17832Y18570D01*
X-17815Y18564D01*
X-17797Y18562D01*
X-18188D01*
X-18169Y18564D01*
X-18153Y18570D01*
X-18138Y18579D01*
X-18126Y18593D01*
X-18115Y18611D01*
X-18106Y18633D01*
X-18099Y18658D01*
X-18094Y18688D01*
X-18092Y18721D01*
X-18091Y18759D01*
X-17894D01*
X-17893Y18721D01*
D02*
G37*
G36*
X-14037Y18829D02*
X-14034Y18821D01*
X-14029Y18813D01*
X-14022Y18807D01*
X-14013Y18802D01*
X-14002Y18797D01*
X-13989Y18794D01*
X-13974Y18791D01*
X-13957Y18790D01*
X-13938Y18789D01*
Y18691D01*
X-13957Y18690D01*
X-13974Y18689D01*
X-13989Y18687D01*
X-14002Y18683D01*
X-14013Y18679D01*
X-14022Y18673D01*
X-14029Y18667D01*
X-14034Y18659D01*
X-14037Y18651D01*
X-14038Y18642D01*
Y18839D01*
X-14037Y18829D01*
D02*
G37*
G36*
X-9684Y18407D02*
X-9804Y18406D01*
Y18406D01*
X-9842Y18405D01*
X-9905Y18399D01*
X-9930Y18393D01*
X-9952Y18386D01*
X-9970Y18378D01*
X-9984Y18368D01*
X-9993Y18356D01*
X-9999Y18343D01*
X-10001Y18328D01*
Y18680D01*
X-9999Y18665D01*
X-9993Y18652D01*
X-9984Y18640D01*
X-9970Y18630D01*
X-9952Y18622D01*
X-9930Y18615D01*
X-9905Y18609D01*
X-9875Y18605D01*
X-9844Y18603D01*
X-9843Y18603D01*
X-9809Y18606D01*
X-9780Y18611D01*
X-9754Y18618D01*
X-9732Y18627D01*
X-9714Y18638D01*
X-9701Y18651D01*
X-9691Y18665D01*
X-9685Y18682D01*
X-9683Y18701D01*
X-9684Y18407D01*
D02*
G37*
G36*
X-21269Y18402D02*
X-21273Y18394D01*
X-21274Y18385D01*
X-21273Y18375D01*
X-21269Y18363D01*
X-21262Y18350D01*
X-21252Y18336D01*
X-21240Y18320D01*
X-21225Y18303D01*
X-21207Y18284D01*
X-21290Y18228D01*
X-21309Y18246D01*
X-21343Y18275D01*
X-21358Y18285D01*
X-21372Y18293D01*
X-21385Y18299D01*
X-21397Y18302D01*
X-21408Y18303D01*
X-21418Y18301D01*
X-21427Y18297D01*
X-21262Y18408D01*
X-21269Y18402D01*
D02*
G37*
G36*
X-16653Y18404D02*
X-16698Y18358D01*
X-16766Y18279D01*
X-16791Y18245D01*
X-16808Y18215D01*
X-16819Y18189D01*
X-16823Y18167D01*
X-16820Y18150D01*
X-16810Y18136D01*
X-16794Y18126D01*
X-17144Y18266D01*
X-17128Y18269D01*
X-17109Y18275D01*
X-17087Y18285D01*
X-17063Y18300D01*
X-17036Y18319D01*
X-16974Y18369D01*
X-16901Y18436D01*
X-16861Y18475D01*
X-16653Y18404D01*
D02*
G37*
G36*
X-16219Y18545D02*
X-16221Y18563D01*
X-16227Y18580D01*
X-16237Y18594D01*
X-16251Y18607D01*
X-16268Y18617D01*
X-16290Y18626D01*
X-16316Y18633D01*
X-16345Y18638D01*
X-16379Y18641D01*
X-16416Y18642D01*
Y18839D01*
X-16379Y18840D01*
X-16345Y18842D01*
X-16316Y18847D01*
X-16290Y18854D01*
X-16268Y18863D01*
X-16251Y18874D01*
X-16237Y18886D01*
X-16227Y18901D01*
X-16221Y18917D01*
X-16219Y18936D01*
Y18545D01*
D02*
G37*
G36*
X-24096Y18354D02*
X-24098Y18353D01*
X-24102Y18351D01*
X-24106Y18348D01*
X-24112Y18344D01*
X-24135Y18323D01*
X-24169Y18291D01*
X-24308Y18430D01*
X-24296Y18442D01*
X-24247Y18497D01*
X-24245Y18500D01*
X-24244Y18502D01*
X-24096Y18354D01*
D02*
G37*
G36*
X-12764Y20055D02*
X-12767Y20047D01*
X-12768Y20037D01*
X-12765Y20025D01*
X-12760Y20012D01*
X-12751Y19997D01*
X-12740Y19981D01*
X-12725Y19963D01*
X-12688Y19923D01*
X-12777Y19873D01*
X-12796Y19891D01*
X-12831Y19921D01*
X-12847Y19932D01*
X-12861Y19940D01*
X-12875Y19945D01*
X-12887Y19949D01*
X-12898Y19949D01*
X-12908Y19947D01*
X-12916Y19942D01*
X-12757Y20062D01*
X-12764Y20055D01*
D02*
G37*
G36*
X-13512D02*
X-13515Y20047D01*
X-13516Y20037D01*
X-13513Y20025D01*
X-13508Y20012D01*
X-13499Y19997D01*
X-13488Y19981D01*
X-13473Y19963D01*
X-13436Y19923D01*
X-13525Y19873D01*
X-13544Y19891D01*
X-13579Y19921D01*
X-13595Y19932D01*
X-13609Y19940D01*
X-13623Y19945D01*
X-13635Y19949D01*
X-13646Y19949D01*
X-13656Y19947D01*
X-13664Y19942D01*
X-13505Y20062D01*
X-13512Y20055D01*
D02*
G37*
G36*
X-16338Y20040D02*
X-16333Y19977D01*
X-16329Y19951D01*
X-16324Y19930D01*
X-16318Y19912D01*
X-16310Y19898D01*
X-16302Y19888D01*
X-16292Y19883D01*
X-16281Y19881D01*
X-16593D01*
X-16582Y19883D01*
X-16572Y19888D01*
X-16564Y19898D01*
X-16556Y19912D01*
X-16550Y19930D01*
X-16545Y19951D01*
X-16541Y19977D01*
X-16538Y20007D01*
X-16535Y20077D01*
X-16339D01*
X-16338Y20040D01*
D02*
G37*
G36*
X-12016Y20055D02*
X-12019Y20047D01*
X-12020Y20037D01*
X-12017Y20025D01*
X-12012Y20012D01*
X-12003Y19997D01*
X-11992Y19981D01*
X-11977Y19963D01*
X-11940Y19923D01*
X-12029Y19873D01*
X-12048Y19891D01*
X-12083Y19921D01*
X-12099Y19932D01*
X-12113Y19940D01*
X-12127Y19945D01*
X-12139Y19949D01*
X-12150Y19949D01*
X-12160Y19947D01*
X-12168Y19942D01*
X-12009Y20062D01*
X-12016Y20055D01*
D02*
G37*
G36*
X-22735Y19581D02*
X-22729Y19556D01*
X-22719Y19528D01*
X-22704Y19499D01*
X-22685Y19467D01*
X-22662Y19434D01*
X-22635Y19399D01*
X-22568Y19323D01*
X-22529Y19282D01*
X-22600Y19075D01*
X-22646Y19120D01*
X-22726Y19189D01*
X-22760Y19213D01*
X-22790Y19231D01*
X-22816Y19241D01*
X-22838Y19245D01*
X-22855Y19242D01*
X-22869Y19232D01*
X-22878Y19215D01*
X-22738Y19605D01*
X-22735Y19581D01*
D02*
G37*
G36*
X-17374Y18976D02*
X-17384Y18970D01*
X-17393Y18960D01*
X-17400Y18946D01*
X-17407Y18928D01*
X-17412Y18907D01*
X-17416Y18881D01*
X-17419Y18852D01*
X-17421Y18781D01*
X-17618D01*
X-17619Y18818D01*
X-17623Y18881D01*
X-17627Y18907D01*
X-17633Y18928D01*
X-17639Y18946D01*
X-17646Y18960D01*
X-17655Y18970D01*
X-17665Y18976D01*
X-17676Y18978D01*
X-17364D01*
X-17374Y18976D01*
D02*
G37*
G36*
X-19280Y19718D02*
X-19277Y19674D01*
X-19271Y19635D01*
X-19263Y19601D01*
X-19252Y19572D01*
X-19239Y19549D01*
X-19224Y19530D01*
X-19206Y19517D01*
X-19186Y19510D01*
X-19164Y19507D01*
X-19635D01*
X-19613Y19510D01*
X-19593Y19517D01*
X-19575Y19530D01*
X-19560Y19549D01*
X-19547Y19572D01*
X-19536Y19601D01*
X-19528Y19635D01*
X-19522Y19674D01*
X-19519Y19718D01*
X-19518Y19768D01*
X-19282D01*
X-19280Y19718D01*
D02*
G37*
G36*
X-8346Y18334D02*
X-8340Y18324D01*
X-8330Y18316D01*
X-8316Y18308D01*
X-8299Y18302D01*
X-8277Y18297D01*
X-8251Y18293D01*
X-8222Y18290D01*
X-8151Y18287D01*
Y18091D01*
X-8188Y18090D01*
X-8251Y18085D01*
X-8277Y18081D01*
X-8299Y18076D01*
X-8316Y18070D01*
X-8330Y18062D01*
X-8340Y18054D01*
X-8346Y18044D01*
X-8348Y18033D01*
Y18345D01*
X-8346Y18334D01*
D02*
G37*
G36*
X-17803Y17693D02*
X-17807Y17684D01*
X-17807Y17674D01*
X-17804Y17663D01*
X-17799Y17650D01*
X-17791Y17635D01*
X-17779Y17619D01*
X-17765Y17601D01*
X-17727Y17560D01*
X-17816Y17510D01*
X-17836Y17529D01*
X-17871Y17558D01*
X-17886Y17569D01*
X-17901Y17578D01*
X-17914Y17583D01*
X-17926Y17586D01*
X-17937Y17587D01*
X-17947Y17585D01*
X-17955Y17580D01*
X-17797Y17700D01*
X-17803Y17693D01*
D02*
G37*
G36*
X-15807Y17391D02*
X-15803Y17318D01*
X-15802Y17314D01*
X-15801Y17312D01*
X-16011D01*
X-16009Y17314D01*
X-16008Y17318D01*
X-16007Y17323D01*
X-16006Y17330D01*
X-16005Y17362D01*
X-16004Y17408D01*
X-15807D01*
X-15807Y17391D01*
D02*
G37*
G36*
X-22578Y17776D02*
X-22575Y17742D01*
X-22570Y17713D01*
X-22563Y17687D01*
X-22554Y17665D01*
X-22543Y17647D01*
X-22531Y17634D01*
X-22516Y17624D01*
X-22499Y17618D01*
X-22480Y17616D01*
X-22833Y17617D01*
X-22822Y17619D01*
X-22813Y17625D01*
X-22804Y17635D01*
X-22796Y17648D01*
X-22790Y17666D01*
X-22785Y17688D01*
X-22781Y17713D01*
X-22778Y17743D01*
X-22776Y17814D01*
X-22579D01*
X-22578Y17776D01*
D02*
G37*
G36*
X-9306Y17884D02*
X-9312Y17868D01*
X-9313Y17848D01*
X-9309Y17825D01*
X-9298Y17798D01*
X-9281Y17769D01*
X-9258Y17736D01*
X-9229Y17701D01*
X-9153Y17619D01*
X-9332Y17520D01*
X-9371Y17557D01*
X-9441Y17616D01*
X-9472Y17637D01*
X-9501Y17654D01*
X-9528Y17665D01*
X-9552Y17671D01*
X-9574Y17672D01*
X-9593Y17668D01*
X-9610Y17659D01*
X-9293Y17898D01*
X-9306Y17884D01*
D02*
G37*
G36*
X-14590Y17279D02*
X-14602Y17267D01*
X-14651Y17212D01*
X-14653Y17209D01*
X-14653Y17206D01*
X-14802Y17355D01*
X-14799Y17355D01*
X-14796Y17357D01*
X-14791Y17360D01*
X-14786Y17365D01*
X-14762Y17386D01*
X-14729Y17418D01*
X-14590Y17279D01*
D02*
G37*
G36*
X-13996Y17164D02*
X-14037Y17122D01*
X-14101Y17047D01*
X-14124Y17014D01*
X-14141Y16985D01*
X-14152Y16959D01*
X-14157Y16936D01*
X-14156Y16916D01*
X-14149Y16899D01*
X-14136Y16886D01*
X-14453Y17123D01*
X-14436Y17114D01*
X-14417Y17110D01*
X-14395Y17111D01*
X-14371Y17118D01*
X-14344Y17129D01*
X-14315Y17146D01*
X-14283Y17167D01*
X-14250Y17194D01*
X-14213Y17227D01*
X-14175Y17264D01*
X-13996Y17164D01*
D02*
G37*
G36*
X-16613Y17265D02*
X-16615Y17280D01*
X-16621Y17293D01*
X-16631Y17305D01*
X-16644Y17315D01*
X-16662Y17323D01*
X-16684Y17330D01*
X-16709Y17336D01*
X-16739Y17339D01*
X-16772Y17342D01*
X-16810Y17343D01*
Y17539D01*
X-16772Y17540D01*
X-16709Y17546D01*
X-16684Y17552D01*
X-16662Y17559D01*
X-16644Y17567D01*
X-16631Y17577D01*
X-16621Y17589D01*
X-16615Y17602D01*
X-16613Y17617D01*
Y17265D01*
D02*
G37*
G36*
X-21269Y17417D02*
X-21272Y17409D01*
X-21273Y17399D01*
X-21271Y17388D01*
X-21266Y17376D01*
X-21258Y17363D01*
X-21248Y17348D01*
X-21236Y17332D01*
X-21220Y17314D01*
X-21202Y17295D01*
X-21276Y17230D01*
X-21295Y17249D01*
X-21330Y17277D01*
X-21345Y17288D01*
X-21359Y17296D01*
X-21372Y17301D01*
X-21383Y17304D01*
X-21394Y17304D01*
X-21403Y17302D01*
X-21411Y17297D01*
X-21263Y17424D01*
X-21269Y17417D01*
D02*
G37*
G36*
X-24113Y17776D02*
X-24110Y17743D01*
X-24105Y17713D01*
X-24099Y17688D01*
X-24090Y17666D01*
X-24079Y17648D01*
X-24067Y17635D01*
X-24052Y17625D01*
X-24035Y17619D01*
X-24017Y17617D01*
X-24408D01*
X-24390Y17619D01*
X-24373Y17625D01*
X-24359Y17635D01*
X-24346Y17648D01*
X-24335Y17666D01*
X-24327Y17688D01*
X-24320Y17713D01*
X-24315Y17743D01*
X-24312Y17776D01*
X-24311Y17814D01*
X-24114D01*
X-24113Y17776D01*
D02*
G37*
G36*
X-16174Y18157D02*
X-16179Y18139D01*
X-16178Y18117D01*
X-16172Y18093D01*
X-16161Y18067D01*
X-16144Y18038D01*
X-16122Y18006D01*
X-16095Y17972D01*
X-16024Y17895D01*
X-16143Y17736D01*
X-16184Y17776D01*
X-16258Y17839D01*
X-16290Y17861D01*
X-16320Y17878D01*
X-16346Y17890D01*
X-16369Y17895D01*
X-16390Y17895D01*
X-16407Y17888D01*
X-16421Y17877D01*
X-16164Y18173D01*
X-16174Y18157D01*
D02*
G37*
G36*
X-23795Y18079D02*
X-23798Y18079D01*
X-23802Y18077D01*
X-23807Y18074D01*
X-23813Y18070D01*
X-23820Y18064D01*
X-23838Y18049D01*
X-23871Y18017D01*
X-23993Y18174D01*
X-23929Y18241D01*
X-23795Y18079D01*
D02*
G37*
G36*
X-22573Y18119D02*
X-22575Y18115D01*
X-22576Y18110D01*
X-22576Y18103D01*
X-22578Y18071D01*
X-22579Y18025D01*
X-22776D01*
X-22776Y18042D01*
X-22780Y18115D01*
X-22781Y18119D01*
X-22782Y18121D01*
X-22572D01*
X-22573Y18119D01*
D02*
G37*
G36*
X-10234Y17698D02*
X-10242Y17703D01*
X-10252Y17705D01*
X-10263Y17704D01*
X-10275Y17701D01*
X-10288Y17696D01*
X-10303Y17687D01*
X-10318Y17677D01*
X-10335Y17663D01*
X-10353Y17647D01*
X-10373Y17629D01*
X-10462Y17678D01*
X-10442Y17700D01*
X-10410Y17737D01*
X-10398Y17753D01*
X-10390Y17768D01*
X-10384Y17781D01*
X-10382Y17793D01*
X-10382Y17803D01*
X-10386Y17811D01*
X-10392Y17818D01*
X-10234Y17698D01*
D02*
G37*
G36*
X-23326Y17776D02*
X-23323Y17743D01*
X-23318Y17713D01*
X-23311Y17688D01*
X-23302Y17666D01*
X-23292Y17648D01*
X-23279Y17635D01*
X-23265Y17625D01*
X-23248Y17619D01*
X-23230Y17617D01*
X-23621D01*
X-23602Y17619D01*
X-23586Y17625D01*
X-23571Y17635D01*
X-23559Y17648D01*
X-23548Y17666D01*
X-23539Y17688D01*
X-23532Y17713D01*
X-23528Y17743D01*
X-23525Y17776D01*
X-23524Y17814D01*
X-23327D01*
X-23326Y17776D01*
D02*
G37*
G36*
X-14327Y17834D02*
X-14340Y17828D01*
X-14352Y17818D01*
X-14362Y17804D01*
X-14370Y17787D01*
X-14377Y17765D01*
X-14383Y17739D01*
X-14387Y17710D01*
X-14389Y17677D01*
X-14390Y17639D01*
X-14587D01*
X-14587Y17677D01*
X-14594Y17739D01*
X-14599Y17765D01*
X-14606Y17787D01*
X-14614Y17804D01*
X-14625Y17818D01*
X-14636Y17828D01*
X-14649Y17834D01*
X-14664Y17836D01*
X-14312D01*
X-14327Y17834D01*
D02*
G37*
G36*
X-13697D02*
X-13710Y17828D01*
X-13722Y17818D01*
X-13732Y17804D01*
X-13740Y17787D01*
X-13747Y17765D01*
X-13753Y17739D01*
X-13757Y17710D01*
X-13759Y17677D01*
X-13760Y17639D01*
X-13957D01*
X-13957Y17677D01*
X-13964Y17739D01*
X-13969Y17765D01*
X-13976Y17787D01*
X-13985Y17804D01*
X-13995Y17818D01*
X-14006Y17828D01*
X-14019Y17834D01*
X-14034Y17836D01*
X-13682D01*
X-13697Y17834D01*
D02*
G37*
%LPC*%
G36*
X-15536Y12417D02*
X-15551Y12402D01*
X-15507D01*
X-15523Y12409D01*
X-15536Y12417D01*
D02*
G37*
%LPD*%
G36*
X-16594Y35257D02*
X-16591Y35223D01*
X-16586Y35194D01*
X-16579Y35168D01*
X-16570Y35146D01*
X-16560Y35129D01*
X-16547Y35115D01*
X-16532Y35105D01*
X-16516Y35099D01*
X-16497Y35097D01*
X-16888D01*
X-16870Y35099D01*
X-16853Y35105D01*
X-16839Y35115D01*
X-16826Y35129D01*
X-16816Y35146D01*
X-16807Y35168D01*
X-16800Y35194D01*
X-16795Y35223D01*
X-16792Y35257D01*
X-16791Y35294D01*
X-16594D01*
X-16594Y35257D01*
D02*
G37*
G36*
X-17342D02*
X-17339Y35223D01*
X-17334Y35194D01*
X-17327Y35168D01*
X-17318Y35146D01*
X-17308Y35129D01*
X-17295Y35115D01*
X-17280Y35105D01*
X-17264Y35099D01*
X-17245Y35097D01*
X-17636D01*
X-17618Y35099D01*
X-17602Y35105D01*
X-17587Y35115D01*
X-17574Y35129D01*
X-17564Y35146D01*
X-17555Y35168D01*
X-17548Y35194D01*
X-17543Y35223D01*
X-17540Y35257D01*
X-17539Y35294D01*
X-17343D01*
X-17342Y35257D01*
D02*
G37*
G36*
X-16694Y35952D02*
X-16697Y35952D01*
X-16700Y35950D01*
X-16705Y35947D01*
X-16710Y35942D01*
X-16734Y35921D01*
X-16767Y35889D01*
X-16906Y36028D01*
X-16894Y36040D01*
X-16845Y36095D01*
X-16844Y36098D01*
X-16843Y36101D01*
X-16694Y35952D01*
D02*
G37*
G36*
X-16589Y35442D02*
X-16590Y35438D01*
X-16591Y35433D01*
X-16592Y35426D01*
X-16594Y35394D01*
X-16594Y35348D01*
X-16791D01*
X-16791Y35365D01*
X-16796Y35438D01*
X-16797Y35442D01*
X-16798Y35444D01*
X-16588D01*
X-16589Y35442D01*
D02*
G37*
G36*
X-18026Y32609D02*
X-18034Y32593D01*
X-18035Y32573D01*
X-18030Y32550D01*
X-18019Y32524D01*
X-18002Y32494D01*
X-17979Y32462D01*
X-17950Y32426D01*
X-17874Y32344D01*
X-18072Y32264D01*
X-18100Y32290D01*
X-18153Y32335D01*
X-18180Y32353D01*
X-18205Y32368D01*
X-18230Y32381D01*
X-18255Y32390D01*
X-18279Y32397D01*
X-18302Y32401D01*
X-18325Y32403D01*
X-18013Y32622D01*
X-18026Y32609D01*
D02*
G37*
G36*
X-17617Y32088D02*
X-17545Y32028D01*
X-17513Y32005D01*
X-17484Y31989D01*
X-17458Y31977D01*
X-17434Y31971D01*
X-17413Y31971D01*
X-17394Y31976D01*
X-17378Y31986D01*
X-17675Y31728D01*
X-17663Y31743D01*
X-17657Y31760D01*
X-17656Y31780D01*
X-17662Y31804D01*
X-17673Y31830D01*
X-17690Y31859D01*
X-17712Y31892D01*
X-17741Y31927D01*
X-17815Y32007D01*
X-17656Y32126D01*
X-17617Y32088D01*
D02*
G37*
G36*
X-15846Y32970D02*
X-15837Y32848D01*
X-15833Y32829D01*
X-15828Y32814D01*
X-15822Y32803D01*
X-15816Y32796D01*
X-15808Y32794D01*
X-16121D01*
X-16114Y32796D01*
X-16107Y32803D01*
X-16101Y32814D01*
X-16096Y32829D01*
X-16092Y32848D01*
X-16089Y32872D01*
X-16084Y32933D01*
X-16083Y33012D01*
X-15846D01*
X-15846Y32970D01*
D02*
G37*
G36*
X-17098Y32755D02*
X-17143Y32708D01*
X-17215Y32623D01*
X-17241Y32585D01*
X-17261Y32550D01*
X-17274Y32518D01*
X-17282Y32490D01*
X-17283Y32464D01*
X-17278Y32441D01*
X-17266Y32421D01*
X-17560Y32793D01*
X-17543Y32778D01*
X-17523Y32770D01*
X-17499Y32769D01*
X-17471Y32775D01*
X-17440Y32788D01*
X-17404Y32809D01*
X-17365Y32836D01*
X-17323Y32871D01*
X-17226Y32961D01*
X-17098Y32755D01*
D02*
G37*
G36*
X-16492Y33837D02*
X-16417Y33773D01*
X-16384Y33750D01*
X-16355Y33733D01*
X-16329Y33722D01*
X-16306Y33717D01*
X-16286Y33718D01*
X-16269Y33725D01*
X-16256Y33738D01*
X-16494Y33421D01*
X-16484Y33438D01*
X-16480Y33457D01*
X-16481Y33479D01*
X-16488Y33503D01*
X-16499Y33530D01*
X-16516Y33559D01*
X-16537Y33591D01*
X-16564Y33624D01*
X-16597Y33661D01*
X-16634Y33699D01*
X-16534Y33878D01*
X-16492Y33837D01*
D02*
G37*
G36*
X-16571Y32401D02*
X-16584Y32395D01*
X-16596Y32385D01*
X-16606Y32371D01*
X-16615Y32354D01*
X-16621Y32332D01*
X-16627Y32306D01*
X-16631Y32277D01*
X-16633Y32243D01*
X-16634Y32206D01*
X-16831D01*
X-16831Y32243D01*
X-16837Y32332D01*
X-16840Y32354D01*
X-16844Y32371D01*
X-16849Y32385D01*
X-16855Y32395D01*
X-16862Y32401D01*
X-16869Y32403D01*
X-16556D01*
X-16571Y32401D01*
D02*
G37*
G36*
X-14653Y32912D02*
X-14564Y32836D01*
X-14525Y32809D01*
X-14489Y32788D01*
X-14458Y32775D01*
X-14430Y32769D01*
X-14406Y32770D01*
X-14386Y32778D01*
X-14369Y32793D01*
X-14547Y32567D01*
X-14425Y32404D01*
X-14438Y32417D01*
X-14455Y32424D01*
X-14475Y32425D01*
X-14498Y32419D01*
X-14524Y32408D01*
X-14554Y32391D01*
X-14586Y32368D01*
X-14622Y32339D01*
X-14703Y32264D01*
X-14803Y32442D01*
X-14766Y32481D01*
X-14707Y32551D01*
X-14686Y32581D01*
X-14688Y32585D01*
X-14715Y32623D01*
X-14747Y32664D01*
X-14786Y32708D01*
X-14831Y32755D01*
X-14703Y32961D01*
X-14653Y32912D01*
D02*
G37*
G36*
X-15114Y32403D02*
X-15130Y32413D01*
X-15149Y32418D01*
X-15170Y32418D01*
X-15194Y32412D01*
X-15221Y32400D01*
X-15250Y32384D01*
X-15282Y32362D01*
X-15316Y32334D01*
X-15353Y32302D01*
X-15392Y32264D01*
X-15551Y32383D01*
X-15511Y32424D01*
X-15449Y32498D01*
X-15426Y32530D01*
X-15410Y32560D01*
X-15399Y32586D01*
X-15393Y32609D01*
X-15394Y32630D01*
X-15400Y32647D01*
X-15412Y32662D01*
X-15114Y32403D01*
D02*
G37*
G36*
X-14763Y33867D02*
X-14758Y33796D01*
X-14754Y33779D01*
X-14750Y33764D01*
X-14745Y33753D01*
X-14739Y33745D01*
X-14733Y33740D01*
X-14726Y33739D01*
X-15038D01*
X-15031Y33740D01*
X-15024Y33745D01*
X-15019Y33753D01*
X-15014Y33764D01*
X-15010Y33779D01*
X-15006Y33796D01*
X-15003Y33817D01*
X-15000Y33867D01*
X-15000Y33898D01*
X-14764D01*
X-14763Y33867D01*
D02*
G37*
G36*
X-15094Y34412D02*
X-15102Y34391D01*
X-15102Y34367D01*
X-15096Y34339D01*
X-15082Y34307D01*
X-15062Y34272D01*
X-15035Y34233D01*
X-15001Y34191D01*
X-14913Y34096D01*
X-15100Y33948D01*
X-15147Y33994D01*
X-15233Y34067D01*
X-15271Y34093D01*
X-15306Y34113D01*
X-15338Y34126D01*
X-15367Y34133D01*
X-15392Y34134D01*
X-15415Y34128D01*
X-15434Y34115D01*
X-15080Y34430D01*
X-15094Y34412D01*
D02*
G37*
G36*
X-16516Y34114D02*
X-16532Y34108D01*
X-16547Y34098D01*
X-16560Y34084D01*
X-16570Y34066D01*
X-16579Y34045D01*
X-16586Y34019D01*
X-16591Y33989D01*
X-16594Y33956D01*
X-16594Y33919D01*
X-16791D01*
X-16792Y33956D01*
X-16795Y33989D01*
X-16800Y34019D01*
X-16807Y34045D01*
X-16816Y34066D01*
X-16826Y34084D01*
X-16839Y34098D01*
X-16853Y34108D01*
X-16870Y34114D01*
X-16888Y34115D01*
X-16497D01*
X-16516Y34114D01*
D02*
G37*
G36*
X-16633Y32146D02*
X-16630Y32113D01*
X-16625Y32083D01*
X-16618Y32058D01*
X-16610Y32036D01*
X-16599Y32018D01*
X-16586Y32005D01*
X-16572Y31995D01*
X-16555Y31989D01*
X-16537Y31987D01*
X-16928D01*
X-16909Y31989D01*
X-16893Y31995D01*
X-16878Y32005D01*
X-16866Y32018D01*
X-16855Y32036D01*
X-16846Y32058D01*
X-16839Y32083D01*
X-16835Y32113D01*
X-16832Y32146D01*
X-16831Y32184D01*
X-16634D01*
X-16633Y32146D01*
D02*
G37*
G36*
X-15076Y31407D02*
X-15072Y31333D01*
X-15071Y31330D01*
X-15069Y31328D01*
X-15279D01*
X-15278Y31330D01*
X-15277Y31333D01*
X-15276Y31339D01*
X-15275Y31346D01*
X-15274Y31377D01*
X-15273Y31424D01*
X-15076D01*
X-15076Y31407D01*
D02*
G37*
G36*
X-15650Y32007D02*
X-15689Y31965D01*
X-15752Y31892D01*
X-15775Y31859D01*
X-15792Y31830D01*
X-15803Y31804D01*
X-15808Y31780D01*
X-15808Y31760D01*
X-15802Y31743D01*
X-15790Y31728D01*
X-16087Y31986D01*
X-16071Y31976D01*
X-16052Y31971D01*
X-16031Y31971D01*
X-16007Y31977D01*
X-15980Y31989D01*
X-15951Y32005D01*
X-15919Y32028D01*
X-15885Y32055D01*
X-15808Y32126D01*
X-15650Y32007D01*
D02*
G37*
G36*
X-7991Y4706D02*
X-7993Y4713D01*
X-7999Y4720D01*
X-8009Y4725D01*
X-8022Y4730D01*
X-8040Y4735D01*
X-8062Y4738D01*
X-8087Y4741D01*
X-8150Y4744D01*
X-8188Y4744D01*
Y4941D01*
X-8150Y4942D01*
X-8116Y4945D01*
X-8087Y4950D01*
X-8061Y4957D01*
X-8039Y4966D01*
X-8021Y4976D01*
X-8008Y4989D01*
X-7998Y5004D01*
X-7992Y5021D01*
X-7990Y5039D01*
X-7991Y4706D01*
D02*
G37*
G36*
X-8395Y4946D02*
X-8391Y4945D01*
X-8385Y4944D01*
X-8378Y4943D01*
X-8347Y4942D01*
X-8301Y4941D01*
Y4744D01*
X-8318Y4744D01*
X-8391Y4740D01*
X-8395Y4739D01*
X-8397Y4738D01*
Y4948D01*
X-8395Y4946D01*
D02*
G37*
%LPC*%
G36*
X-20128Y1780D02*
X-20778D01*
X-20830Y1770D01*
X-20874Y1740D01*
X-20904Y1696D01*
X-20914Y1644D01*
Y1388D01*
X-20904Y1336D01*
X-20874Y1291D01*
X-20830Y1262D01*
X-20778Y1251D01*
X-20128D01*
X-20076Y1262D01*
X-20031Y1291D01*
X-20002Y1336D01*
X-19991Y1388D01*
Y1644D01*
X-20002Y1696D01*
X-20031Y1740D01*
X-20076Y1770D01*
X-20128Y1780D01*
D02*
G37*
%LPD*%
D10*
X-14272Y14990D02*
D03*
X-16437D02*
D03*
Y12254D02*
D03*
X-14272D02*
D03*
X-18996Y3356D02*
D03*
X-19193D02*
D03*
Y4439D02*
D03*
X-18996D02*
D03*
D11*
X-14468Y14970D02*
D03*
X-14665D02*
D03*
X-14862D02*
D03*
X-15059D02*
D03*
X-15256D02*
D03*
X-15453D02*
D03*
X-15650D02*
D03*
X-15846D02*
D03*
X-16043D02*
D03*
X-16240D02*
D03*
Y12274D02*
D03*
X-16043D02*
D03*
X-15846D02*
D03*
X-15650D02*
D03*
X-15453D02*
D03*
X-15256D02*
D03*
X-15059D02*
D03*
X-14862D02*
D03*
X-14665D02*
D03*
X-14468D02*
D03*
D12*
X-16722Y14705D02*
D03*
Y12539D02*
D03*
X-13986D02*
D03*
Y14705D02*
D03*
X-18553Y3996D02*
D03*
Y3799D02*
D03*
X-19636D02*
D03*
Y3996D02*
D03*
D13*
X-16703Y14508D02*
D03*
Y14311D02*
D03*
Y14114D02*
D03*
Y13917D02*
D03*
Y13720D02*
D03*
Y13524D02*
D03*
Y13327D02*
D03*
Y13130D02*
D03*
Y12933D02*
D03*
Y12736D02*
D03*
X-14006D02*
D03*
Y12933D02*
D03*
Y13130D02*
D03*
Y13327D02*
D03*
Y13524D02*
D03*
Y13720D02*
D03*
Y13917D02*
D03*
Y14114D02*
D03*
Y14311D02*
D03*
Y14508D02*
D03*
D14*
X-15354Y13622D02*
D03*
D15*
X-22913Y19409D02*
D03*
X-23543D02*
D03*
X-17480Y4606D02*
D03*
X-16850D02*
D03*
X-19449Y9961D02*
D03*
X-20079D02*
D03*
X-22244Y8976D02*
D03*
X-22874D02*
D03*
X-11378Y7874D02*
D03*
X-10748D02*
D03*
X-23386Y14449D02*
D03*
X-24016D02*
D03*
X-13228Y11811D02*
D03*
X-12598D02*
D03*
X-14213Y18740D02*
D03*
X-14843D02*
D03*
X-9921Y8268D02*
D03*
X-9291D02*
D03*
X-24764Y14449D02*
D03*
X-25394D02*
D03*
X-9646Y13425D02*
D03*
X-9016D02*
D03*
X-6969Y17047D02*
D03*
X-6339D02*
D03*
X-7874Y15197D02*
D03*
X-7244D02*
D03*
X-13858Y18032D02*
D03*
X-14488D02*
D03*
X-16968Y18071D02*
D03*
X-16339D02*
D03*
X-21142Y12008D02*
D03*
X-20512D02*
D03*
X-11378Y23189D02*
D03*
X-12008D02*
D03*
X-13937Y23898D02*
D03*
X-13307D02*
D03*
X-13386Y23189D02*
D03*
X-12756D02*
D03*
X-11614Y11496D02*
D03*
X-10984D02*
D03*
X-10315Y10354D02*
D03*
X-9685D02*
D03*
X-20394Y26181D02*
D03*
X-19764D02*
D03*
X-10315Y11102D02*
D03*
X-9685D02*
D03*
X-9252Y5945D02*
D03*
X-9882D02*
D03*
X-17559Y11496D02*
D03*
X-16929D02*
D03*
X-17559Y10866D02*
D03*
X-16929D02*
D03*
X-20551Y5709D02*
D03*
X-21181D02*
D03*
X-16850Y3858D02*
D03*
X-17480D02*
D03*
X-13583Y15906D02*
D03*
X-14213D02*
D03*
D16*
X-16929Y2441D02*
D03*
Y3150D02*
D03*
X-22047Y20748D02*
D03*
Y20039D02*
D03*
Y4331D02*
D03*
Y3622D02*
D03*
D17*
X-18268Y5276D02*
D03*
Y5906D02*
D03*
X-10197Y14882D02*
D03*
Y15512D02*
D03*
Y17874D02*
D03*
Y18504D02*
D03*
X-12953Y20118D02*
D03*
Y20748D02*
D03*
X-15984Y31181D02*
D03*
Y31811D02*
D03*
X-17480Y31181D02*
D03*
Y31811D02*
D03*
X-12677Y16142D02*
D03*
Y16772D02*
D03*
X-18032Y23150D02*
D03*
Y23780D02*
D03*
X-19528Y22717D02*
D03*
Y23346D02*
D03*
X-18189Y12874D02*
D03*
Y12244D02*
D03*
X-6969Y8465D02*
D03*
Y7835D02*
D03*
X-8189Y12638D02*
D03*
Y12008D02*
D03*
X-10197Y16378D02*
D03*
Y17008D02*
D03*
X-12205Y20118D02*
D03*
Y20748D02*
D03*
X-13701Y20118D02*
D03*
Y20748D02*
D03*
X-16732Y31181D02*
D03*
Y31811D02*
D03*
X-17992Y17756D02*
D03*
Y18386D02*
D03*
X-18780Y23150D02*
D03*
Y23780D02*
D03*
X-18189Y10866D02*
D03*
Y11496D02*
D03*
X-22874Y9764D02*
D03*
Y10394D02*
D03*
Y8189D02*
D03*
Y7559D02*
D03*
X-21614Y15551D02*
D03*
Y14921D02*
D03*
X-24213Y17441D02*
D03*
Y16811D02*
D03*
X-7795Y17244D02*
D03*
Y16614D02*
D03*
X-22638Y17441D02*
D03*
Y16811D02*
D03*
X-23425Y17441D02*
D03*
Y16811D02*
D03*
X-22362Y12047D02*
D03*
Y11417D02*
D03*
X-16417Y17441D02*
D03*
Y16811D02*
D03*
X-20512Y13386D02*
D03*
Y12756D02*
D03*
X-26063Y9252D02*
D03*
Y9882D02*
D03*
X-25276Y8504D02*
D03*
Y7874D02*
D03*
X-25315Y9252D02*
D03*
Y9882D02*
D03*
X-18189Y26811D02*
D03*
Y27441D02*
D03*
X-20394Y26811D02*
D03*
Y27441D02*
D03*
X-15276Y34291D02*
D03*
Y34921D02*
D03*
X-17441Y34291D02*
D03*
Y34921D02*
D03*
X-7795Y4882D02*
D03*
Y5512D02*
D03*
X-16693Y34291D02*
D03*
Y34921D02*
D03*
X-8504Y5945D02*
D03*
Y6575D02*
D03*
X-19016Y5276D02*
D03*
Y5906D02*
D03*
X-19764Y5276D02*
D03*
Y5906D02*
D03*
X-20472Y4331D02*
D03*
Y4961D02*
D03*
X-21220Y4331D02*
D03*
Y4961D02*
D03*
X-15433Y10866D02*
D03*
Y10236D02*
D03*
X-16614Y8740D02*
D03*
Y8110D02*
D03*
X-17795Y2559D02*
D03*
Y3189D02*
D03*
D18*
X-20453Y453D02*
D03*
Y1516D02*
D03*
X-18130D02*
D03*
D19*
Y453D02*
D03*
D20*
X-19955Y2402D02*
D03*
X-19100D02*
D03*
D21*
X-8543Y18189D02*
D03*
X-9488Y17815D02*
D03*
Y18563D02*
D03*
X-8543Y16693D02*
D03*
X-9488Y16319D02*
D03*
Y17067D02*
D03*
X-8543Y15197D02*
D03*
X-9488Y14823D02*
D03*
Y15571D02*
D03*
X-14331Y16968D02*
D03*
X-13386Y17343D02*
D03*
Y16594D02*
D03*
X-21693Y10551D02*
D03*
X-20748Y10925D02*
D03*
Y10177D02*
D03*
X-10315Y12598D02*
D03*
X-11260Y12224D02*
D03*
Y12972D02*
D03*
X-19803Y11142D02*
D03*
X-18858Y11516D02*
D03*
Y10768D02*
D03*
X-24528Y9331D02*
D03*
X-23583Y9705D02*
D03*
Y8957D02*
D03*
X-19803Y12598D02*
D03*
X-18858Y12972D02*
D03*
Y12224D02*
D03*
X-24528Y7874D02*
D03*
X-23583Y8248D02*
D03*
Y7500D02*
D03*
X-24528Y10787D02*
D03*
X-23583Y11161D02*
D03*
Y10413D02*
D03*
X-15945Y8268D02*
D03*
X-15000Y8642D02*
D03*
Y7894D02*
D03*
D22*
X-9606Y6654D02*
D03*
X-9980Y7598D02*
D03*
X-9232D02*
D03*
X-16339Y33543D02*
D03*
X-15965Y32598D02*
D03*
X-16713D02*
D03*
X-7402Y6220D02*
D03*
X-7776Y7165D02*
D03*
X-7028D02*
D03*
X-25709Y16063D02*
D03*
X-25335Y15118D02*
D03*
X-26083D02*
D03*
X-17795Y33543D02*
D03*
X-17421Y32598D02*
D03*
X-18169D02*
D03*
X-11063Y6260D02*
D03*
X-11437Y7205D02*
D03*
X-10689D02*
D03*
X-22795Y16063D02*
D03*
X-22421Y15118D02*
D03*
X-23169D02*
D03*
X-14882Y33543D02*
D03*
X-14508Y32598D02*
D03*
X-15256D02*
D03*
X-9331Y11890D02*
D03*
X-9705Y12835D02*
D03*
X-8957D02*
D03*
X-24252Y16063D02*
D03*
X-23878Y15118D02*
D03*
X-24626D02*
D03*
X-19764Y25512D02*
D03*
X-19390Y24567D02*
D03*
X-20138D02*
D03*
X-16063Y18740D02*
D03*
X-16437Y19685D02*
D03*
X-15689D02*
D03*
X-8504Y10354D02*
D03*
X-8878Y11299D02*
D03*
X-8130D02*
D03*
X-21220Y25512D02*
D03*
X-20846Y24567D02*
D03*
X-21594D02*
D03*
X-17520Y19173D02*
D03*
X-17894Y20118D02*
D03*
X-17146D02*
D03*
X-18307Y25512D02*
D03*
X-17933Y24567D02*
D03*
X-18681D02*
D03*
X-11102Y22402D02*
D03*
X-10728Y21457D02*
D03*
X-11476D02*
D03*
X-12559Y22402D02*
D03*
X-12185Y21457D02*
D03*
X-12933D02*
D03*
X-14016Y22402D02*
D03*
X-13642Y21457D02*
D03*
X-14390D02*
D03*
D23*
X-21545Y19413D02*
D03*
D24*
Y18913D02*
D03*
Y18413D02*
D03*
Y17913D02*
D03*
Y17413D02*
D03*
Y16913D02*
D03*
Y16413D02*
D03*
X-19400Y19413D02*
D03*
Y18913D02*
D03*
Y18413D02*
D03*
Y17913D02*
D03*
Y17413D02*
D03*
Y16913D02*
D03*
Y16413D02*
D03*
D25*
X-13354Y11049D02*
D03*
X-13799Y10604D02*
D03*
D26*
X-23622Y21555D02*
D03*
X-20472D02*
D03*
Y23327D02*
D03*
X-23622D02*
D03*
D27*
X-16929Y1707D02*
D03*
Y419D02*
D03*
D28*
X-19094Y3898D02*
D03*
D29*
X-18533Y4193D02*
D03*
Y3602D02*
D03*
X-19656D02*
D03*
Y4193D02*
D03*
D30*
X-18799Y3337D02*
D03*
X-19390D02*
D03*
Y4459D02*
D03*
X-18799D02*
D03*
D31*
X-14961Y3031D02*
D03*
Y906D02*
D03*
D32*
X-15709Y9409D02*
D03*
X-15000D02*
D03*
D33*
X-19449Y26772D02*
X-19134Y26457D01*
X-20866Y25039D02*
X-19409D01*
X-19390Y25020D01*
X-19449Y26772D02*
Y27874D01*
X-15197Y34921D02*
Y35709D01*
X-18406Y25039D02*
X-17933Y24567D01*
X-20472Y22520D02*
Y23327D01*
Y22520D02*
X-19400Y21447D01*
Y19413D02*
Y21447D01*
X-22047Y20748D02*
Y20945D01*
X-20472Y22520D01*
X-19390Y24567D02*
Y25020D01*
X-20846Y24567D02*
Y25020D01*
X-20866Y25039D02*
X-20846Y25020D01*
X-22047Y25039D02*
X-20866D01*
X-19134D02*
Y26457D01*
X-19409Y25039D02*
X-19134D01*
X-18406D01*
X-22047Y24252D02*
Y25039D01*
Y24252D02*
X-21122Y23327D01*
X-20472D01*
X-13642Y21457D02*
X-13169Y21929D01*
X-12185Y21457D02*
Y21909D01*
X-12165Y21929D01*
X-13169D02*
X-12165D01*
X-10728Y21457D02*
Y21929D01*
X-12165D02*
X-10728D01*
Y23248D01*
X-11220Y23740D02*
X-10728Y23248D01*
X-14882Y33543D02*
Y33898D01*
X-14980Y33071D02*
X-14508Y32598D01*
X-17421D02*
X-16949Y33071D01*
X-15965Y32598D02*
Y33012D01*
X-16024Y33071D02*
X-15965Y33012D01*
X-16949Y33071D02*
X-16024D01*
X-14980D01*
X-15591Y36102D02*
X-15197Y35709D01*
X-15276Y34291D02*
X-14882Y33898D01*
D34*
X-11693Y11496D02*
X-11614Y11417D01*
X-7795Y4843D02*
X-7756Y4882D01*
X-8504Y4843D02*
X-7795D01*
X-16850Y3150D02*
Y3858D01*
X-12598Y11929D02*
X-12323D01*
X-14862Y18760D02*
X-14764D01*
X-15689Y19685D02*
X-14764Y18760D01*
X-11063Y11496D02*
X-10315Y12244D01*
X-7953Y17165D02*
X-7795D01*
Y16535D02*
X-7362D01*
X-16142Y8976D02*
X-15709Y9409D01*
X-16378Y8740D02*
X-16142Y8976D01*
X-15394Y8287D02*
Y8976D01*
X-15709Y9291D02*
X-15394Y8976D01*
X-15709Y9291D02*
Y9409D01*
X-15394Y8287D02*
X-15000Y7894D01*
X-15433Y9685D02*
Y10236D01*
X-15709Y9409D02*
X-15433Y9685D01*
X-16614Y8740D02*
X-16378D01*
X-16850Y4606D02*
Y5315D01*
X-17835Y6299D02*
X-16850Y5315D01*
X-19370Y6299D02*
X-17835D01*
X-19764Y5906D02*
X-19370Y6299D01*
X-20748Y10177D02*
X-20531Y9961D01*
X-20079D01*
X-9016Y13425D02*
X-8957Y13366D01*
Y12835D02*
Y13366D01*
X-15174Y31220D02*
Y31932D01*
X-14508Y32598D01*
X-22244Y11417D02*
X-21772Y10945D01*
Y10630D02*
Y10945D01*
Y10630D02*
X-21693Y10551D01*
X-22362Y11417D02*
X-22244D01*
X-21811Y12283D02*
Y13701D01*
Y11988D02*
Y12283D01*
Y11988D02*
X-20748Y10925D01*
X-18858Y10827D02*
X-18189Y11496D01*
X-18858Y10768D02*
Y10827D01*
X-19331Y11496D02*
Y12500D01*
Y10984D02*
Y11496D01*
X-19311Y11516D01*
X-18858D01*
X-20748Y10925D02*
X-20610Y10787D01*
X-19528D01*
X-19331Y10984D01*
Y12500D02*
X-18858Y12972D01*
Y11516D02*
X-18504Y11870D01*
X-17933D01*
X-17559Y11496D01*
Y10866D02*
Y11496D01*
X-18740Y27441D02*
X-18189D01*
X-20394D02*
X-19843D01*
X-18189Y25630D02*
Y26811D01*
X-18307Y25512D02*
X-18189Y25630D01*
X-20138Y24508D02*
Y24567D01*
X-8110Y18189D02*
X-6969Y17047D01*
X-8543Y18189D02*
X-8110D01*
X-14862Y18760D02*
X-14843Y18740D01*
X-15906Y17205D02*
Y17638D01*
X-16339Y18071D02*
X-15906Y17638D01*
X-17579Y19685D02*
X-17146Y20118D01*
X-17717Y19685D02*
X-17579D01*
X-17992Y19409D02*
X-17717Y19685D01*
X-17992Y18386D02*
Y19409D01*
X-16260Y16654D02*
X-15906D01*
X-16417Y16811D02*
X-16260Y16654D01*
X-17047Y17441D02*
X-16417D01*
X-17520Y17913D02*
X-17047Y17441D01*
X-17520Y17913D02*
Y19173D01*
X-15256Y32539D02*
Y32598D01*
X-15984Y31811D02*
X-15256Y32539D01*
X-16732Y32579D02*
X-16713Y32598D01*
X-16732Y31811D02*
Y32579D01*
X-18169Y32500D02*
Y32598D01*
Y32500D02*
X-17480Y31811D01*
X-17441Y34921D02*
Y35354D01*
X-16693Y36102D01*
Y34921D02*
Y35551D01*
Y33898D02*
Y34291D01*
Y33898D02*
X-16339Y33543D01*
X-17795Y33937D02*
X-17441Y34291D01*
X-17795Y33543D02*
Y33937D01*
X-11496Y21457D02*
X-11476D01*
X-12205Y20748D02*
X-11496Y21457D01*
X-12933Y20768D02*
Y21457D01*
X-12953Y20748D02*
X-12933Y20768D01*
X-14390Y21437D02*
Y21457D01*
Y21437D02*
X-13701Y20748D01*
X-11102Y22402D02*
Y22913D01*
X-11378Y23189D02*
X-11102Y22913D01*
X-12598Y22402D02*
X-12559D01*
X-13386Y23189D02*
X-12598Y22402D01*
X-14016D02*
Y23819D01*
X-13937Y23898D01*
X-12913Y24291D02*
X-12756D01*
X-13307Y23898D02*
X-12913Y24291D01*
X-12756Y23740D02*
X-12756Y23740D01*
Y23189D02*
Y23740D01*
X-12008Y23937D02*
X-11654Y24291D01*
X-12008Y23189D02*
Y23937D01*
X-10315Y12244D02*
Y12598D01*
X-11280Y12972D02*
X-11260D01*
X-12323Y11929D02*
X-11280Y12972D01*
X-9685Y11535D02*
X-9331Y11890D01*
X-9685Y11102D02*
Y11535D01*
X-9547Y15512D02*
X-9488Y15571D01*
X-10197Y15512D02*
X-9547D01*
Y17008D02*
X-9488Y17067D01*
X-10197Y17008D02*
X-9547D01*
Y18504D02*
X-9488Y18563D01*
X-10197Y18504D02*
X-9547D01*
X-6339Y17047D02*
X-6142Y16850D01*
Y16417D02*
Y16850D01*
X-8543Y15197D02*
X-7874D01*
X-8189Y12008D02*
X-8130Y11949D01*
Y11299D02*
Y11949D01*
X-11614Y10709D02*
Y11417D01*
X-11968Y10354D02*
X-11614Y10709D01*
X-10472Y10945D02*
X-10315Y11102D01*
X-10866Y10945D02*
X-10472D01*
X-10866Y10354D02*
X-10315D01*
X-9685D02*
X-8504D01*
X-11063Y6260D02*
X-10748Y5945D01*
X-9882D01*
X-9606Y6654D02*
X-9528Y6575D01*
X-8504D01*
X-7402Y5866D02*
Y6220D01*
X-7756Y5512D02*
X-7402Y5866D01*
X-7047Y7835D02*
X-7028Y7815D01*
Y7165D02*
Y7815D01*
X-9291Y8268D02*
X-9232Y8209D01*
Y7598D02*
Y8209D01*
X-10748Y7874D02*
X-10689Y7815D01*
Y7205D02*
Y7815D01*
X-8504Y5394D02*
Y5945D01*
X-9252Y5945D02*
X-9173Y5866D01*
Y5276D02*
Y5866D01*
X-9606Y4843D02*
X-9173Y5276D01*
X-18209Y12224D02*
X-18189Y12244D01*
X-18858Y12224D02*
X-18209D01*
X-22205Y12205D02*
Y12717D01*
X-22362Y12047D02*
X-22205Y12205D01*
X-21102Y13268D02*
X-20630D01*
X-20512Y13386D01*
X-20354Y12598D02*
X-19803D01*
X-20512Y12756D02*
X-20354Y12598D01*
X-21102Y12047D02*
Y12717D01*
X-21142Y12008D02*
X-21102Y12047D01*
X-20512Y11929D02*
X-19803Y11220D01*
X-20512Y11929D02*
Y12008D01*
X-19803Y11142D02*
Y11220D01*
X-26083Y15118D02*
X-25413Y14449D01*
X-25394D01*
X-24016D02*
Y14508D01*
X-24626Y15118D02*
X-24016Y14508D01*
X-24213Y17441D02*
Y17815D01*
X-24961Y16063D02*
X-24213Y16811D01*
X-25709Y16063D02*
X-24961D01*
X-24173D02*
X-23425Y16811D01*
X-24252Y16063D02*
X-24173D01*
X-22638Y16220D02*
Y16811D01*
X-22795Y16063D02*
X-22638Y16220D01*
X-16929Y3150D02*
X-16850D01*
X-26929Y7992D02*
X-26063Y8858D01*
Y9252D01*
Y9882D02*
X-25157Y10787D01*
X-24528D01*
X-24646Y9331D02*
X-24528D01*
X-25197Y9882D02*
X-24646Y9331D01*
X-25315Y9882D02*
X-25197D01*
X-25827Y7992D02*
X-25315Y8504D01*
X-25276D01*
X-25827Y8543D02*
Y8622D01*
X-25315Y9134D01*
Y9252D01*
X-25276Y7874D02*
X-24528D01*
X-24528Y7874D01*
X-23583Y10413D02*
X-22894D01*
X-22874Y10394D01*
X-23583Y8957D02*
X-22894D01*
X-22874Y8976D01*
X-23583Y7500D02*
X-22933D01*
X-22874Y7559D01*
X-19409Y23780D02*
X-18780D01*
X-20138Y24508D02*
X-19409Y23780D01*
X-18032D02*
Y23858D01*
X-18681Y24508D02*
X-18032Y23858D01*
X-18681Y24508D02*
Y24567D01*
X-21594D02*
X-21122Y24094D01*
X-20276D01*
X-19528Y23346D01*
X-22677Y17480D02*
X-22638Y17441D01*
X-22677Y17480D02*
Y18228D01*
X-24213Y17815D02*
X-23799Y18228D01*
X-23780D01*
X-23425Y17441D02*
Y18032D01*
X-22677Y18780D01*
X-21850Y17913D02*
X-21545D01*
X-22244Y18307D02*
X-21850Y17913D01*
X-22244Y18307D02*
Y18858D01*
X-22795Y19409D02*
X-22244Y18858D01*
X-22913Y19409D02*
X-22795D01*
X-19776Y17413D02*
X-19400D01*
X-20472Y18110D02*
X-19776Y17413D01*
X-20472Y18110D02*
Y21555D01*
X-14803Y17205D02*
X-14488Y17520D01*
Y18032D01*
X-13386Y16594D02*
X-12854D01*
X-12677Y16772D01*
X-23878Y15118D02*
Y15571D01*
X-25335D02*
X-23878D01*
X-25335Y15118D02*
Y15571D01*
X-26181D02*
X-25335D01*
X-26181D02*
Y16535D01*
X-25118D01*
X-24803Y16850D01*
Y17795D01*
X-24094Y18504D01*
X-21220Y25512D02*
Y26102D01*
X-20512Y26811D01*
X-20394D01*
X-20394Y26142D02*
X-19764Y25512D01*
X-20394Y26142D02*
Y26181D01*
X-19843Y26260D02*
X-19764Y26181D01*
X-19843Y26260D02*
Y26890D01*
X-14331Y16968D02*
X-13858Y17441D01*
Y18032D01*
X-13386Y17244D02*
Y17343D01*
X-14016Y16614D02*
X-13386Y17244D01*
X-13583Y15906D02*
Y16063D01*
X-14803Y16772D02*
X-14567Y16535D01*
X-14055D02*
X-13583Y16063D01*
X-14567Y16535D02*
X-14055D01*
X-16968Y18071D02*
Y18228D01*
X-16457Y18740D01*
X-16063D01*
X-16437Y19685D02*
Y20138D01*
X-17520Y21220D02*
X-16437Y20138D01*
X-17520Y21220D02*
Y24154D01*
X-17933Y24567D02*
X-17520Y24154D01*
X-17894Y20118D02*
Y20846D01*
X-17520Y21220D01*
X-9488Y14823D02*
X-9055Y15256D01*
X-9488Y17815D02*
X-9055Y17382D01*
X-9488Y16319D02*
X-9055D01*
Y17382D01*
X-7362Y16535D02*
X-7244Y16417D01*
X-9055Y15256D02*
Y16142D01*
Y16319D01*
X-8543Y16693D02*
X-8425D01*
X-7953Y17165D01*
X-9055Y16142D02*
X-9055Y16142D01*
X-9055Y16142D01*
X-7598D01*
X-11260Y12224D02*
Y12283D01*
X-10551Y12992D01*
X-9862D01*
X-9705Y12835D01*
X-9646D01*
X-8878Y12067D01*
Y11299D02*
Y12067D01*
Y11299D02*
X-8819D01*
X-8110Y10591D01*
X-11260Y9882D02*
X-8268D01*
X-8110Y10039D01*
Y10591D01*
X-13354Y11049D02*
X-12585D01*
X-12441Y10906D01*
X-7815Y7126D02*
X-7776Y7165D01*
X-9961Y7126D02*
X-7815D01*
X-10354Y6732D02*
X-9961Y7126D01*
Y7579D01*
X-9980Y7598D02*
X-9961Y7579D01*
X-11417Y6732D02*
X-10354D01*
X-11496Y5945D02*
Y7146D01*
X-11437Y7205D01*
X-11496Y5945D02*
X-10945Y5394D01*
X-10079D01*
X-24055Y10689D02*
X-23583Y11161D01*
X-24055Y8248D02*
X-23583D01*
X-24055D02*
Y9705D01*
X-23583D01*
X-24055D02*
Y10689D01*
Y7638D02*
Y8248D01*
X-24331Y7362D02*
X-24055Y7638D01*
X-25984Y7362D02*
X-24331D01*
X-26181Y7559D02*
X-25984Y7362D01*
X-23878Y15571D02*
X-22874D01*
X-22421Y15118D01*
D35*
X-15000Y8642D02*
Y10551D01*
X-15551Y11102D02*
X-15000Y10551D01*
X-15551Y11102D02*
Y12126D01*
D36*
Y12402D01*
X-15059Y14630D02*
Y14646D01*
X-16339Y14630D02*
X-15059D01*
X-16339Y13189D02*
Y14630D01*
Y13189D02*
X-15551Y12402D01*
D37*
X-18553Y3996D02*
X-17480D01*
X-18701Y17165D02*
Y23150D01*
X-19409Y9803D02*
Y10039D01*
X-7047Y8465D02*
Y8583D01*
X-8189Y12638D02*
Y13268D01*
X-16988Y12736D02*
X-16703D01*
X-17244Y12480D02*
X-16988Y12736D01*
X-17244Y10606D02*
Y12480D01*
X-17339Y10512D02*
X-17244Y10606D01*
X-17835Y10512D02*
X-17339D01*
X-18189Y10866D02*
X-17835Y10512D01*
X-19409Y9803D02*
X-17244D01*
X-16437Y10610D01*
X-18504Y17244D02*
Y22677D01*
X-14213Y18740D02*
X-13898D01*
X-12165Y17008D01*
X-17992Y17756D02*
X-16535Y16299D01*
X-18898Y17087D02*
Y22087D01*
X-12165Y15866D02*
Y17008D01*
X-13524Y14508D02*
X-12165Y15866D01*
X-14006Y14508D02*
X-13524D01*
X-16535Y16299D02*
X-15276D01*
X-14468Y14970D02*
Y15492D01*
X-15354Y16102D02*
X-14665Y15413D01*
X-17362Y16102D02*
X-15354D01*
X-18504Y17244D02*
X-17362Y16102D01*
X-14665Y14970D02*
Y15413D01*
X-17441Y15906D02*
X-15433D01*
X-14862Y15335D01*
Y14970D02*
Y15335D01*
X-18898Y17087D02*
X-17520Y15709D01*
X-15512D01*
X-15256Y15453D01*
Y14970D02*
Y15453D01*
X-15630Y15512D02*
X-15453Y15335D01*
X-17598Y15512D02*
X-15630D01*
X-19000Y16913D02*
X-17598Y15512D01*
X-15748Y15315D02*
X-15650Y15217D01*
X-17795Y15315D02*
X-15748D01*
X-18894Y16413D02*
X-17795Y15315D01*
X-14006Y14311D02*
X-13406D01*
X-11929Y15787D01*
Y17087D01*
X-11732Y15669D02*
Y17205D01*
X-13287Y14114D02*
X-11732Y15669D01*
X-14006Y14114D02*
X-13287D01*
X-14006Y13917D02*
X-13169D01*
X-11535Y15551D01*
Y17323D01*
X-15984Y21772D02*
X-11535Y17323D01*
X-15984Y21772D02*
Y31181D01*
X-13701Y20118D02*
X-11339Y17756D01*
Y15433D02*
Y17756D01*
X-13051Y13720D02*
X-11339Y15433D01*
X-14006Y13720D02*
X-13051D01*
X-14006Y13524D02*
X-12933D01*
X-11142Y15315D01*
Y18307D01*
X-12953Y20118D02*
X-11142Y18307D01*
X-14006Y13327D02*
X-12815D01*
X-10945Y15197D01*
Y18858D01*
X-12205Y20118D02*
X-10945Y18858D01*
X-14252Y11811D02*
X-13228D01*
X-10748Y17323D02*
X-10197Y17874D01*
X-10748Y15118D02*
Y17323D01*
X-12736Y13130D02*
X-10748Y15118D01*
X-10551Y16024D02*
X-10197Y16378D01*
X-10551Y15039D02*
Y16024D01*
X-12657Y12933D02*
X-10551Y15039D01*
X-14006Y13130D02*
X-12736D01*
X-14006Y12933D02*
X-12657D01*
X-10433Y14882D02*
X-10197D01*
X-12579Y12736D02*
X-10433Y14882D01*
X-14006Y12736D02*
X-12579D01*
X-11260Y13780D02*
X-8701D01*
X-12500Y12539D02*
X-11260Y13780D01*
X-13986Y12539D02*
X-12500D01*
X-11339Y13425D02*
X-9646D01*
X-12510Y12254D02*
X-11339Y13425D01*
X-14272Y12254D02*
X-12510D01*
X-8701Y13780D02*
X-8189Y13268D01*
X-14468Y12028D02*
X-14252Y11811D01*
X-14468Y12028D02*
Y12274D01*
X-14087Y11337D02*
X-11844Y9094D01*
X-14093Y11337D02*
X-14087D01*
X-14665Y11909D02*
X-14093Y11337D01*
X-14665Y11909D02*
Y12274D01*
X-11969Y8268D02*
X-9921D01*
X-15059Y11358D02*
X-11969Y8268D01*
X-15059Y11358D02*
Y12274D01*
X-11850Y7874D02*
X-11378D01*
X-15256Y11280D02*
X-11850Y7874D01*
X-15256Y11280D02*
Y12274D01*
X-19823Y13327D02*
X-16703D01*
X-20551Y14055D02*
X-19823Y13327D01*
X-24370Y14055D02*
X-20551D01*
X-19508Y13524D02*
X-16703D01*
X-20433Y14449D02*
X-19508Y13524D01*
X-23386Y14449D02*
X-20433D01*
X-19193Y13720D02*
X-16703D01*
X-21024Y15551D02*
X-19193Y13720D01*
X-21614Y15551D02*
X-21024D01*
X-24764Y14449D02*
X-24370Y14055D01*
X-21772Y14764D02*
X-21614Y14921D01*
X-22815Y14764D02*
X-21772D01*
X-23169Y15118D02*
X-22815Y14764D01*
X-15453Y14970D02*
Y15335D01*
X-19400Y16913D02*
X-19000D01*
X-15650Y14970D02*
Y15217D01*
X-19400Y16413D02*
X-18894D01*
X-18878Y13917D02*
X-16703D01*
X-21374Y16413D02*
X-18878Y13917D01*
X-21545Y16413D02*
X-21374D01*
X-21406Y18413D02*
X-20866Y17874D01*
X-21545Y18413D02*
X-21406D01*
X-21545Y17413D02*
X-21390D01*
X-18563Y14114D02*
X-16703D01*
X-21362Y16913D02*
X-18563Y14114D01*
X-21545Y16913D02*
X-21362D01*
X-17480Y3858D02*
Y3996D01*
X-17894Y4193D02*
X-17480Y4606D01*
X-18533Y4193D02*
X-17894D01*
X-18799Y4744D02*
X-18268Y5276D01*
X-18799Y4459D02*
Y4744D01*
X-18996Y4439D02*
Y5256D01*
X-19016Y5276D02*
X-18996Y5256D01*
X-18189Y12874D02*
X-17933Y13130D01*
X-16703D01*
X-22874Y9764D02*
X-22638Y9528D01*
X-16437Y10610D02*
Y12254D01*
X-22638Y9528D02*
X-17165D01*
X-16240Y10453D01*
Y12274D01*
X-22244Y8976D02*
X-17362D01*
X-16043Y10295D01*
Y12274D01*
X-22874Y8189D02*
X-17795D01*
X-15846Y10138D01*
Y12274D01*
X-18287Y14311D02*
X-16703D01*
X-21390Y17413D02*
X-18287Y14311D01*
X-18091Y14508D02*
X-16703D01*
X-20866Y17283D02*
Y17874D01*
Y17283D02*
X-18091Y14508D01*
X-19528Y22717D02*
X-18898Y22087D01*
X-18701Y17165D02*
X-17441Y15906D01*
X-18504Y22677D02*
X-18032Y23150D01*
X-15059Y14646D02*
Y14970D01*
X-13986Y14705D02*
X-13681D01*
X-12677Y15709D01*
Y16142D01*
X-15276Y16299D02*
X-14468Y15492D01*
X-16220Y21693D02*
X-11732Y17205D01*
X-16220Y21693D02*
Y30669D01*
X-16732Y31181D02*
X-16220Y30669D01*
X-16457Y21614D02*
X-11929Y17087D01*
X-16457Y21614D02*
Y30157D01*
X-17480Y31181D02*
X-16457Y30157D01*
X-11844Y9094D02*
X-7559D01*
X-7047Y8583D01*
D38*
X-18130Y453D02*
X-14961D01*
X-17795Y3189D02*
X-16929D01*
X-14961Y453D02*
Y906D01*
Y1142D01*
X-16850Y3150D02*
X-16575D01*
X-16142Y3583D01*
Y6024D01*
X-15906Y6260D01*
X-14488D01*
X-14961Y1142D02*
X-14252Y1850D01*
Y6024D01*
X-14488Y6260D02*
X-14252Y6024D01*
D39*
X-18268Y5906D02*
X-18268Y5906D01*
D40*
X-19016Y5906D02*
X-18268D01*
X-19764Y5276D02*
X-19016D01*
X-20079Y4961D02*
X-19764Y5276D01*
X-20472Y4961D02*
X-20079D01*
X-20551Y5039D02*
Y5709D01*
Y5039D02*
X-20472Y4961D01*
X-21181Y5000D02*
Y5709D01*
X-21220Y4961D02*
X-21181Y5000D01*
D41*
X-7244Y15197D02*
Y15866D01*
D42*
X-21260Y0D02*
Y787D01*
X-22047D02*
X-21260D01*
X-22047D02*
Y2362D01*
X-22835D02*
X-22047D01*
X-22835D02*
Y3150D01*
X-24409D02*
X-22835D01*
X-24409D02*
Y3937D01*
X-25197D02*
X-24409D01*
X-25197D02*
Y4724D01*
X-25984D02*
X-25197D01*
X-25984D02*
Y5512D01*
X-27559D02*
X-25984D01*
X-27559Y4724D02*
Y5512D01*
X-28346Y4724D02*
X-27559D01*
X-28346Y3937D02*
Y4724D01*
X-29921Y3937D02*
X-28346D01*
X-29921D02*
Y4724D01*
X-30709D02*
X-29921D01*
X-30709D02*
Y6299D01*
X-31496D02*
X-30709D01*
X-31496D02*
Y7087D01*
X-33071D02*
X-31496D01*
X-33071D02*
Y8661D01*
X-31496D01*
Y9449D01*
X-30709D01*
Y10236D01*
X-29921D01*
Y11024D01*
X-29134D01*
Y12598D01*
X-28346D01*
Y14173D01*
X-29134D02*
X-28346D01*
X-29134D02*
Y14961D01*
X-29921D02*
X-29134D01*
X-29921D02*
Y15748D01*
X-28346D01*
Y16535D01*
X-27559D01*
Y17323D01*
X-26772D01*
Y18110D01*
X-25984D01*
Y19685D01*
X-25197D01*
Y21260D01*
X-24409D01*
Y22047D01*
X-25197D02*
X-24409D01*
X-25197D02*
Y22835D01*
X-25984D02*
X-25197D01*
X-25984D02*
Y23622D01*
X-25197D01*
Y24409D01*
X-24409D01*
Y25197D01*
X-23622D01*
Y25984D01*
X-22835D01*
Y26772D01*
X-22047D01*
Y27559D01*
X-21260D01*
Y28346D01*
X-20472D01*
Y29921D01*
X-19685D01*
Y30709D01*
X-18898D01*
Y33071D01*
X-19685D02*
X-18898D01*
X-19685D02*
Y33858D01*
X-18898D01*
Y34646D01*
X-18110D01*
Y35433D01*
X-18898D02*
X-18110D01*
X-18898D02*
Y36220D01*
X-19685D02*
X-18898D01*
X-19685D02*
Y37008D01*
X-17323D01*
Y37795D01*
X-16535D01*
Y39370D01*
X-15748D01*
Y38583D02*
Y39370D01*
Y38583D02*
X-14961D01*
Y37008D02*
Y38583D01*
Y37008D02*
X-12598D01*
Y36220D02*
Y37008D01*
X-13386Y36220D02*
X-12598D01*
X-13386Y35433D02*
Y36220D01*
X-14173Y35433D02*
X-13386D01*
X-14173Y34646D02*
Y35433D01*
Y34646D02*
X-13386D01*
Y33858D02*
Y34646D01*
Y33858D02*
X-12598D01*
Y33071D02*
Y33858D01*
X-13386Y33071D02*
X-12598D01*
X-13386Y32283D02*
Y33071D01*
Y30709D02*
Y32283D01*
Y30709D02*
X-12598D01*
Y29921D02*
Y30709D01*
Y29921D02*
X-11811D01*
Y28346D02*
Y29921D01*
Y28346D02*
X-11024D01*
Y27559D02*
Y28346D01*
Y27559D02*
X-10236D01*
Y26772D02*
Y27559D01*
Y26772D02*
X-9449D01*
Y25984D02*
Y26772D01*
Y25984D02*
X-8661D01*
Y25197D02*
Y25984D01*
Y25197D02*
X-7874D01*
Y24409D02*
Y25197D01*
Y24409D02*
X-7087D01*
Y23622D02*
Y24409D01*
X-7874Y23622D02*
X-7087D01*
X-7874Y22835D02*
Y23622D01*
X-8661Y22835D02*
X-7874D01*
X-8661Y22047D02*
Y22835D01*
Y22047D02*
X-7874D01*
Y21260D02*
Y22047D01*
Y21260D02*
X-7087D01*
Y19685D02*
Y21260D01*
Y19685D02*
X-6299D01*
Y18898D02*
Y19685D01*
Y18898D02*
X-5512D01*
Y18110D02*
Y18898D01*
Y18110D02*
X-4724D01*
Y17323D02*
Y18110D01*
Y17323D02*
X-3937D01*
Y16535D02*
Y17323D01*
Y16535D02*
X-3150D01*
Y14961D02*
Y16535D01*
X-4724Y14961D02*
X-3150D01*
X-4724Y13386D02*
Y14961D01*
Y13386D02*
X-3937D01*
Y11811D02*
Y13386D01*
Y11811D02*
X-3150D01*
Y11024D02*
Y11811D01*
Y11024D02*
X-2362D01*
Y10236D02*
Y11024D01*
Y10236D02*
X-1575D01*
Y9449D02*
Y10236D01*
Y9449D02*
X-787D01*
Y8661D02*
Y9449D01*
Y8661D02*
X0D01*
Y6299D02*
Y8661D01*
X-787Y6299D02*
X0D01*
X-787Y5512D02*
Y6299D01*
X-3937Y5512D02*
X-787D01*
X-3937D02*
Y6299D01*
X-5512D02*
X-3937D01*
X-5512Y5512D02*
Y6299D01*
X-6299Y5512D02*
X-5512D01*
X-6299Y4724D02*
Y5512D01*
X-7087Y4724D02*
X-6299D01*
X-7087Y3150D02*
Y4724D01*
X-7874Y3150D02*
X-7087D01*
X-7874Y2362D02*
Y3150D01*
X-9449Y2362D02*
X-7874D01*
X-9449D02*
Y3150D01*
X-10236D02*
X-9449D01*
X-10236D02*
Y3937D01*
X-11024D02*
X-10236D01*
X-11024Y2362D02*
Y3937D01*
X-11811Y2362D02*
X-11024D01*
X-11811Y787D02*
Y2362D01*
X-13386Y787D02*
X-11811D01*
X-13386Y0D02*
Y787D01*
X-21260Y0D02*
X-13386D01*
D43*
X-19449Y27874D02*
D03*
X-15079Y14331D02*
D03*
X-15354Y14016D02*
D03*
Y13622D02*
D03*
X-16142Y8976D02*
D03*
X-16850Y5315D02*
D03*
X-15174Y31220D02*
D03*
X-21811Y13701D02*
D03*
Y12283D02*
D03*
X-19843Y27441D02*
D03*
X-14803Y17205D02*
D03*
X-15906Y16654D02*
D03*
X-16693Y35551D02*
D03*
X-11654Y24291D02*
D03*
X-12756D02*
D03*
Y23740D02*
D03*
X-6142Y16417D02*
D03*
X-7244Y15866D02*
D03*
X-10866Y10945D02*
D03*
Y10354D02*
D03*
X-11968D02*
D03*
X-8504Y5394D02*
D03*
Y4843D02*
D03*
X-9606D02*
D03*
X-22205Y12717D02*
D03*
X-21102Y13268D02*
D03*
Y12717D02*
D03*
X-15591Y36102D02*
D03*
X-16693D02*
D03*
X-15906Y17205D02*
D03*
X-18740Y27441D02*
D03*
X-25827Y8543D02*
D03*
X-26929Y7992D02*
D03*
X-25827D02*
D03*
X-22677Y18780D02*
D03*
Y18228D02*
D03*
X-23780D02*
D03*
X-24094Y18504D02*
D03*
X-23780Y18780D02*
D03*
X-6142Y15866D02*
D03*
X-11968Y10906D02*
D03*
X-9606Y5394D02*
D03*
X-26929Y8543D02*
D03*
X-22205Y13268D02*
D03*
X-18740Y26890D02*
D03*
X-19843D02*
D03*
X-15591Y35551D02*
D03*
X-19134Y26457D02*
D03*
X-11654Y23740D02*
D03*
X-11220D02*
D03*
X-14803Y16260D02*
D03*
Y16772D02*
D03*
X-7244Y16417D02*
D03*
X-7598Y16142D02*
D03*
X-11260Y9882D02*
D03*
X-12441Y10906D02*
D03*
X-10079Y5394D02*
D03*
X-26181Y7559D02*
D03*
X-15157Y4921D02*
D03*
Y5315D02*
D03*
X-15551D02*
D03*
Y4921D02*
D03*
Y5709D02*
D03*
X-15157D02*
D03*
M02*
