G04 Layer_Color=2752767*
%FSLAX24Y24*%
%MOIN*%
G70*
G01*
G75*
%ADD42C,0.0049*%
%ADD49C,0.0020*%
D42*
X-21260Y0D02*
Y787D01*
X-22047D02*
X-21260D01*
X-22047D02*
Y2362D01*
X-22835D02*
X-22047D01*
X-22835D02*
Y3150D01*
X-24409D02*
X-22835D01*
X-24409D02*
Y3937D01*
X-25197D02*
X-24409D01*
X-25197D02*
Y4724D01*
X-25984D02*
X-25197D01*
X-25984D02*
Y5512D01*
X-27559D02*
X-25984D01*
X-27559Y4724D02*
Y5512D01*
X-28346Y4724D02*
X-27559D01*
X-28346Y3937D02*
Y4724D01*
X-29921Y3937D02*
X-28346D01*
X-29921D02*
Y4724D01*
X-30709D02*
X-29921D01*
X-30709D02*
Y6299D01*
X-31496D02*
X-30709D01*
X-31496D02*
Y7087D01*
X-33071D02*
X-31496D01*
X-33071D02*
Y8661D01*
X-31496D01*
Y9449D01*
X-30709D01*
Y10236D01*
X-29921D01*
Y11024D01*
X-29134D01*
Y12598D01*
X-28346D01*
Y14173D01*
X-29134D02*
X-28346D01*
X-29134D02*
Y14961D01*
X-29921D02*
X-29134D01*
X-29921D02*
Y15748D01*
X-28346D01*
Y16535D01*
X-27559D01*
Y17323D01*
X-26772D01*
Y18110D01*
X-25984D01*
Y19685D01*
X-25197D01*
Y21260D01*
X-24409D01*
Y22047D01*
X-25197D02*
X-24409D01*
X-25197D02*
Y22835D01*
X-25984D02*
X-25197D01*
X-25984D02*
Y23622D01*
X-25197D01*
Y24409D01*
X-24409D01*
Y25197D01*
X-23622D01*
Y25984D01*
X-22835D01*
Y26772D01*
X-22047D01*
Y27559D01*
X-21260D01*
Y28346D01*
X-20472D01*
Y29921D01*
X-19685D01*
Y30709D01*
X-18898D01*
Y33071D01*
X-19685D02*
X-18898D01*
X-19685D02*
Y33858D01*
X-18898D01*
Y34646D01*
X-18110D01*
Y35433D01*
X-18898D02*
X-18110D01*
X-18898D02*
Y36220D01*
X-19685D02*
X-18898D01*
X-19685D02*
Y37008D01*
X-17323D01*
Y37795D01*
X-16535D01*
Y39370D01*
X-15748D01*
Y38583D02*
Y39370D01*
Y38583D02*
X-14961D01*
Y37008D02*
Y38583D01*
Y37008D02*
X-12598D01*
Y36220D02*
Y37008D01*
X-13386Y36220D02*
X-12598D01*
X-13386Y35433D02*
Y36220D01*
X-14173Y35433D02*
X-13386D01*
X-14173Y34646D02*
Y35433D01*
Y34646D02*
X-13386D01*
Y33858D02*
Y34646D01*
Y33858D02*
X-12598D01*
Y33071D02*
Y33858D01*
X-13386Y33071D02*
X-12598D01*
X-13386Y32283D02*
Y33071D01*
Y30709D02*
Y32283D01*
Y30709D02*
X-12598D01*
Y29921D02*
Y30709D01*
Y29921D02*
X-11811D01*
Y28346D02*
Y29921D01*
Y28346D02*
X-11024D01*
Y27559D02*
Y28346D01*
Y27559D02*
X-10236D01*
Y26772D02*
Y27559D01*
Y26772D02*
X-9449D01*
Y25984D02*
Y26772D01*
Y25984D02*
X-8661D01*
Y25197D02*
Y25984D01*
Y25197D02*
X-7874D01*
Y24409D02*
Y25197D01*
Y24409D02*
X-7087D01*
Y23622D02*
Y24409D01*
X-7874Y23622D02*
X-7087D01*
X-7874Y22835D02*
Y23622D01*
X-8661Y22835D02*
X-7874D01*
X-8661Y22047D02*
Y22835D01*
Y22047D02*
X-7874D01*
Y21260D02*
Y22047D01*
Y21260D02*
X-7087D01*
Y19685D02*
Y21260D01*
Y19685D02*
X-6299D01*
Y18898D02*
Y19685D01*
Y18898D02*
X-5512D01*
Y18110D02*
Y18898D01*
Y18110D02*
X-4724D01*
Y17323D02*
Y18110D01*
Y17323D02*
X-3937D01*
Y16535D02*
Y17323D01*
Y16535D02*
X-3150D01*
Y14961D02*
Y16535D01*
X-4724Y14961D02*
X-3150D01*
X-4724Y13386D02*
Y14961D01*
Y13386D02*
X-3937D01*
Y11811D02*
Y13386D01*
Y11811D02*
X-3150D01*
Y11024D02*
Y11811D01*
Y11024D02*
X-2362D01*
Y10236D02*
Y11024D01*
Y10236D02*
X-1575D01*
Y9449D02*
Y10236D01*
Y9449D02*
X-787D01*
Y8661D02*
Y9449D01*
Y8661D02*
X0D01*
Y6299D02*
Y8661D01*
X-787Y6299D02*
X0D01*
X-787Y5512D02*
Y6299D01*
X-3937Y5512D02*
X-787D01*
X-3937D02*
Y6299D01*
X-5512D02*
X-3937D01*
X-5512Y5512D02*
Y6299D01*
X-6299Y5512D02*
X-5512D01*
X-6299Y4724D02*
Y5512D01*
X-7087Y4724D02*
X-6299D01*
X-7087Y3150D02*
Y4724D01*
X-7874Y3150D02*
X-7087D01*
X-7874Y2362D02*
Y3150D01*
X-9449Y2362D02*
X-7874D01*
X-9449D02*
Y3150D01*
X-10236D02*
X-9449D01*
X-10236D02*
Y3937D01*
X-11024D02*
X-10236D01*
X-11024Y2362D02*
Y3937D01*
X-11811Y2362D02*
X-11024D01*
X-11811Y787D02*
Y2362D01*
X-13386Y787D02*
X-11811D01*
X-13386Y0D02*
Y787D01*
X-21260Y0D02*
X-13386D01*
D49*
X-19529Y27794D02*
Y27954D01*
X-19369D01*
Y27794D01*
X-19529D01*
X-15159Y14251D02*
Y14411D01*
X-14999D01*
Y14251D01*
X-15159D01*
X-15434Y13936D02*
Y14096D01*
X-15274D01*
Y13936D01*
X-15434D01*
Y13542D02*
Y13702D01*
X-15274D01*
Y13542D01*
X-15434D01*
X-16222Y8896D02*
Y9056D01*
X-16062D01*
Y8896D01*
X-16222D01*
X-16930Y5235D02*
Y5395D01*
X-16770D01*
Y5235D01*
X-16930D01*
X-15254Y31140D02*
Y31300D01*
X-15094D01*
Y31140D01*
X-15254D01*
X-21891Y13621D02*
Y13781D01*
X-21731D01*
Y13621D01*
X-21891D01*
Y12203D02*
Y12363D01*
X-21731D01*
Y12203D01*
X-21891D01*
X-19923Y27361D02*
Y27521D01*
X-19763D01*
Y27361D01*
X-19923D01*
X-14883Y17125D02*
Y17285D01*
X-14723D01*
Y17125D01*
X-14883D01*
X-15986Y16574D02*
Y16734D01*
X-15826D01*
Y16574D01*
X-15986D01*
X-16773Y35471D02*
Y35631D01*
X-16613D01*
Y35471D01*
X-16773D01*
X-11734Y24211D02*
Y24371D01*
X-11574D01*
Y24211D01*
X-11734D01*
X-12836D02*
Y24371D01*
X-12676D01*
Y24211D01*
X-12836D01*
Y23660D02*
Y23820D01*
X-12676D01*
Y23660D01*
X-12836D01*
X-6222Y16337D02*
Y16497D01*
X-6062D01*
Y16337D01*
X-6222D01*
X-7324Y15786D02*
Y15946D01*
X-7164D01*
Y15786D01*
X-7324D01*
X-10946Y10865D02*
Y11025D01*
X-10786D01*
Y10865D01*
X-10946D01*
Y10274D02*
Y10434D01*
X-10786D01*
Y10274D01*
X-10946D01*
X-12048D02*
Y10434D01*
X-11889D01*
Y10274D01*
X-12048D01*
X-8584Y5314D02*
Y5474D01*
X-8424D01*
Y5314D01*
X-8584D01*
Y4763D02*
Y4923D01*
X-8424D01*
Y4763D01*
X-8584D01*
X-9686D02*
Y4923D01*
X-9526D01*
Y4763D01*
X-9686D01*
X-22285Y12637D02*
Y12797D01*
X-22125D01*
Y12637D01*
X-22285D01*
X-21182Y13188D02*
Y13348D01*
X-21022D01*
Y13188D01*
X-21182D01*
Y12637D02*
Y12797D01*
X-21022D01*
Y12637D01*
X-21182D01*
X-15671Y36022D02*
Y36182D01*
X-15511D01*
Y36022D01*
X-15671D01*
X-16773D02*
Y36182D01*
X-16613D01*
Y36022D01*
X-16773D01*
X-15986Y17125D02*
Y17285D01*
X-15826D01*
Y17125D01*
X-15986D01*
X-18820Y27361D02*
Y27521D01*
X-18660D01*
Y27361D01*
X-18820D01*
X-25907Y8463D02*
Y8623D01*
X-25747D01*
Y8463D01*
X-25907D01*
X-27009Y7912D02*
Y8072D01*
X-26849D01*
Y7912D01*
X-27009D01*
X-25907D02*
Y8072D01*
X-25747D01*
Y7912D01*
X-25907D01*
X-22757Y18700D02*
Y18860D01*
X-22597D01*
Y18700D01*
X-22757D01*
Y18148D02*
Y18308D01*
X-22597D01*
Y18148D01*
X-22757D01*
X-23860D02*
Y18308D01*
X-23700D01*
Y18148D01*
X-23860D01*
X-24174Y18424D02*
Y18584D01*
X-24014D01*
Y18424D01*
X-24174D01*
X-23860Y18700D02*
Y18860D01*
X-23700D01*
Y18700D01*
X-23860D01*
X-6222Y15786D02*
Y15946D01*
X-6062D01*
Y15786D01*
X-6222D01*
X-12048Y10826D02*
Y10986D01*
X-11889D01*
Y10826D01*
X-12048D01*
X-9686Y5314D02*
Y5474D01*
X-9526D01*
Y5314D01*
X-9686D01*
X-27009Y8463D02*
Y8623D01*
X-26849D01*
Y8463D01*
X-27009D01*
X-22285Y13188D02*
Y13348D01*
X-22125D01*
Y13188D01*
X-22285D01*
X-18820Y26810D02*
Y26970D01*
X-18660D01*
Y26810D01*
X-18820D01*
X-19923D02*
Y26970D01*
X-19763D01*
Y26810D01*
X-19923D01*
X-15671Y35471D02*
Y35631D01*
X-15511D01*
Y35471D01*
X-15671D01*
X-19214Y26377D02*
Y26537D01*
X-19054D01*
Y26377D01*
X-19214D01*
X-11734Y23660D02*
Y23820D01*
X-11574D01*
Y23660D01*
X-11734D01*
X-11300D02*
Y23820D01*
X-11140D01*
Y23660D01*
X-11300D01*
X-14883Y16180D02*
Y16340D01*
X-14723D01*
Y16180D01*
X-14883D01*
Y16692D02*
Y16852D01*
X-14723D01*
Y16692D01*
X-14883D01*
X-7324Y16337D02*
Y16497D01*
X-7164D01*
Y16337D01*
X-7324D01*
X-7678Y16062D02*
Y16222D01*
X-7518D01*
Y16062D01*
X-7678D01*
X-11340Y9802D02*
Y9962D01*
X-11180D01*
Y9802D01*
X-11340D01*
X-12521Y10826D02*
Y10986D01*
X-12361D01*
Y10826D01*
X-12521D01*
X-10159Y5314D02*
Y5474D01*
X-9999D01*
Y5314D01*
X-10159D01*
X-26261Y7479D02*
Y7639D01*
X-26101D01*
Y7479D01*
X-26261D01*
X-15237Y4841D02*
Y5001D01*
X-15077D01*
Y4841D01*
X-15237D01*
Y5235D02*
Y5395D01*
X-15077D01*
Y5235D01*
X-15237D01*
X-15631D02*
Y5395D01*
X-15471D01*
Y5235D01*
X-15631D01*
Y4841D02*
Y5001D01*
X-15471D01*
Y4841D01*
X-15631D01*
Y5629D02*
Y5789D01*
X-15471D01*
Y5629D01*
X-15631D01*
X-15237D02*
Y5789D01*
X-15077D01*
Y5629D01*
X-15237D01*
M02*
