M48
;Layer_Color=9474304
;FILE_FORMAT=2:4
INCH,LZ
;TYPE=PLATED
T1F00S00C0.0150
%
T01
X-01685Y005315
X-015551Y005315
Y005709
X-015157
Y005315
Y004921
X-015551
X-016142Y008976
X-011968Y010354
Y010906
X-012441
X-010866Y010945
Y010354
X-01126Y009882
X-010079Y005394
X-009606
Y004843
X-008504
Y005394
X-026181Y007559
X-025827Y007992
Y008543
X-026929
Y007992
X-021811Y012283
X-022205Y012717
Y013268
X-021811Y013701
X-021102Y013268
Y012717
X-022677Y018228
Y01878
X-02378
Y018228
X-024094Y018504
X-015906Y017205
Y016654
X-014803Y016772
Y017205
Y01626
X-015079Y014331
X-015354Y014016
Y013622
X-007598Y016142
X-007244Y015866
Y016417
X-006142
Y015866
X-01122Y02374
X-011654
Y024291
X-012756
Y02374
X-019134Y026457
X-01874Y02689
X-019843
Y027441
X-019449Y027874
X-01874Y027441
X-015174Y03122
X-015591Y035551
Y036102
X-016693
Y035551
M30
